<?xml version="1.0" encoding="utf-8"?>
<svg xmlns="http://www.w3.org/2000/svg" viewBox="83.1266 71.9073 1878.0134 1885.0678" width="939.007px" height="942.534px">
  <path d="M 769.649 72.0212 C 770.172 71.9856 770.695 71.9362 771.219 71.9144 C 782.69 71.4376 827.386 94.9852 835.873 103.652 C 841.801 109.706 842.021 114.682 842.56 122.716 C 844.047 144.889 842.339 167.97 842.145 190.243 L 842.09 303.691 L 843.019 719.105 C 875.452 698.674 909.174 680.194 942.334 660.979 L 1090.96 574.48 L 1251.39 480.736 C 1272.41 468.36 1293.1 455.149 1314.31 443.151 C 1317.97 441.083 1322.16 438.869 1326.32 438.141 C 1339.22 435.883 1363.24 451.204 1373.84 458.551 C 1382.38 464.472 1385.4 468.952 1387.24 479.303 C 1390.51 497.613 1388.24 525.053 1388.23 544.192 L 1388.9 654.807 L 1388.98 929.171 C 1388.99 975.294 1389.65 1021.49 1389.06 1067.6 C 1389.01 1071.67 1389.08 1074.9 1386.56 1078.33 C 1384.89 1080.59 1382.99 1082.1 1380.62 1083.61 C 1363.43 1094.53 1345.47 1104.42 1327.93 1114.79 L 1254.71 1158.55 L 1088.05 1258.56 L 931.993 1351.94 C 904.951 1368.21 878.176 1385.11 850.732 1400.68 C 845.451 1403.68 839.424 1405.89 833.352 1406.46 C 818.004 1407.91 793.134 1396.68 781.573 1386.85 C 771.981 1378.69 769.303 1370.23 768.429 1358.22 L 712.584 1390.99 C 684.194 1406.16 656.436 1423.11 628.756 1439.54 C 595.567 1458.89 562.496 1478.44 529.546 1498.19 L 320.842 1619.76 C 288.542 1638.95 256.139 1657.97 223.634 1676.82 C 207.035 1686.5 190.522 1697.02 173.334 1705.58 C 164.159 1710.15 157.837 1712.24 147.836 1708.85 C 134.842 1704.44 107.222 1689.26 96.745 1680.39 C 92.7342 1676.99 89.1847 1672.75 86.9469 1667.97 C 84.3861 1662.49 84.2687 1656.21 84.1677 1650.25 C 82.8675 1573.62 84.4074 1496.73 84.3682 1420.08 L 84.5252 937.444 L 84.288 677.397 C 83.9849 625.206 82.047 572.388 83.9595 520.26 C 84.3153 510.564 85.9076 501.788 89.2053 492.653 C 96.1536 473.406 107.789 455.896 124.29 443.582 C 134.86 435.693 147.39 429.745 158.861 423.234 L 219.99 388.431 L 429.795 268.762 L 637.897 147.937 C 665.895 131.288 694.059 114.921 722.386 98.8377 C 737.962 89.855 753.408 79.7214 769.649 72.0212 z" style="stroke-width: 10px; fill: rgba(39, 39, 42, 0.325); stroke: rgba(39, 39, 42, 0.455);"/>
  <path d="M 830.496 193.864 L 831.489 194.105 C 833.104 196.398 832.75 199.866 832.797 202.604 C 834.535 304.825 833.166 407.94 833.168 510.267 L 833.115 645.662 C 833.095 672.036 833.677 698.576 832.581 724.924 C 817.542 734.193 800.567 741.724 788.028 754.444 C 776.915 765.717 772.036 778.341 769.961 793.826 C 767.254 814.022 769.004 835.742 769.029 856.165 L 768.828 967.469 L 768.387 1345.93 C 714.688 1378.82 659.765 1409.94 605.408 1441.74 C 514.783 1495.33 423.874 1548.45 332.685 1601.07 L 217.037 1668.86 C 198.416 1679.71 179.275 1693.28 159.181 1700.98 C 153.43 1700.15 148.718 1698.51 143.548 1695.87 C 142.347 1694.78 141.175 1693.65 140.035 1692.48 C 136.36 1688.68 134.768 1684.92 134.337 1679.69 C 133.263 1666.67 134.067 1653.04 134.107 1639.97 L 134.158 1569.85 L 134.024 1337.85 L 133.978 599.03 C 157.849 584.307 183.007 571.179 207.383 557.268 L 329.343 486.412 L 830.496 193.864 z" style="fill: rgb(24, 24, 27);"/>
  <path d="M 762.281 302.796 C 763.648 302.943 764.679 303.438 765.944 303.95 C 768.576 309.438 766.836 393.628 766.516 405.741 C 753.435 416.748 735.659 424.633 720.844 433.356 L 612.939 496.952 L 362.651 644.804 L 262.411 704.088 C 242.212 715.999 222.468 728.427 201.55 739.063 C 200.201 739.083 199.124 738.824 197.814 738.539 C 195.135 732.834 197.057 645.444 197.203 632.609 C 203.656 627.908 211.221 624.219 218.193 620.277 L 267.071 593.232 C 281.494 585.094 295.433 576.071 309.658 567.59 C 330.27 555.301 351.176 543.49 371.919 531.424 L 762.281 302.796 z" style="fill: rgb(39, 39, 42);"/>
  <path d="M 360.067 576.071 C 362.154 578.587 360.951 606.095 360.904 611.394 C 341.719 623.073 321.777 633.813 302.273 644.968 C 299.596 641.967 301.546 615.859 301.796 610.128 C 320.968 598.462 340.388 586.859 360.067 576.071 z" style="fill: rgb(180, 83, 9);"/>
  <path d="M 279.289 623.771 L 280.307 623.989 C 282.807 630.445 280.981 650.455 280.929 658.336 C 263.332 669.356 244.625 679.206 226.575 689.501 L 226.081 689.521 C 223.565 686.535 224.799 660.541 224.789 655.177 C 243.301 645.829 261.255 634.074 279.289 623.771 z" style="fill: rgb(180, 83, 9);"/>
  <path d="M 405.694 688.751 C 407.024 689.614 408.119 690.702 409.293 691.762 C 411.746 698.988 412.493 939.938 409.569 953.426 C 400.043 963.787 349.556 990.34 334.551 999.09 C 291.979 1023.92 249.973 1049.95 206.486 1073.18 C 205.295 1072.94 204.226 1072.37 203.116 1071.88 C 202.569 1071.12 201.817 1070.47 201.473 1069.6 C 199.607 1064.85 200.935 834.633 201.044 809.915 C 208.289 803.478 217.872 798.657 226.192 793.75 C 244.053 783.214 262.2 773.179 280.101 762.715 C 322.006 738.22 362.94 711.743 405.694 688.751 z" style="fill: rgb(39, 39, 42);"/>
  <path d="M 361.522 773.838 C 363.793 774.434 364.719 775.055 366.385 776.7 C 369.051 788.355 367.179 806.607 367.188 818.982 C 367.325 851.873 367.236 884.764 366.922 917.653 C 351.229 927.712 260.636 981.296 248.045 983.968 C 246.85 983.3 245.941 982.46 244.905 981.573 C 240.926 970.532 243.622 863.874 243.482 843.359 C 260.93 829.684 288.061 816.319 307.736 805.113 C 325.711 794.874 343.21 783.414 361.522 773.838 z" style="fill: rgb(180, 83, 9);"/>
  <path d="M 761.244 479.793 C 762.73 479.892 763.796 480.266 765.198 480.735 C 766.483 482.718 766.629 484.192 766.775 486.497 C 768.014 506.072 766.957 526.3 766.958 545.939 L 766.973 663.311 C 750.471 675.679 730.642 685.644 712.807 696.037 C 676.599 717.193 640.26 738.125 603.794 758.833 L 519.637 807.612 C 506.012 815.481 491.452 825.757 476.788 831.337 C 474.99 830.493 473.824 829.665 472.38 828.304 C 470.775 824.592 470.483 820.648 470.316 816.643 C 468.946 783.798 470.16 750.35 470.049 717.445 C 469.995 701.427 467.949 669.648 470.77 655.074 C 471.332 652.173 472.703 651.059 475.018 649.312 C 483.344 643.029 493.089 638.01 502.097 632.708 L 548.821 605.257 L 698.311 516.961 C 719.203 504.532 741.058 493.331 761.244 479.793 z" style="fill: rgb(39, 39, 42);"/>
  <path d="M 415.809 1231.71 C 417.544 1231.94 418.86 1232.41 420.496 1233 C 423.458 1236.97 422.429 1382.31 421.196 1399.73 C 392.129 1419.35 360.382 1436.15 330.028 1453.75 C 289.559 1477.22 249.448 1501.47 208.504 1524.1 L 205.704 1523.3 C 204.001 1521.32 203.325 1519.68 203.093 1517.11 C 201.529 1499.77 202.897 1481.02 202.936 1463.57 L 203.141 1356.28 C 222.247 1342.38 244.659 1332.03 265.031 1320.02 L 415.809 1231.71 z" style="fill: rgb(39, 39, 42);"/>
  <path d="M 351.751 1360.29 C 363.61 1365.82 392.553 1389.53 404.708 1398.55 C 358.157 1425.29 312.318 1453.3 265.542 1479.66 L 242.696 1493.46 C 252.83 1470.02 265.648 1448.03 277.775 1425.59 C 286.232 1409.94 293.913 1393.83 302.963 1378.51 C 310.757 1383.2 323.855 1395.47 332.028 1396.6 C 334.063 1395.64 334.951 1395.29 336.219 1393.34 C 341.361 1385.39 347.238 1369.61 351.751 1360.29 z" style="fill: rgb(180, 83, 9);"/>
  <path d="M 701.267 1071.76 C 703.28 1071.99 703.725 1072.27 705.37 1073.32 C 707.139 1078.31 705.889 1219.78 705.941 1236.95 C 688.423 1248.48 669.052 1258.27 650.917 1268.89 C 596.467 1300.78 541.047 1331.49 487.439 1364.75 C 484.995 1364.57 485.263 1364.26 483.607 1362.66 C 481.21 1355.03 482.666 1218.38 483.056 1198.78 C 492.646 1191.87 503.782 1186.27 514.02 1180.31 L 572.066 1146.6 C 615.092 1121.75 657.499 1095.24 701.267 1071.76 z" style="fill: rgb(39, 39, 42);"/>
  <path d="M 609.806 1173.67 C 622.221 1180.64 633.442 1190.76 644.512 1199.69 C 659.114 1211.52 673.802 1223.24 688.575 1234.86 L 559.431 1310.35 C 543.854 1319.79 528.132 1328.99 512.27 1337.95 C 521.595 1317.28 531.667 1296.5 542.096 1276.37 C 545.212 1278.42 548.661 1281.48 551.978 1283.04 C 554.338 1284.14 555.937 1283.97 558.338 1283.28 C 567.534 1272.2 573.253 1255.03 579.193 1241.95 L 609.806 1173.67 z" style="fill: rgb(180, 83, 9);"/>
  <path d="M 702.817 857.764 C 705.488 858.396 705.927 858.311 707.691 860.356 L 707.24 863.129 C 704.716 866.721 701.291 869.026 697.625 871.335 C 682.14 881.092 665.558 889.686 649.712 898.919 L 505.28 981.597 L 206.805 1154.23 C 206.095 1154.38 205.351 1154.17 204.626 1154.11 C 203.239 1151.48 202.994 1151 203.148 1148.05 C 204.742 1145.05 206.649 1143.29 209.528 1141.48 C 216.412 1137.13 223.882 1133.47 230.922 1129.34 L 305.093 1086.84 L 450.225 1002.56 C 501.147 972.856 552.253 943.468 603.541 914.4 C 636.352 895.391 668.946 874.768 702.817 857.764 z" style="fill: rgb(39, 39, 42);"/>
  <path d="M 705.251 944.614 L 707.867 946.077 C 709.256 948.461 709.255 948.515 708.858 951.248 C 707.019 954.22 704.611 955.952 701.658 957.787 C 697.398 960.433 692.748 962.432 688.452 965.04 C 654.013 985.771 619.217 1005.91 584.082 1025.44 C 570.198 1033.33 556.728 1041.94 542.959 1050.03 L 469.689 1092.25 L 300.779 1189.86 C 269.861 1207.82 239.377 1226.99 207.879 1243.9 C 206.288 1243.27 205.663 1242.99 204.62 1241.55 C 203.557 1240.08 204.027 1239.65 204.266 1237.97 C 206.263 1234.85 208.855 1232.8 211.964 1230.81 C 227.056 1221.14 243.032 1212.38 258.537 1203.37 L 366.417 1141.29 L 705.251 944.614 z" style="fill: rgb(39, 39, 42);"/>
  <path d="M 706.671 988.851 C 707.129 989.277 707.665 989.632 708.045 990.129 C 709.587 992.148 709.364 993.46 709.028 995.744 C 706.763 998.878 704.077 1000.99 700.838 1003.05 C 682.437 1014.75 662.32 1024.66 643.346 1035.51 L 535.942 1098.04 L 207.374 1288.81 L 205.002 1286.99 C 204.145 1284.82 203.589 1283.78 204.683 1281.45 C 206.432 1277.72 211.895 1274.54 215.35 1272.48 C 254.604 1249.09 294.795 1227.03 334.38 1204.17 L 544.214 1082.29 L 654.44 1017.85 C 671.494 1008.05 688.765 996.846 706.671 988.851 z" style="fill: rgb(39, 39, 42);"/>
  <path d="M 701.726 902.93 C 704.691 903.022 706.056 903.129 708.423 904.922 L 708.557 906.866 C 707.178 909.838 705.121 911.22 702.438 912.943 C 686.06 923.459 668.129 932.44 651.207 942.104 L 548.99 1001 L 209.362 1197.6 C 207.824 1197.75 206.269 1197.13 204.778 1196.75 C 203.936 1195.15 203.666 1195.43 204.061 1193.89 C 205.191 1189.49 212.268 1185.01 215.969 1182.62 C 224.862 1176.87 234.721 1171.94 243.891 1166.57 C 267.679 1152.47 291.632 1138.65 315.748 1125.12 L 436.861 1055.27 C 525.083 1004.6 611.98 950.826 701.726 902.93 z" style="fill: rgb(39, 39, 42);"/>
  <path d="M 760.709 701.782 C 761.544 701.877 762.673 701.96 763.442 702.271 C 765.766 703.212 766.206 703.929 766.905 706.103 C 766.141 708.376 765 709.739 763.099 711.149 C 756.061 716.373 746.801 720.36 739.146 724.939 C 715.165 739.282 691.232 753.379 666.924 767.164 L 575.907 819.89 C 543.692 838.428 511.224 856.506 479.407 875.728 C 476.867 875.271 475.712 874.585 473.694 872.993 C 473.267 871.675 472.751 871.097 473.327 869.713 C 474.465 866.977 477.041 865.129 479.484 863.612 C 502.048 849.601 526.031 837.263 549.11 824.062 L 674.408 751.926 C 691.528 742.28 708.483 732.343 725.265 722.12 C 736.849 715.157 748.382 707.354 760.709 701.782 z" style="fill: rgb(39, 39, 42);"/>
  <path d="M 759.795 746.86 C 761.411 746.933 762.689 747.205 764.253 747.578 C 765.781 749.447 765.836 749.306 765.63 751.695 C 763.544 754.929 761.025 756.722 757.788 758.733 C 739.766 769.933 720.725 779.81 702.253 790.263 L 622.199 836.482 L 529.515 889.822 C 512.216 899.809 495.126 910.531 477.413 919.755 L 475.607 919.603 C 473.057 917.908 472.98 918.13 472.369 915.162 C 473.572 912.047 475.1 910.253 477.806 908.349 C 485.928 902.632 495.989 898.085 504.697 893.118 L 562.672 859.691 C 628.022 821.46 693.733 783.848 759.795 746.86 z" style="fill: rgb(39, 39, 42);"/>
  <path d="M 699.931 1299.74 C 702.047 1300.55 704.093 1301.16 705.662 1302.88 C 706.734 1304.05 706.327 1304.69 706.258 1306.15 C 704.64 1308.49 702.931 1309.74 700.55 1311.28 C 674.16 1328.31 645.846 1342.9 618.817 1358.96 C 575.138 1384.91 531.791 1412.16 487.374 1436.77 C 485.232 1437.05 484.857 1436.89 482.93 1436.14 C 481.262 1433.75 481.334 1433.68 481.545 1430.75 C 482.367 1429.24 483.079 1428.16 484.481 1427.12 C 491.549 1421.86 500.174 1417.75 507.783 1413.29 C 520.634 1405.65 533.443 1397.94 546.213 1390.17 C 583.387 1367.56 620.89 1345.5 658.71 1324 C 672.518 1316.02 685.959 1307.43 699.931 1299.74 z" style="fill: rgb(39, 39, 42);"/>
  <path d="M 701.281 1262.93 L 704.459 1265.14 C 705.101 1266.64 705.903 1267.57 705.501 1269.25 C 704.602 1273 700.801 1275.16 697.791 1277.16 C 677.066 1290.97 654.087 1302.23 632.607 1314.9 C 584.153 1344.03 535.514 1372.85 486.691 1401.36 L 484.025 1399.99 C 482.576 1397.44 482.599 1397.43 483.118 1394.53 C 484.623 1392.49 485.953 1390.88 488.044 1389.41 C 497.589 1382.7 508.172 1376.98 518.17 1370.93 C 540.537 1357.36 563.046 1344.04 585.696 1330.95 C 624.259 1308.46 662.303 1284.64 701.281 1262.93 z" style="fill: rgb(39, 39, 42);"/>
  <path d="M 416.957 1427.75 L 419.393 1428.26 C 421.474 1430.12 421.548 1430.28 422.148 1433.01 C 421.262 1435.78 420.355 1437.43 417.933 1439.05 C 409.794 1444.53 400.686 1449.18 392.187 1454.1 C 373.226 1465.09 354.195 1475.96 335.096 1486.7 C 292.292 1510.94 249.767 1536.02 207.507 1561.21 C 206.054 1560.94 205.34 1560.37 204.12 1559.57 C 203.62 1557.98 203.055 1557.19 203.55 1555.51 C 204.734 1551.47 208.993 1548.79 212.343 1546.55 C 223.346 1539.17 235.638 1533.16 247.105 1526.49 L 299.746 1495.49 C 338.748 1472.98 377.45 1449.29 416.957 1427.75 z" style="fill: rgb(39, 39, 42);"/>
  <path d="M 417.123 1463.63 C 419.406 1464.32 419.548 1464.53 421.058 1466.4 C 421.43 1468.07 421.81 1469.48 421.224 1471.17 C 420.558 1473.08 419.113 1474.76 417.452 1475.88 C 408.605 1481.9 398.616 1486.96 389.343 1492.33 L 334.616 1523.99 L 255.357 1569.65 C 239.752 1578.65 224.299 1588.19 208.321 1596.51 C 207.531 1596.08 206.225 1595.44 205.611 1594.81 C 203.786 1592.93 203.997 1591.68 204.263 1589.37 C 206.328 1586.33 209.86 1584.32 212.95 1582.41 C 232.459 1570.37 252.906 1559.6 272.849 1548.29 C 321.088 1520.93 370.337 1493.42 417.123 1463.63 z" style="fill: rgb(39, 39, 42);"/>
  <path d="M 1377.81 548.071 C 1379.22 550.48 1378.85 553.048 1378.88 555.792 L 1379.13 896.795 L 1379.25 1010.35 C 1379.32 1030.92 1380.3 1051.8 1379.2 1072.34 C 1365.58 1082.09 1349.79 1090.19 1335.37 1098.79 L 1251.05 1149.3 C 1169.89 1198.54 1088.41 1247.25 1006.63 1295.44 C 981.513 1310.51 848.776 1393.78 834.542 1396.48 C 828.19 1397.69 823.407 1395.16 818.262 1391.73 C 814.364 1387.3 810.766 1381.98 810.271 1375.96 C 808.805 1358.12 810.1 1339.24 810.246 1321.32 L 810.778 1221.16 L 810.647 875.112 C 825.334 865.821 840.67 857.648 855.789 849.093 C 886.562 831.824 917.224 814.361 947.775 796.703 C 1090.7 713.104 1234.05 630.225 1377.81 548.071 z" style="fill: rgb(24, 24, 27);"/>
  <path d="M 1020.01 807.628 C 1021.03 808.135 1021.66 808.846 1022.47 809.627 C 1024.96 823.768 1023.02 851.26 1022.99 866.779 L 1022.74 999.461 C 1012.83 1006.8 1000.71 1012.5 989.881 1018.53 C 967.34 1030.86 944.874 1043.33 922.485 1055.94 C 904.116 1066.38 877.678 1085.46 859.742 1092.42 C 859.375 1092.03 858.985 1091.66 858.643 1091.25 C 857.211 1089.53 856.652 1088.21 856.424 1086.04 C 854.139 1064.36 855.912 1038.8 855.906 1016.76 C 855.896 978.682 854.945 940.274 856.361 902.236 C 895.202 880.531 933.558 857.617 972.06 835.28 C 987.107 826.55 1004.4 814.255 1020.01 807.628 z" style="fill: rgb(39, 39, 42);"/>
  <path d="M 1011.46 823.89 L 1012.3 824.527 C 1014.65 833.013 1012.99 866.363 1013 878.226 L 1013.65 993.782 C 965.034 1021.61 915.718 1047.97 867.874 1077.17 L 867.253 1076.92 C 866.898 1076.48 866.439 1076.09 866.187 1075.58 C 865.214 1073.61 866.603 923.442 866.884 907.916 C 883.808 896.932 901.758 887.308 919.244 877.228 L 1011.46 823.89 z" style="fill: none; fill-rule: nonzero; stroke: rgb(39, 39, 42);"/>
  <path d="M 942.418 896.997 C 942.697 896.99 942.976 896.967 943.255 896.974 C 947.517 897.082 951.393 898.147 954.246 901.493 C 962.141 910.751 950.871 921.918 950.332 931.128 C 949.205 950.369 954.695 975.536 950.845 994.191 C 950.237 997.133 948.917 999.149 946.023 1000.41 C 943.542 1001.5 942.539 1000.8 940.372 999.704 C 936.19 993.309 938.216 981.74 938.581 974.25 L 938.834 952.583 C 935.407 954.821 931.866 957.568 928.202 959.352 C 925.754 960.543 923.619 960.742 921.029 959.89 L 920.374 958.118 C 922.895 948.077 931.239 943.845 939.416 938.871 C 936.967 939.235 934.42 939.67 931.94 939.748 C 928.461 939.857 924.722 938.248 922.598 935.465 C 919.896 931.925 920.206 927.167 921.241 923.09 C 924.184 911.499 932.412 902.909 942.418 896.997 z" style="fill: rgb(180, 83, 9);"/>
  <path d="M 1016.74 1032.78 C 1018.54 1032.82 1018.79 1032.94 1020.28 1033.79 C 1024.9 1044.25 1022.07 1196.9 1021.95 1221.23 C 1004.34 1234.5 977.693 1247.81 958.009 1259.08 C 925.766 1277.56 893.945 1296.75 861.616 1315.09 C 860.212 1314.29 858.917 1313.27 857.605 1312.34 C 854.054 1301.56 856.013 1265.57 856.002 1252.93 L 856.278 1125.35 C 874.981 1115.14 893.178 1103.94 911.754 1093.49 C 946.881 1073.72 982.588 1054.19 1016.74 1032.78 z" style="fill: rgb(39, 39, 42);"/>
  <path d="M 1011.74 1048 C 1013.96 1051.18 1012.26 1198.58 1012.15 1215.78 C 963.713 1243.42 916.56 1273.12 867.462 1299.64 C 864.087 1294.54 866.105 1148.43 866.13 1131.27 C 885.906 1118.5 906.817 1107.24 927.304 1095.64 L 1011.74 1048 z" style="fill: none;"/>
  <path d="M 974.009 1103.57 C 975.156 1103.58 975.283 1103.53 976.569 1103.79 C 979.337 1104.35 981.274 1105.52 982.953 1107.78 C 984.087 1113.23 951.937 1166.13 947.083 1175.21 C 957.196 1180.1 972.948 1185.35 980.783 1193.38 C 982.669 1195.32 983.968 1197.68 983.7 1200.47 C 983.326 1204.38 980.509 1206.85 977.791 1209.3 C 970.038 1209.72 947.883 1194.82 939.309 1191.06 L 937.576 1190.31 C 926.556 1210.73 914.928 1230.65 903.021 1250.57 C 902.521 1250.51 902.015 1250.48 901.521 1250.38 C 897.848 1249.66 895.6 1247.62 893.679 1244.49 C 892.813 1238.43 920.835 1192.2 926.344 1184.31 C 918.212 1180.11 894.918 1170.25 890.754 1162.51 C 889.653 1160.46 889.112 1158.43 890.034 1156.18 C 891.017 1153.78 893.201 1151.92 895.531 1150.95 C 901.189 1148.59 928.538 1164.71 935.384 1167.89 C 950.199 1147.84 959.973 1124.16 974.009 1103.57 z" style="fill: rgb(180, 83, 9);"/>
  <path d="M 1333.91 638.859 C 1334.31 638.927 1334.72 638.945 1335.11 639.063 C 1336.6 639.513 1337.88 639.935 1338.64 641.346 C 1339.67 643.254 1339.95 644.996 1340.09 647.127 C 1340.61 655.388 1340.26 720.036 1339.09 724.518 C 1338.24 727.808 1336.24 728.954 1333.49 730.727 C 1315.15 742.553 1294.84 752.708 1275.87 763.596 L 1148.25 836.426 C 1124.28 850.14 1099.95 863.439 1076.58 878.162 C 1074.93 878.163 1073.72 877.864 1072.12 877.466 C 1070.79 876.027 1070.39 874.934 1070.17 873.038 C 1069.14 864 1069.93 854.181 1069.98 845.067 L 1070.33 789.748 C 1114.17 763.678 1158.58 738.636 1202.66 712.979 C 1231.17 696.152 1259.94 679.773 1288.96 663.846 C 1303.93 655.494 1318.64 646.663 1333.91 638.859 z" fill="rgb(10,13,40)"/>
  <path d="M 1328.65 651.866 C 1331.49 655.531 1329.95 712.018 1329.91 721.407 C 1248.11 770.611 1163.58 815.514 1081.39 864.122 C 1080.94 863.59 1080.31 863.169 1080.04 862.525 C 1078.09 857.791 1079.92 803.659 1080 795.577 C 1101.73 780.692 1125.6 768.014 1148.39 754.748 C 1208.16 719.959 1269.28 687.315 1328.65 651.866 z" style="fill: rgb(180, 83, 9);"/>
  <path d="M 1337.49 888.919 C 1339.81 889.337 1339.81 889.605 1341.51 891.035 C 1343.46 901.132 1341.72 913.423 1341.59 923.871 C 1341.47 941.235 1341.47 958.599 1341.59 975.963 C 1323.75 988.852 1302.63 999.293 1283.45 1010.17 L 1185.41 1065.95 C 1162.31 1079.09 1139.54 1092.87 1116.57 1106.26 C 1103.41 1113.94 1090.19 1122.32 1076.25 1128.49 C 1074.52 1128.59 1073.58 1128.47 1071.92 1128.1 C 1070.63 1125.43 1071.99 1052.46 1071.41 1041.39 C 1130.53 1006.36 1190.14 972.173 1250.22 938.83 C 1279.43 922.38 1308.12 905.127 1337.49 888.919 z" fill="rgb(10,13,40)"/>
  <path d="M 1330.93 904.096 C 1333.52 908.875 1332.1 960.597 1332.11 970.546 C 1249.57 1019.9 1165.01 1065.95 1082.3 1115.04 C 1079.19 1110.55 1081.2 1056.41 1081.25 1047.17 C 1107.35 1032.79 1132.55 1016.5 1158.39 1001.61 L 1330.93 904.096 z" style="fill: rgb(180, 83, 9);"/>
  <path d="M 1337.57 1045.87 C 1340.27 1046.46 1340.87 1046.63 1342.93 1048.43 L 1342.86 1050.95 C 1340.92 1053.98 1338.22 1055.77 1335.2 1057.66 C 1309.85 1073.61 1282.87 1087.81 1256.97 1102.94 L 1076.42 1208.39 C 1073.96 1208.96 1074.56 1208.84 1072.65 1207.66 C 1071.64 1205.05 1071.38 1203.5 1072.44 1200.81 C 1073.1 1199.11 1074.12 1198.24 1075.61 1197.29 C 1113.35 1173.32 1153.28 1152.53 1191.73 1129.69 C 1221.56 1111.99 1251.51 1094.48 1281.57 1077.15 C 1299.94 1066.52 1318.38 1054.91 1337.57 1045.87 z" style="fill: rgb(39, 39, 42);"/>
  <path d="M 1337.18 1006.6 L 1339.35 1007.44 C 1341.18 1009.71 1341.33 1009.85 1341.48 1012.75 C 1340.1 1015.83 1338.4 1017.44 1335.56 1019.18 C 1329.82 1022.69 1323.56 1025.48 1317.73 1028.91 L 1213.53 1089.12 C 1169.31 1115 1122 1145.22 1076.36 1167.83 C 1075.65 1167.65 1074.58 1167.42 1073.97 1167.03 C 1071.89 1165.7 1071.95 1164.55 1071.71 1162.35 C 1073.19 1159.28 1075.06 1157.64 1077.89 1155.83 C 1099.3 1142.15 1122.87 1130.72 1144.88 1117.87 L 1337.18 1006.6 z" style="fill: rgb(39, 39, 42);"/>
  <path d="M 1335.76 833.748 C 1336.64 834.035 1338.27 834.52 1339.03 834.999 C 1341.07 836.302 1341.08 837.331 1341.18 839.467 C 1339.73 842.294 1337.66 843.914 1334.99 845.544 C 1312.79 859.093 1289.28 870.851 1266.81 884.074 C 1221.57 910.702 1176.09 936.633 1130.42 962.515 C 1112.58 972.626 1095.16 983.462 1077.1 993.175 L 1074 992.015 C 1072.31 990.007 1072.31 990.067 1072.37 987.443 C 1073.75 985.098 1075.13 983.59 1077.38 982.039 C 1087.82 974.851 1099.83 968.831 1110.83 962.463 C 1134.22 948.873 1157.73 935.484 1181.35 922.297 L 1335.76 833.748 z" style="fill: rgb(39, 39, 42);"/>
  <path d="M 1336.68 756.868 C 1337.37 757.145 1338.42 757.515 1339 757.96 C 1340.92 759.427 1340.85 760.306 1340.91 762.491 C 1339.4 765.338 1337.37 766.928 1334.68 768.608 C 1319.68 777.971 1303.66 786.095 1288.35 794.982 L 1157.43 869.842 C 1140.42 879.495 1123.47 889.252 1106.58 899.112 C 1096.38 905.064 1086.19 911.973 1075.26 916.47 C 1074.78 916.293 1074.25 916.218 1073.83 915.937 C 1071.6 914.455 1071.28 913.268 1071 910.864 C 1072.46 907.885 1074.76 905.972 1077.53 904.241 C 1101.79 889.052 1127.72 875.791 1152.66 861.689 L 1252.02 804.472 C 1268.91 794.926 1285.73 785.256 1302.47 775.462 C 1313.58 769.023 1324.81 761.781 1336.68 756.868 z" style="fill: rgb(39, 39, 42);"/>
  <path d="M 1337.09 794.688 C 1337.55 794.763 1338.03 794.75 1338.46 794.912 C 1340.76 795.766 1341.07 796.599 1341.73 798.706 C 1340.27 803.317 1336.63 805.595 1332.77 808.101 C 1321.91 815.152 1310.03 821.14 1298.73 827.505 L 1232.83 864.882 C 1180.54 894.963 1128.89 926.661 1075.79 955.288 C 1075.28 955.166 1074.73 955.13 1074.25 954.92 C 1071.92 953.914 1071.36 953.15 1070.69 950.922 C 1071.79 947.857 1073.5 946.43 1076.08 944.594 C 1100.38 927.341 1132.72 911.805 1158.97 896.777 L 1337.09 794.688 z" style="fill: rgb(39, 39, 42);"/>
  <path d="M 809.082 104.374 C 810.653 104.214 812.226 104.09 813.802 104.001 C 818.802 103.747 823.03 104.66 826.726 108.227 C 829.693 111.091 831.47 114.717 832.367 118.713 C 835.387 132.167 832.913 166.088 832.708 181.518 C 820.271 187.709 808.176 195.418 796.13 202.403 L 718.57 248.111 L 530.529 358.102 L 208.235 545.935 C 188.577 557.505 168.527 568.345 148.99 580.133 C 144.049 583.25 138.905 586.049 133.821 588.926 C 133.1 579.53 133.33 569.958 133.265 560.527 C 133.07 532.309 135.531 512.342 151.238 488.244 C 156.78 479.74 165.835 473.939 174.328 468.651 C 212.107 445.129 251.93 424.486 290.393 402.065 L 629.926 206.742 L 754.926 133.51 C 769.272 125.21 793.482 107.78 809.082 104.374 z" style="fill: rgb(24, 24, 27);"/>
  <path d="M 790.149 137.922 C 791.841 137.969 793.558 137.972 795.226 138.303 C 798.483 138.948 801.591 141.378 803.364 144.14 C 806.861 149.588 805.996 157.468 804.521 163.427 C 801.679 174.905 794.699 183.15 784.634 188.95 C 782.942 189.031 781.177 189.011 779.512 188.673 C 776.213 188.002 773.418 185.623 771.818 182.721 C 768.145 176.06 769.888 165.955 772.237 159.133 C 775.596 149.373 781.022 142.622 790.149 137.922 z" style="fill: rgb(39, 39, 42);"/>
  <path d="M 672.914 206.999 C 674.853 206.756 676.804 206.723 678.737 207.049 C 681.982 207.597 685.34 209.638 687.25 212.33 C 690.665 217.145 690.076 224.344 688.877 229.796 C 686.35 241.287 679.725 249.951 669.878 256.083 C 667.893 256.648 665.692 256.897 663.646 256.492 C 660.229 255.817 657.166 254.08 655.374 251.03 C 652.21 245.647 653.086 237.201 654.511 231.428 C 657.271 220.246 663.438 212.982 672.914 206.999 z" style="fill: rgb(39, 39, 42);"/>
  <path d="M 729.142 173.105 C 731.636 172.814 734.538 172.545 737.029 172.995 C 740.19 173.565 743.163 176.082 744.764 178.79 C 747.9 184.095 747.008 191.501 745.558 197.173 C 742.835 207.815 737.67 215.439 728.168 220.861 C 725.635 221.454 723.088 221.73 720.507 221.246 C 717.345 220.652 714.438 218.746 712.764 215.986 C 709.631 210.821 710.502 203.027 711.875 197.469 C 714.421 187.162 719.969 178.509 729.142 173.105 z" style="fill: rgb(39, 39, 42);"/>
  <path d="M 1361.2 466.202 C 1365.74 466.615 1369.2 466.919 1372.68 470.188 C 1382.8 479.703 1378.88 521.658 1378.9 535.846 L 823.521 855.921 L 810.976 863.358 C 811.234 838.243 805.005 802.826 820.494 781.948 C 824.959 775.929 833.549 771.015 839.906 767.156 C 857.725 756.34 876.177 746.424 894.174 735.886 L 1107.9 611.704 L 1256.8 524.276 C 1286.02 506.887 1314.94 487.85 1344.87 471.796 C 1350.28 468.894 1355.1 467.21 1361.2 466.202 z" style="fill: rgb(24, 24, 27);"/>
  <path d="M 1301.74 521.027 C 1303.42 521.238 1304.92 521.464 1306.5 522.104 C 1309.16 523.188 1311.36 525.563 1312.44 528.212 C 1314.74 533.867 1312.98 540.669 1310.61 546 C 1306.89 554.362 1301.44 559.867 1292.95 563.176 C 1290.69 563.181 1288.23 563.287 1286.11 562.363 C 1283.19 561.089 1281.31 558.293 1280.46 555.326 C 1278.6 548.868 1280.97 540.773 1284.13 535.086 C 1288.32 527.537 1293.55 523.481 1301.74 521.027 z" style="fill: rgb(39, 39, 42);"/>
  <path d="M 1345.5 495.033 C 1347.52 494.917 1349.58 494.882 1351.57 495.304 C 1354.75 495.975 1357.47 498.126 1359.14 500.856 C 1361.26 504.319 1360.85 509.215 1360.01 512.985 C 1357.72 523.358 1351.78 531.453 1342.88 537.034 C 1341.28 537.118 1339.67 537.198 1338.07 537.152 C 1334.65 537.055 1331.33 535.657 1329.26 532.815 C 1326.89 529.545 1327 525.39 1327.67 521.606 C 1329.71 510.198 1336.18 501.47 1345.5 495.033 z" style="fill: rgb(39, 39, 42);"/>
  <path d="M 1256.45 548.876 C 1257.6 549.219 1258.74 549.568 1259.85 550.011 C 1263.1 551.31 1265.46 554.048 1266.72 557.281 C 1268.75 562.458 1267.53 568.341 1265.43 573.288 C 1261.72 581.986 1256.19 587.263 1247.58 590.853 C 1246.05 590.625 1244.58 590.36 1243.12 589.817 C 1240.53 588.851 1238.37 586.639 1237.29 584.113 C 1234.91 578.524 1236.6 571.716 1238.95 566.411 C 1242.64 558.085 1247.98 552.237 1256.45 548.876 z" style="fill: rgb(39, 39, 42);"/>
  <path d="M 1820.41 802.784 C 1828.62 802.754 1842.62 812.754 1849.4 817.161 C 1851.76 854.862 1845.85 902.102 1836.48 938.744 C 1827.18 976.433 1813.96 1013.05 1797.05 1047.99 C 1790.94 1060.78 1782.62 1072.7 1777.03 1085.64 C 1770.86 1099.93 1768.68 1116.43 1763.49 1131.21 C 1744.7 1184.66 1710.57 1235.36 1661.36 1264.51 C 1693.42 1285.07 1726.12 1304.17 1758.86 1323.59 C 1792.29 1343.43 1825.5 1363.51 1859.18 1382.95 L 1922.22 1419.6 C 1934.82 1426.95 1950.41 1434.06 1961 1443.99 L 1961.14 1513.31 C 1949.2 1522.55 1934.53 1529.48 1921.45 1537.04 C 1901.38 1548.63 1881.46 1560.62 1861.56 1572.49 L 1726.63 1651.2 C 1693.27 1670.84 1660.16 1691.9 1626.08 1710.2 C 1583.95 1687.31 1543.09 1660.99 1502.07 1636.13 C 1455.81 1608.83 1410.25 1580.33 1364.21 1552.66 C 1347.15 1542.4 1305.61 1520.82 1293.13 1508.41 L 1293.74 1443.01 C 1303.13 1435.57 1314.96 1429.9 1325.28 1423.83 L 1392.64 1384.39 L 1594.11 1266.79 C 1580.76 1256.06 1569.88 1245 1558.66 1232.12 C 1529.2 1223.65 1497.74 1207.87 1473.23 1189.36 C 1432.13 1158.3 1417.13 1113.15 1413.96 1062.97 C 1413.04 1048.27 1414.36 1032.98 1412.17 1018.44 C 1412.1 1018 1412.03 1017.56 1411.95 1017.12 C 1424.26 1005.61 1472.42 982.58 1490.5 972.352 C 1492.76 962.518 1494.4 952.219 1495.71 942.217 C 1497.14 931.388 1497.02 920.155 1501.35 909.936 C 1510.58 888.095 1533.65 875.67 1554.37 866.979 C 1603.43 846.411 1668.67 844.233 1718.15 864.654 C 1731.36 852.266 1751.32 843.405 1767.08 834.412 C 1785.03 824.167 1802.81 813.623 1820.41 802.784 z" style="fill: none;"/>
  <path d="M 1604.91 1271.11 C 1606.78 1274.2 1604.77 1284.06 1604.06 1287.91 C 1602.82 1294.71 1600.83 1303.05 1596.58 1308.57 C 1591.53 1315.14 1484.35 1370.22 1465.87 1383.17 L 1464.7 1384 C 1464.58 1415.87 1463.44 1448.22 1464.89 1480.04 C 1479.8 1491.69 1497.85 1501.07 1514.1 1510.86 L 1624.35 1576.01 C 1624.5 1575.94 1624.66 1575.87 1624.81 1575.8 C 1639.25 1569.62 1652.75 1559.68 1666.36 1551.76 L 1747.09 1503.97 C 1760.62 1495.9 1776.97 1488.16 1788.73 1477.82 C 1786.41 1446.95 1788.34 1414.7 1788.9 1383.7 C 1760.66 1366.16 1731.17 1349.87 1702.41 1333.14 C 1689.47 1325.61 1675.85 1318.7 1663.59 1310.11 C 1658.74 1297.89 1657.05 1285.12 1655.18 1272.2 C 1684.13 1292.93 1716.33 1310.79 1747.11 1328.77 C 1793.86 1355.89 1840.46 1383.26 1886.92 1410.88 C 1906.37 1423.52 1927.3 1433.68 1946.42 1446.91 C 1929 1458.17 1910.36 1468.18 1892.47 1478.7 C 1854.14 1501.49 1815.54 1523.83 1776.68 1545.72 C 1725.94 1574.62 1675.97 1605.14 1625.75 1634.97 L 1412.91 1507.77 L 1345.79 1467.62 C 1333.32 1460.19 1320.54 1453.19 1308.39 1445.23 C 1329.78 1433.16 1350.69 1420.18 1371.88 1407.77 L 1492.91 1337.29 C 1530.1 1315.48 1569.21 1295.23 1604.91 1271.11 z" style="fill: rgb(24, 24, 27);"/>
  <path d="M 1775.81 952.87 C 1782.97 964.434 1769.18 1069.75 1764.56 1089.96 C 1751.49 1147.1 1718.29 1217.04 1667.09 1248.82 C 1656.35 1255.49 1636.24 1264.08 1623.63 1260.65 C 1606.19 1255.91 1585.81 1222.45 1577.55 1207.5 C 1542.63 1143.39 1539.15 1070.51 1542.19 999.313 C 1586.27 1018.19 1630.05 1023.47 1677.2 1013.35 C 1718.22 1004.54 1752.48 988.783 1775.81 952.87 z" style="fill: rgb(24, 24, 27);"/>
  <path d="M 1690.11 1036.39 C 1699.55 1041.77 1703.75 1054.16 1708.91 1063.32 C 1720.25 1058.9 1732.74 1050.04 1744.5 1047.83 C 1746.61 1047.44 1746.53 1047.5 1748.25 1048.73 C 1749.99 1058.64 1727.21 1094.53 1722.13 1105.62 C 1723.87 1116.15 1729.36 1128.79 1729.05 1139.23 C 1728.96 1141.94 1728.23 1142.69 1726.32 1144.5 C 1716.73 1146.99 1703.18 1141.75 1693.37 1140.15 L 1683.04 1150.65 C 1676.5 1157.86 1664.98 1172.54 1656.67 1176.77 C 1654.7 1177.78 1654.65 1177.84 1652.5 1177.05 C 1649.86 1171.26 1656.99 1138.42 1658.11 1129.65 C 1650.52 1125.5 1638.3 1121.36 1632.51 1115.15 C 1630.98 1113.51 1631.12 1113.11 1631.26 1111.01 C 1637.48 1104.47 1659.74 1094.22 1669.09 1087.5 C 1676.44 1071.1 1679.77 1051.2 1690.11 1036.39 z" style="fill: rgb(180, 83, 9);"/>
  <path d="M 1634.59 875.434 C 1664.78 873.737 1713.76 884.005 1737.23 903.935 C 1745.16 910.667 1751.83 920.051 1752.39 930.748 C 1752.83 938.983 1749.41 946.35 1744.03 952.422 C 1720.35 979.155 1674.64 987.626 1640.87 989.572 C 1609.31 991.671 1565.49 985.444 1540.36 964.532 C 1532.25 957.778 1524.92 948.37 1524.11 937.465 C 1523.37 927.605 1528.46 918.618 1534.78 911.45 C 1557.95 885.171 1601.43 877.444 1634.59 875.434 z" style="fill: none;"/>
  <path d="M 1949.38 1456.9 L 1949.97 1457 C 1952.86 1461.29 1951.58 1500.59 1951.1 1508.24 C 1932.05 1518.41 1913.69 1530.04 1895.17 1541.15 L 1826.54 1581.57 C 1762.17 1619.2 1697.07 1655.58 1633.42 1694.42 L 1631.86 1694.75 C 1629.2 1688.97 1630.8 1652.21 1630.81 1643.19 C 1643.55 1637.17 1655.83 1629 1668.03 1621.9 L 1756.82 1569.12 C 1820.8 1531.41 1886.14 1495.89 1949.38 1456.9 z" style="fill: rgb(24, 24, 27);"/>
  <path d="M 1303.47 1453.9 C 1333.65 1470.09 1362.62 1489.82 1392 1507.45 L 1572.49 1615.26 C 1588.41 1624.66 1603.96 1634.68 1619.97 1643.92 L 1620.02 1694.09 C 1551.16 1655.6 1483.81 1613.96 1416.5 1572.82 C 1378.8 1549.78 1339.73 1528.17 1303.27 1503.23 C 1303.19 1486.82 1302.74 1470.3 1303.47 1453.9 z" style="fill: rgb(24, 24, 27);"/>
  <path d="M 1585.9 1326.91 L 1586.62 1327.55 C 1584.41 1340.14 1556.52 1352.15 1553.24 1374.23 C 1551.76 1384.21 1554.11 1393.29 1560.42 1401.2 C 1572.38 1416.22 1596.66 1423.3 1615.06 1425.12 C 1640.97 1427.68 1671.13 1421.49 1691.4 1404.28 C 1698.43 1398.3 1702.86 1390.9 1703.3 1381.57 C 1704.34 1359.3 1685.16 1342.83 1671.25 1328.02 C 1705.71 1345.54 1738.53 1366.91 1772.44 1385.56 C 1765.93 1389.88 1759.13 1393.82 1752.46 1397.9 C 1710.78 1424.08 1667.95 1448.61 1625.49 1473.51 C 1597.84 1456.66 1569.13 1441.65 1541.15 1425.36 C 1520.33 1413.24 1500.08 1399.95 1479.7 1387.09 C 1493.19 1379.85 1506.26 1371.7 1519.57 1364.12 L 1585.9 1326.91 z" style="fill: rgb(24, 24, 27);"/>
  <path d="M 1776.35 1395.84 L 1778.06 1396.53 C 1779.41 1404.53 1778.24 1414.16 1778.18 1422.33 L 1778.19 1473.23 C 1730.61 1503.37 1681.11 1530.83 1633.02 1560.18 L 1631.76 1559.93 C 1629.67 1556.35 1630.99 1492 1631 1482.17 C 1650.16 1471.75 1668.84 1459.93 1687.62 1448.81 C 1717.36 1431.43 1746.94 1413.77 1776.35 1395.84 z" style="fill: rgb(24, 24, 27);"/>
  <path d="M 1474.96 1397.38 C 1492.21 1406.52 1508.56 1417.89 1525.41 1427.8 C 1557.03 1446.4 1589.16 1464.21 1620.95 1482.53 L 1620.66 1561.67 C 1610.2 1557.8 1594.44 1546.38 1584.18 1540.36 C 1547.49 1518.84 1509.18 1498.13 1474.61 1473.33 C 1474.3 1448.04 1474.84 1422.67 1474.96 1397.38 z" style="fill: rgb(24, 24, 27);"/>
  <path d="M 1643.61 1269.26 C 1644.98 1269.28 1644.21 1269.08 1645.64 1270.51 C 1646.79 1285.98 1648.23 1300.46 1653.8 1315.09 C 1656.24 1321.52 1659.35 1327.68 1663.08 1333.47 C 1668.7 1342.02 1680.61 1352.17 1679.71 1363.07 C 1679.28 1368.34 1676.05 1372.61 1672.09 1375.88 C 1657.03 1388.3 1634.6 1390.77 1615.89 1389.05 C 1605.77 1388.64 1592.28 1384.49 1584.9 1377.52 C 1578.93 1371.87 1577.55 1364.75 1580.34 1357.11 C 1582.51 1351.16 1588.46 1346.28 1592.12 1341.14 C 1606.48 1320.91 1616.77 1296.03 1615.58 1270.83 C 1625.42 1271.74 1633.94 1271.29 1643.61 1269.26 z" style="fill: rgb(24, 24, 27);"/>
  <path d="M 1531.26 982.915 L 1532.27 983.453 C 1533.88 987.781 1533.27 993.402 1533.28 998.002 C 1510.36 1011.92 1480.78 1025.3 1459.9 1040.64 C 1458.82 1065.03 1463.18 1091.44 1471.07 1114.51 C 1483.11 1149.68 1503.7 1172.79 1536.83 1188.92 C 1543.33 1199.24 1549.37 1209.84 1554.94 1220.69 L 1540.06 1215.01 C 1520.96 1207.46 1501.94 1195.86 1487.15 1181.54 C 1448.42 1144.02 1439.87 1083.67 1439.15 1032.37 C 1451.65 1024.85 1465 1018.57 1477.86 1011.68 C 1495.69 1002.14 1513.27 992.141 1531.26 982.915 z" style="fill: rgb(24, 24, 27);"/>
  <path d="M 1836.38 831.865 L 1837.37 832.035 C 1837.82 832.754 1838.04 832.981 1838.23 833.926 C 1839.72 841.089 1838.11 852.658 1837.82 860.275 C 1835.19 929.526 1811.12 995.756 1781.3 1057.55 C 1783.62 1043.84 1783.77 1029.85 1786.03 1016.15 C 1788.06 1003.85 1792.47 992.032 1796.41 980.247 C 1800.73 965.982 1823.78 882.758 1819.92 874.825 C 1818.4 871.697 1815.63 869.188 1812.25 868.297 C 1802.82 865.819 1773.31 884.993 1763.75 890.136 L 1752.19 880.053 C 1778.46 861.813 1808.34 847.295 1836.38 831.865 z" style="fill: rgb(24, 24, 27);"/>
  <path d="M 1502.31 1026.87 L 1503.12 1027.02 C 1503.36 1027.45 1505.29 1081.94 1506.03 1088.7 C 1509.24 1118.29 1516.84 1145.32 1527.68 1172.97 C 1520.72 1168.34 1514.56 1163.06 1508.54 1157.28 C 1479.55 1128.04 1470.97 1085.77 1468.91 1045.83 C 1479.22 1038.73 1491.36 1033.04 1502.31 1026.87 z" style="fill: none;"/>
  <path d="M 1529.22 1011.84 L 1530.68 1012.19 C 1531.36 1022.67 1530.52 1033.57 1530.57 1044.1 C 1530.93 1120.91 1547.79 1203.97 1604.32 1259.9 C 1600.23 1257.73 1596.48 1255.16 1592.65 1252.56 C 1588.58 1249.35 1584.48 1246.16 1580.88 1242.41 C 1568.32 1229.38 1558.7 1213.3 1550.31 1197.37 C 1519.6 1139.04 1513.35 1085.27 1514.31 1020.72 L 1529.22 1011.84 z" style="fill: none;"/>
  <path d="M 1608.87 863.386 C 1651.63 856.047 1708.5 863.606 1744.65 888.881 C 1757.13 897.605 1767.69 909.585 1770.46 925.035 C 1772.77 937.919 1767.07 947.777 1759.79 957.825 C 1737.89 988.012 1695.87 1000.31 1660.72 1005.59 C 1629.25 1010.31 1597.67 1008.2 1567.41 998.289 C 1560.23 995.936 1552.12 993.278 1545.86 988.938 C 1544.08 987.705 1542.72 986.385 1542.34 984.212 C 1543.6 982.494 1543.24 982.368 1545.48 981.847 C 1561.03 987.494 1576.74 993.463 1593.04 996.593 C 1633.92 1004.45 1682.95 999.152 1720.67 981.464 C 1737.29 973.676 1754.14 962.455 1760.6 944.426 C 1764.32 934.05 1763.79 923.576 1758.71 913.754 C 1747.39 891.875 1719.48 880.041 1697.17 873.43 C 1670.78 865.609 1644.75 864.318 1617.43 866.127 C 1614.67 865.778 1611.87 865.651 1609.12 865.151 C 1607.92 864.933 1608.47 864.783 1607.66 865.199 L 1607.99 865.11 L 1608.87 863.386 z" style="fill: rgb(24, 24, 27);"/>
  <path d="M 1568.54 1362.69 C 1569.63 1367.55 1569.41 1372.39 1571.82 1376.9 C 1577.62 1387.76 1589.85 1393.87 1601.26 1397.11 C 1624.32 1403.65 1651.15 1400.74 1672.02 1388.79 C 1682.52 1382.78 1686.34 1378.09 1689.43 1366.65 L 1690.57 1366.27 C 1693.7 1370.2 1693.29 1379.14 1693.09 1383.91 C 1690.26 1391.54 1685.81 1396.45 1679.09 1401.01 C 1658.49 1415.01 1629.35 1418.33 1605.37 1413.29 C 1588.77 1409.81 1572.6 1402.41 1563.11 1387.85 C 1562.45 1377.85 1563.36 1371.37 1568.54 1362.69 z" style="fill: rgb(24, 24, 27);"/>
  <path d="M 1522.97 966.777 C 1524.01 966.698 1524.94 966.736 1525.89 967.268 C 1527.96 968.42 1530.79 970.973 1531.46 973.201 C 1514.16 978.041 1498.12 988.941 1482.29 997.356 C 1464.37 1006.89 1446.17 1015.69 1428.79 1026.2 C 1428.56 1071.5 1434.03 1121.37 1458.89 1160.45 L 1459.89 1162.51 C 1458.72 1162.06 1457.99 1161.57 1457.1 1160.67 C 1426.27 1129.77 1423.43 1062.4 1424.09 1020.81 C 1456.89 1002.51 1489.85 984.494 1522.97 966.777 z" style="fill: rgb(24, 24, 27);"/>
  <path d="M 1821.04 814.767 C 1826.31 814.298 1830.53 817.802 1834.71 820.531 C 1805.42 839.957 1770.96 852.333 1743.26 874.115 L 1742.18 874.676 C 1737.74 873.5 1733.73 870.651 1729.8 868.331 C 1756.35 849.632 1792.32 831.262 1821.04 814.767 z" style="fill: rgb(24, 24, 27);"/>
  <path d="M 1808.19 878.982 L 1808.88 879.693 C 1811.81 890.125 1792.05 958.543 1787.69 972.284 C 1782.21 943.904 1790.77 913.326 1795.44 885.324 C 1799.56 883.027 1803.96 881.076 1808.19 878.982 z" style="fill: none;"/>
  <path d="M 1520.39 963.329 C 1513.43 954.992 1508.29 945.457 1507.39 934.455 C 1506.39 922.216 1511.81 910.768 1519.66 901.685 C 1539.25 878.999 1579.88 865.638 1608.87 863.386 L 1607.99 865.11 L 1607.66 865.199 C 1608.47 864.783 1607.92 864.933 1609.12 865.151 C 1611.87 865.651 1614.67 865.778 1617.43 866.127 C 1607.71 867.386 1598.1 869.006 1588.61 871.488 C 1563.36 878.086 1531.78 891.476 1518.44 915.544 C 1507.41 935.435 1514.85 943.666 1520.06 962.132 L 1520.39 963.329 z" style="fill: rgb(24, 24, 27);"/>
  <path d="M 1782.76 890.868 C 1782.85 891.192 1782.97 891.51 1783.03 891.842 C 1784.01 897.27 1781.81 908.915 1779.11 913.628 L 1777.92 913.367 L 1775.89 908.885 C 1774.38 905.24 1771.97 901.839 1769.9 898.481 C 1774.05 895.733 1778.45 893.347 1782.76 890.868 z" style="fill: none;"/>
  <path d="M 1683.99 203.595 C 1684.28 203.604 1684.57 203.578 1684.85 203.622 C 1687.84 204.079 1688.48 204.287 1690.47 206.407 C 1691.65 215.834 1682.08 259.106 1679.73 271.218 C 1689.82 275.135 1701.27 278.642 1710.5 284.256 C 1713.87 286.307 1715.59 287.933 1716.59 291.778 C 1715.95 293.914 1715.18 295.21 1713.42 296.632 C 1707.29 301.589 1698.73 305.187 1691.77 308.98 C 1683.27 313.696 1674.87 318.583 1666.57 323.635 C 1658.49 344.704 1654.91 373.032 1646.04 392.351 C 1644.55 395.604 1643.47 396.793 1640.13 398.028 C 1632.28 394.057 1625.79 354.661 1617.99 349.24 L 1615.76 349.685 C 1600.43 355.031 1574.83 369.39 1562.09 371.965 L 1561.06 370.673 C 1561.13 370.227 1561.16 369.775 1561.26 369.334 C 1562.25 364.738 1566.17 363.007 1569.84 360.699 C 1578.74 339.949 1595.21 323.136 1605.37 303.026 C 1604.63 294.631 1595.66 255.176 1596.78 251.468 C 1597.22 250.035 1597.98 248.939 1599.32 248.301 C 1607.51 244.408 1632.14 255.456 1641.2 258.514 C 1652.91 239.643 1669.67 220.736 1683.99 203.595 z" style="fill: rgb(180, 83, 9);"/>
  <path d="M 1465.88 424.805 C 1467.7 424.731 1468.05 424.965 1469.62 425.765 L 1469.76 427.545 C 1466.5 433.445 1459.46 436.897 1453.72 440.023 C 1451.63 439.157 1451.52 439.022 1450.27 437.304 C 1451.97 431.495 1460.87 427.777 1465.88 424.805 z" fill="rgb(10,13,40)"/>
  <path d="M 664.575 1563.56 C 669.528 1563.55 675.938 1565.96 679.962 1568.87 C 683.345 1571.32 683.797 1572.95 684.546 1576.83 C 678.715 1576.27 671.369 1573.76 666.998 1569.74 C 664.684 1567.61 664.679 1566.64 664.575 1563.56 z" fill="rgb(10,13,40)"/>
  <path d="M 1540.34 379.65 C 1542.31 380.578 1542.51 380.788 1543.69 382.624 C 1541.53 388.294 1532.71 391.642 1527.58 394.448 C 1526.7 394.506 1525.23 393.858 1524.37 393.595 L 1524.28 391.69 C 1526.61 386.113 1535.24 382.387 1540.34 379.65 z" fill="rgb(10,13,40)"/>
  <path d="M 990.04 1746.8 C 995.856 1748.52 1004.24 1752.65 1007.45 1757.9 C 1008.4 1759.44 1007.57 1761.34 1007.26 1763.05 C 1002.47 1760.63 992.661 1756.97 989.918 1752.42 C 988.554 1750.15 989.325 1749.15 990.04 1746.8 z" fill="rgb(10,13,40)"/>
  <path d="M 1428.14 447.717 L 1430.91 448.618 L 1431.7 450.572 C 1429.45 455.975 1420.41 459.464 1415.44 462.076 C 1414.14 461.972 1413.37 461.342 1412.27 460.702 L 1412.1 459.188 C 1414.39 453.613 1423.01 450.343 1428.14 447.717 z" fill="rgb(10,13,40)"/>
  <path d="M 1640.8 660.283 C 1643.44 661.343 1644.15 661.479 1645.4 664.242 C 1647.59 669.119 1645.45 678.349 1643.74 683.107 L 1640.69 682.454 C 1639.92 681.466 1639.81 681.443 1639.29 680.074 C 1637.43 675.137 1638.67 665.046 1640.8 660.283 z" fill="rgb(1,1,4)"/>
  <path d="M 1641.01 707.392 C 1643.24 708.686 1644.05 708.965 1645.03 711.511 C 1647.04 716.713 1645.64 725.931 1643.65 731.01 C 1643.34 730.947 1643 730.936 1642.7 730.819 C 1640.98 730.145 1640.26 729.253 1639.55 727.583 C 1637.19 722.044 1638.67 712.739 1641.01 707.392 z" fill="rgb(1,1,4)"/>
  <path d="M 769.856 1622.59 C 774.635 1623.31 780.885 1625.39 784.593 1628.57 C 787.437 1631 787.771 1632.71 787.949 1636.36 C 782.785 1636.44 777.21 1633.69 773.333 1630.37 C 770.384 1627.84 770.068 1626.43 769.856 1622.59 z" fill="rgb(10,13,40)"/>
  <path d="M 915.272 1705.71 C 920.829 1706.02 926.15 1708.06 930.491 1711.54 C 933.313 1713.78 934.045 1715.3 934.454 1718.83 C 929.13 1718.64 921.756 1715.73 917.742 1712.2 C 915.24 1710 915.351 1708.96 915.272 1705.71 z" fill="rgb(10,13,40)"/>
  <path d="M 1265.31 1873.76 C 1267.52 1874.38 1267.37 1873.92 1268.7 1876.05 C 1266.96 1881.21 1256.73 1885.48 1252.13 1888.07 C 1250.49 1887.16 1249.78 1886.63 1248.83 1885 C 1251.18 1879.02 1259.81 1876.41 1265.31 1873.76 z" fill="rgb(10,13,40)"/>
  <path d="M 1639.79 422.476 C 1641.14 423.033 1642.92 423.382 1643.8 424.616 C 1647.17 429.326 1645.31 439.945 1644.04 445.254 C 1641.73 444.637 1640.52 444.762 1639.41 442.426 C 1637.13 437.648 1638.61 427.5 1639.79 422.476 z" fill="rgb(1,1,4)"/>
  <path d="M 1193.07 1914.82 C 1194.91 1916.24 1195.16 1916.27 1195.75 1918.48 C 1193.24 1924.1 1185.55 1926.78 1180.33 1929.4 L 1177.88 1928.46 L 1177.09 1926.51 C 1179.52 1921.08 1188.05 1917.59 1193.07 1914.82 z" fill="rgb(10,13,40)"/>
  <path d="M 1642.15 613.644 C 1643.91 614.759 1644.4 614.987 1645.06 616.984 C 1646.85 622.357 1646.47 631.635 1643.46 636.506 C 1642.61 636.091 1641.95 635.821 1641.2 635.198 C 1639.18 633.532 1638.81 629.54 1638.65 627.093 C 1638.34 622.269 1638.78 617.271 1642.15 613.644 z" fill="rgb(1,1,4)"/>
  <path d="M 1478.68 1747.87 C 1480.13 1747.92 1481.59 1748.14 1483.03 1748.31 L 1484.09 1749.97 C 1482.42 1754.83 1473.69 1758.37 1469.39 1760.72 C 1468.14 1760.87 1466.8 1760.41 1465.57 1760.16 L 1465.1 1758.68 C 1466.9 1753.52 1474.1 1750.32 1478.68 1747.87 z" fill="rgb(10,13,40)"/>
  <path d="M 1640.57 756.386 C 1642.89 757.126 1643.78 757.113 1644.88 759.515 C 1647.02 764.212 1645.73 774.044 1643.48 778.569 C 1641.31 777.506 1640.32 777.306 1639.31 774.96 C 1637.19 770.088 1638.88 761.193 1640.57 756.386 z" fill="rgb(1,1,4)"/>
  <path d="M 1502.12 402.694 C 1503.11 402.764 1504.38 403.205 1505.36 403.449 L 1506.25 405.142 C 1504.74 410.3 1495.05 414.424 1490.54 416.941 C 1488.88 416.512 1488.53 416.038 1487.32 414.876 C 1488.79 409.265 1497.32 405.557 1502.12 402.694 z" fill="rgb(10,13,40)"/>
  <path d="M 1639.7 566.21 C 1641.19 566.681 1643.17 566.857 1644.15 568.162 C 1647.39 572.469 1645.42 582.243 1645.01 587.373 C 1641.99 586.91 1641.67 587.042 1639.59 584.875 C 1637.71 578.516 1638.84 572.64 1639.7 566.21 z" fill="rgb(1,1,4)"/>
  <path d="M 566.055 1864.84 C 569.707 1864.87 572.469 1865.77 575.796 1867.27 C 580.764 1869.51 584.716 1872 586.69 1877.15 C 582.547 1877.69 580.152 1877.21 576.359 1875.44 C 571.106 1872.99 567.917 1870.25 566.055 1864.84 z" fill="rgb(1,1,4)"/>
  <path d="M 867.97 1866.8 C 870.312 1867.04 870.888 1867.02 872.76 1868.39 L 872.397 1870.36 C 868.499 1874.26 863.629 1876.6 858.84 1879.23 C 857.402 1879.22 856.18 1878.87 854.788 1878.54 L 853.8 1876.83 C 855.496 1871.97 863.608 1868.95 867.97 1866.8 z" fill="rgb(10,13,40)"/>
  <path d="M 676.213 1926.66 C 681.617 1927.22 689.046 1930.36 692.755 1934.42 C 694.671 1936.52 694.498 1936.78 694.287 1939.47 C 693.977 1939.54 692.451 1939.89 692.211 1939.91 C 688.501 1940.11 683.058 1936.8 680.242 1934.48 C 677.221 1931.99 676.562 1930.53 676.213 1926.66 z" fill="rgb(1,1,4)"/>
  <path d="M 1300.01 1852.79 C 1302.66 1853.07 1303.09 1852.72 1304.8 1854.72 C 1302.93 1859.9 1295.09 1862.86 1290.38 1865.11 C 1289.2 1865.33 1287.96 1865.26 1286.75 1865.28 L 1285.8 1863.84 C 1285.88 1863.5 1285.92 1863.15 1286.06 1862.82 C 1288.01 1858.09 1295.65 1855.01 1300.01 1852.79 z" fill="rgb(10,13,40)"/>
  <path d="M 1641.28 518.373 C 1643.03 519.053 1643.92 519.179 1644.77 521.036 C 1647.1 526.12 1645.76 535.687 1644.1 540.743 C 1641.53 539.459 1640.58 538.932 1639.61 536.139 C 1637.73 530.748 1638.58 523.291 1641.28 518.373 z" fill="rgb(1,1,4)"/>
  <path d="M 1639.29 472.237 C 1641.96 472.825 1642.42 472.825 1644.31 474.752 C 1646.29 481.06 1645.5 487.39 1644.44 493.807 C 1642.85 493.403 1641.63 493.243 1640.41 492.051 C 1637 488.718 1638.92 476.83 1639.29 472.237 z" fill="rgb(1,1,4)"/>
  <path d="M 951.352 1726.8 C 955.396 1726.49 958.8 1727.88 962.399 1729.65 C 967.017 1731.91 970.633 1734.19 972.295 1739.21 C 967.313 1739.36 962.968 1737.61 958.645 1735.22 C 954.486 1732.91 952.719 1731.44 951.352 1726.8 z" fill="rgb(10,13,40)"/>
  <path d="M 905.1 1845.72 L 907.423 1847.15 L 907.779 1848.89 C 904.638 1853.96 897.497 1856.78 892.326 1859.45 L 889.631 1858.49 L 888.823 1856.53 C 891.54 1851.27 899.918 1848.22 905.1 1845.72 z" fill="rgb(10,13,40)"/>
  <path d="M 877.009 1685.01 C 882.594 1684.46 887.995 1686.07 892.396 1689.65 C 895.369 1692.07 895.753 1693.61 896.005 1697.37 C 891.722 1697.1 888.359 1695.25 884.706 1693.1 C 881.055 1690.94 878.091 1689.16 877.009 1685.01 z" fill="rgb(10,13,40)"/>
  <path d="M 712.871 1947.93 C 719.216 1950.55 723.484 1947.65 729.564 1948.92 L 730.578 1950.94 L 729.481 1953.64 C 727.372 1954.83 724.845 1956.41 722.43 1956.83 C 719.617 1957.32 717.529 1956.53 715.155 1955.05 C 713.244 1952.06 712.857 1951.64 712.871 1947.93 z" fill="rgb(10,13,40)"/>
  <path d="M 762.891 1927.87 L 764.846 1928.65 L 765.4 1930.6 C 762.802 1936.08 755.215 1939.01 750 1941.6 C 749.163 1940.64 748.416 1939.54 747.652 1938.52 L 748.448 1936.07 C 752.356 1932.06 757.858 1930.16 762.891 1927.87 z" fill="rgb(1,1,4)"/>
  <path d="M 605.15 1885.95 C 610.284 1886.51 616.763 1888.94 620.478 1892.64 C 622.783 1894.93 622.671 1895.86 622.532 1899.03 C 617.403 1898.02 610.324 1895.5 606.703 1891.53 C 604.764 1889.41 605.114 1888.71 605.15 1885.95 z" fill="rgb(1,1,4)"/>
  <path d="M 1336.68 1831.93 L 1339.36 1832.4 L 1340.16 1834.17 C 1337.92 1839.61 1329.58 1842.62 1324.51 1845.01 C 1323.57 1844.89 1322.64 1844.37 1321.76 1844 L 1321.52 1842.45 C 1324.12 1837.25 1331.67 1834.41 1336.68 1831.93 z" fill="rgb(10,13,40)"/>
  <path d="M 842.361 1662.89 C 846.952 1664.82 853.306 1667.86 856.886 1671.29 C 858.964 1673.27 858.896 1674.3 858.806 1677.06 C 856.971 1676.51 855.145 1675.93 853.327 1675.32 C 849.288 1673.95 843.051 1671.89 841.331 1667.57 C 840.722 1666.04 841.839 1664.36 842.361 1662.89 z" fill="rgb(1,1,4)"/>
  <path d="M 1010.87 1783.88 C 1011.97 1784.72 1012.78 1785.67 1013.7 1786.7 L 1013.18 1789.09 C 1009.82 1792.93 1004.91 1794.93 1000.44 1797.25 C 997.98 1796.64 998.058 1797.15 996.56 1794.85 C 998.404 1789.73 1006.28 1786.51 1010.87 1783.88 z" fill="rgb(10,13,40)"/>
  <path d="M 315.225 1719 C 319.903 1720.08 326.549 1722.71 330.214 1725.8 C 332.798 1727.98 332.693 1729.09 332.825 1732.37 C 327.643 1732.2 321.069 1729.2 317.417 1725.49 C 315.217 1723.25 315.24 1722.03 315.225 1719 z" fill="rgb(10,13,40)"/>
  <path d="M 1227.13 1894.73 C 1229.47 1895.34 1229.39 1894.94 1230.97 1897.03 C 1229.13 1902.35 1221.53 1905.51 1216.85 1908.23 C 1215.12 1907.68 1214.65 1907.14 1213.37 1905.91 L 1213.69 1903.87 C 1217.39 1899.85 1222.44 1897.44 1227.13 1894.73 z" fill="rgb(10,13,40)"/>
  <path d="M 834.638 1886.96 C 836.344 1888.27 836.398 1888.41 837.024 1890.48 C 834.536 1895.77 826.348 1898.31 821.284 1900.58 L 819.924 1899.87 C 819.407 1898.86 818.678 1898.26 819.181 1897.11 C 821.099 1892.72 830.485 1889.11 834.638 1886.96 z" fill="rgb(10,13,40)"/>
  <path d="M 351.032 1739.71 C 355.933 1740.49 363.182 1742.9 366.905 1746.31 C 369.175 1748.39 369.136 1749.4 369.196 1752.4 C 364.153 1752.17 357.57 1749.56 353.766 1746.2 C 351.303 1744.02 351.29 1742.92 351.032 1739.71 z" fill="rgb(10,13,40)"/>
  <path d="M 640.35 1905.91 C 645.809 1906.84 654.579 1910.94 657.928 1915.42 C 659.037 1916.91 658.407 1918.24 658.232 1919.97 C 653.45 1919.86 644.799 1914.3 641.703 1910.91 C 639.948 1908.98 640.262 1908.39 640.35 1905.91 z" fill="rgb(1,1,4)"/>
  <path d="M 422.458 1783.81 C 426.598 1783.5 430.065 1784.5 433.903 1786.03 C 438.326 1787.79 441.71 1789.47 443.603 1793.9 C 441.726 1794.71 440.134 1795.39 438.048 1795.02 C 432.196 1794 425.999 1788.32 422.458 1783.81 z" fill="rgb(10,13,40)"/>
  <path d="M 532.518 1844.01 C 537.284 1844.58 543.671 1847.36 547.442 1850.36 C 549.634 1852.1 550.268 1853.14 550.596 1855.87 C 549.055 1856.06 547.569 1856.3 546.022 1855.97 C 540.872 1854.87 534.871 1851.4 531.905 1846.98 L 532.518 1844.01 z" fill="rgb(10,13,40)"/>
  <path d="M 631.259 1543.57 C 636.058 1544.1 642.168 1546.48 645.64 1549.93 C 647.97 1552.25 648.067 1553.13 647.937 1556.35 C 643.177 1556.23 635.846 1552.95 632.593 1549.39 C 630.65 1547.26 631.168 1546.34 631.259 1543.57 z" fill="rgb(10,13,40)"/>
  <path d="M 803.543 1643.83 C 805.528 1643.84 807.506 1643.77 809.433 1644.33 C 814.98 1645.93 821.425 1649.72 824.22 1654.89 C 820.89 1655.26 818.213 1655.3 815.025 1654.14 C 809.746 1652.22 805.944 1648.89 803.543 1643.83 z" fill="rgb(10,13,40)"/>
  <path d="M 939.634 1825.87 C 941.039 1825.71 942.219 1825.95 943.609 1826.16 C 944.282 1827.55 944.645 1827.39 944.068 1828.57 C 941.902 1833.03 934.872 1835.75 930.544 1837.74 C 928.627 1837.27 928.271 1836.95 926.833 1835.71 L 927.274 1833.69 C 930.863 1830.19 935.238 1828.17 939.634 1825.87 z" fill="rgb(10,13,40)"/>
  <path d="M 498.159 1823.56 C 502.856 1825.29 508.251 1827.05 512.094 1830.34 C 514.314 1832.25 514.351 1832.51 514.576 1835.28 C 513.403 1835.44 512.219 1835.59 511.033 1835.59 C 507.446 1835.6 502.31 1833.82 499.979 1830.92 C 497.676 1828.06 498.08 1826.98 498.159 1823.56 z" fill="rgb(10,13,40)"/>
  <path d="M 1445.73 1767.88 C 1447.69 1768.5 1446.81 1767.91 1448.1 1770.02 C 1448.03 1770.31 1447.99 1770.61 1447.88 1770.89 C 1445.99 1775.37 1436.61 1779.5 1432.46 1781.9 C 1431.25 1780.55 1430.91 1779.84 1430.59 1778.05 C 1433.57 1772.43 1440.23 1770.37 1445.73 1767.88 z" fill="rgb(1,1,4)"/>
  <path d="M 794.715 1908.85 C 797.414 1909.04 798.233 1908.85 800.367 1910.44 C 798.713 1915.02 791.64 1917.69 787.442 1919.81 C 784.943 1919.81 784.12 1920.35 782.14 1918.69 C 783.568 1914.06 790.636 1911.12 794.715 1908.85 z" fill="rgb(10,13,40)"/>
  <path d="M 973.86 1805.69 C 975.366 1805.65 976.616 1805.91 978.09 1806.19 L 978.935 1807.55 C 977.318 1812.33 970.607 1815.21 966.378 1817.43 C 963.904 1817.21 963.456 1817.7 961.681 1815.81 C 963.108 1811.1 969.797 1808.03 973.86 1805.69 z" fill="rgb(10,13,40)"/>
  <path d="M 699.304 1584.1 C 703.926 1583.95 708.74 1585.42 712.642 1587.91 C 715.675 1589.85 717.396 1591.64 718.272 1595.21 C 713.219 1595.42 708.653 1593.58 704.427 1590.86 C 701.474 1588.95 700.05 1587.54 699.304 1584.1 z" fill="rgb(1,1,4)"/>
  <path d="M 461.893 1802.61 C 467.047 1805.27 475.232 1808.38 478.276 1813.36 L 477.321 1815.83 C 476.33 1815.7 475.767 1815.66 474.837 1815.45 C 470.132 1814.35 463.358 1811.97 461.076 1807.42 C 460.234 1805.75 461.33 1804.27 461.893 1802.61 z" fill="rgb(1,1,4)"/>
  <path d="M 1409.86 1788.84 C 1411.02 1789.72 1410.64 1789.26 1411.41 1790.57 C 1412.01 1791.58 1412.13 1791.4 1411.67 1792.53 C 1409.85 1797.03 1401.47 1800.37 1397.34 1802.59 C 1396.25 1802.02 1395.76 1801.37 1394.96 1800.46 L 1395.58 1798.04 C 1399.67 1794.02 1404.86 1791.58 1409.86 1788.84 z" fill="rgb(10,13,40)"/>
  <path d="M 1512.53 1728.86 C 1515.16 1729.15 1515.43 1728.7 1517.36 1730.69 C 1515.07 1736.03 1508.46 1738.27 1503.45 1740.62 C 1502.17 1740.55 1501.31 1740.1 1500.13 1739.61 L 1500.24 1737.71 C 1503.72 1733.88 1508.15 1731.52 1512.53 1728.86 z" fill="rgb(10,13,40)"/>
  <path d="M 735.159 1603.68 C 740.25 1604.43 747.338 1607.22 750.98 1610.98 C 752.926 1612.99 752.673 1613.32 752.561 1615.98 C 748.134 1616.17 742.253 1613.38 738.852 1610.55 C 736.038 1608.21 735.614 1607.29 735.159 1603.68 z" fill="rgb(1,1,4)"/>
  <path d="M 1371.42 1811.69 C 1373.45 1811.8 1373.47 1812.02 1375.07 1813.06 L 1374.55 1815.22 C 1370.91 1818.74 1366.68 1820.82 1362.28 1823.2 C 1359.95 1822.84 1359.94 1823.17 1358.15 1821.4 C 1360.34 1816.14 1366.53 1814.01 1371.42 1811.69 z" fill="rgb(10,13,40)"/>
  <path d="M 387.366 1761.86 C 390.933 1761.7 394.576 1763.4 397.648 1765.08 C 401.893 1767.41 404.196 1769.36 405.602 1773.96 C 403.728 1774.15 402.369 1774.03 400.607 1773.31 C 394.926 1770.97 389.827 1767.64 387.366 1761.86 z" fill="rgb(1,1,4)"/>
  <path d="M 1029.44 1769.67 C 1031.1 1768.83 1033.09 1768.96 1034.64 1769.99 C 1036.18 1771.03 1037.06 1772.81 1036.92 1774.67 C 1036.78 1776.53 1035.66 1778.17 1033.97 1778.97 C 1031.41 1780.18 1028.35 1779.1 1027.11 1776.56 C 1025.87 1774.01 1026.91 1770.94 1029.44 1769.67 z" fill="rgb(10,13,40)"/>
</svg>