<svg preserveAspectRatio="xMidYMid meet" version="1.1" xmlns="http://www.w3.org/2000/svg" style="display: block;" viewBox="0 0 2048 2048" width="1024" height="1024">
<path transform="translate(0,0)" fill="rgb(255,255,255)" d="M 0 0 L 2048 0 L 2048 2048 L 0 2048 L 0 0 z"/>
<path transform="translate(0,0)" fill="rgb(0,0,0)" d="M 945.829 59.7933 C 955.213 61.0335 1015.87 93.0131 1027.69 100.069 C 1031.82 102.532 1035.76 105.637 1039.17 109.024 C 1045.8 115.595 1046.53 120.584 1047.39 129.452 C 1048.93 145.332 1047.92 161.998 1047.9 177.955 L 1047.99 262.21 C 1047.76 356.703 1048.01 451.197 1048.76 545.688 C 1088.88 520.474 1131.73 499.417 1172.53 475.315 C 1229.78 441.311 1287.36 407.881 1345.28 375.03 C 1372.63 359.494 1399.76 342.943 1427.79 328.687 C 1430.7 329.549 1433.56 330.604 1436.33 331.844 C 1450.87 338.448 1500.61 360.666 1505.09 375.699 C 1509.45 390.346 1507.05 434.753 1507.05 452.647 L 1507.05 585.778 L 1507.03 840.961 L 1506.99 923.517 C 1506.98 938.789 1507.49 954.325 1506.72 969.571 C 1506.19 980.182 1503.15 990.213 1497.96 999.472 C 1494.45 1005.73 1489.13 1012.09 1482.93 1015.86 C 1467.44 1025.29 1450.86 1033.53 1434.99 1042.35 L 1335.14 1097.82 L 1068.37 1246.36 L 982.561 1295.1 C 970.558 1301.95 954.041 1314.43 941.19 1317.49 C 928.411 1320.53 887.361 1294.11 874.99 1286.55 C 873.351 1261.17 874.563 1235.16 874.493 1209.69 L 874.081 1061.86 C 855.529 1070.75 837.896 1081.6 820.013 1091.75 L 762.547 1123.67 L 606.277 1211.35 L 1405.51 1659.98 C 1464.26 1628.71 1522.32 1596.15 1579.64 1562.32 C 1593.8 1553.92 1617.98 1541.84 1629.27 1531.56 C 1643.38 1518.7 1643.49 1465.26 1644.11 1445.34 C 1616.33 1435.21 1586.94 1419.98 1566.12 1398.9 C 1549.33 1399.24 1533.71 1399.14 1517.43 1394.32 C 1480.78 1383.48 1451.52 1366.23 1432.86 1331.83 C 1429.29 1325.27 1426.25 1318.44 1423.77 1311.39 C 1420.75 1302.7 1408.59 1260.2 1412.34 1253.44 C 1415.08 1248.48 1497.52 1203.38 1506.92 1198.5 C 1506.85 1168.92 1504.4 1132.42 1507.12 1103.58 C 1508.97 1083.92 1520.47 1068.1 1535.48 1055.94 C 1575.55 1023.47 1635.97 1015.08 1685.84 1020.23 C 1724.4 1024.22 1773.05 1039.18 1798.26 1070.7 C 1814.46 1090.97 1811.82 1112.51 1809.11 1136.61 C 1833.21 1126.98 1855.02 1111.21 1878.69 1100.46 C 1888.38 1104.05 1897.79 1110.09 1905.16 1117.29 L 1903.4 1136.3 C 1901.8 1153.33 1898.7 1170.19 1894.13 1186.68 C 1881.57 1233.52 1857.94 1282.47 1824.6 1318.25 C 1814.09 1329.52 1800.75 1338.44 1790.87 1350.14 C 1784.18 1358.06 1780.78 1369.03 1774.48 1377.51 C 1753.35 1406 1722.71 1424.17 1692.55 1441.52 C 1692.69 1469.39 1694.57 1499.05 1702.85 1525.71 C 1715.02 1531.18 1788.69 1573.7 1794.4 1580.62 C 1796.33 1582.95 1796 1585.92 1795.98 1588.79 L 1795.95 1590.06 C 1800.66 1595.07 1821.72 1603.63 1829.09 1607.6 C 1859.5 1623.97 1889.45 1641.42 1919.32 1658.77 C 1936.23 1668.59 1956.43 1678.03 1970.85 1691.29 C 1970.69 1710.19 1972.93 1793.37 1969.44 1805.88 C 1959.42 1815.31 1937.53 1825.25 1925.1 1832.26 L 1814.37 1894.14 L 1718.42 1948.51 C 1701.47 1958.19 1684.08 1970.67 1665.82 1977.43 C 1651.24 1971.39 1637.55 1962.4 1623.72 1954.78 C 1596.21 1939.85 1568.8 1924.75 1541.48 1909.46 L 1415.52 1839.99 C 1401.08 1832 1368.36 1816.19 1357.26 1805.81 C 1356.93 1766.88 1357.11 1727.94 1357.79 1689.02 C 1369.7 1679.82 1384.19 1673.58 1397.06 1665.78 C 1386.01 1658.43 1373.61 1652.52 1362 1646.04 L 1301.06 1611.88 L 1155.73 1530.34 L 597.256 1217.06 C 535.623 1249.29 475.375 1284.52 414.902 1318.87 C 365.694 1346.67 316.341 1374.21 266.844 1401.5 L 196.337 1441.26 C 185.706 1447.3 175.384 1454.07 164.497 1459.63 C 160.891 1461.47 157.361 1462.98 153.289 1463.35 C 150.737 1463.59 148.14 1463.48 145.692 1462.66 C 135.558 1459.27 87.6116 1434.03 79.3206 1427.2 C 73.7958 1422.65 69.0327 1417.1 68.3677 1409.76 C 66.8079 1392.57 67.2926 1375.16 67.2756 1357.9 L 67.1794 1284.31 L 67.3635 1043.75 L 68.1129 763.297 C 68.1238 710.37 66.5628 656.742 68.8114 603.878 C 69.1243 595.547 70.6316 587.305 73.2873 579.402 C 79.2041 561.576 91.4892 541.395 106.843 530.15 C 116.903 522.782 129.445 517.105 140.347 510.949 L 210.143 471.472 L 450.707 336.02 C 565.732 270.674 681.096 205.927 796.794 141.782 L 902.228 83.5157 C 916.778 75.6485 931.036 67.2006 945.829 59.7933 z"/>
<path transform="translate(0,0)" fill="rgb(255,255,255)" d="M 1037.53 206.953 C 1037.93 207.597 1038.52 208.157 1038.74 208.886 C 1040.37 214.317 1039.1 272.647 1039.12 284.086 L 1039.2 551.567 C 1007.71 570.712 975.16 588.333 943.032 606.394 C 943.021 596.654 944.895 565.583 941.285 558.153 C 940.406 556.343 940.045 556.664 938.283 556.057 C 930.11 557.871 876.649 589.806 864.24 596.713 L 800.154 632.039 C 788.799 638.35 777.111 644.327 766.305 651.541 C 765.95 668.152 764.413 809.64 766.809 815.442 C 767.435 816.956 767.373 816.502 769.109 817.119 C 783.556 813.028 798.822 802.375 811.976 795.078 L 874.386 760.825 L 874.626 797.943 C 861.925 805.398 769.73 855.029 766.787 858.816 C 765.086 861.004 765.23 861.989 765.237 864.612 L 766.88 866.13 C 776.917 866.48 856.033 817.595 874.806 809.181 L 874.857 846.994 C 850.306 861.378 825.115 874.869 800.225 888.666 C 791.388 893.564 782.04 897.94 773.457 903.244 C 769.666 905.587 765.527 908.21 764.458 912.787 C 765.474 915.076 765.004 915.176 767.461 916.258 C 779.409 911.781 790.776 903.581 801.996 897.389 L 874.431 857.886 L 874.521 895.362 C 861.443 902.915 769.482 952.376 765.115 957.243 C 764.537 957.887 764.422 958.829 764.075 959.622 C 764.522 962.169 764.305 962.191 766.388 963.67 C 769.396 963.67 771.474 963.028 774.212 961.779 C 783.769 957.418 793.213 951.115 802.486 946.028 C 826.614 932.833 850.629 919.43 874.527 905.821 L 874.481 943.927 C 864.444 950.493 854.187 956.717 843.728 962.588 C 829.258 970.682 773.171 998.744 765.598 1007.15 C 763.764 1009.19 764.123 1010.05 764.406 1012.54 L 766.04 1013.8 C 768.744 1013.91 770.737 1013.31 773.149 1012.17 C 782.52 1007.76 791.465 1001.54 800.597 996.522 C 825.313 983.103 849.913 969.468 874.391 955.618 L 874.321 1051.08 C 860.84 1059.72 846.024 1066.67 832.076 1074.58 L 714.109 1140.07 L 382.688 1326.55 L 229.864 1412.09 C 207.482 1424.52 185.288 1437.85 162.611 1449.7 C 158.871 1451.65 152.452 1455.21 148.252 1455.17 C 146.466 1455.15 143.396 1452.66 142.159 1451.46 C 137.171 1446.59 135.738 1440.71 135.227 1434 C 133.404 1410.08 135.132 1380.96 135.141 1356.43 L 135.283 1193.69 L 135.647 705.547 L 1037.53 206.953 z"/>
<path transform="translate(0,0)" fill="rgb(0,0,0)" d="M 673.776 483.93 C 675.682 485.081 675.142 484.505 676.4 486.141 C 679.538 490.224 677.905 556.521 676.833 565.483 C 665.38 572.761 652.954 579.051 641.097 585.689 C 617.044 599.174 592.914 612.524 568.71 625.736 L 401.814 717.594 C 357.898 741.384 314.536 766.229 270.828 790.397 C 251.486 801.093 232.301 812.617 212.39 822.203 L 210.26 820.95 C 206.369 812.453 208.439 755.664 208.501 742.189 C 227.297 729.767 248.729 719.59 268.452 708.562 L 403.14 633.702 C 478.419 591.562 553.173 547.984 629.52 507.825 C 642.561 500.966 660.335 487.833 673.776 483.93 z"/>
<path transform="translate(0,0)" fill="rgb(248,91,87)" d="M 667.982 496.114 C 670.527 498.815 668.644 551.589 668.557 559.958 C 519.479 645.052 367.359 724.85 218.33 809.998 C 216.29 807.837 217.235 752.933 217.179 747.144 C 266.473 718.158 317.192 691.433 367.182 663.657 L 539.469 566.934 L 614.039 525.626 C 632.023 515.825 650.384 506.598 667.982 496.114 z"/>
<path transform="translate(0,0)" fill="rgb(0,0,0)" d="M 652.155 712.797 L 655.358 714.37 C 656.431 715.787 656.639 716.555 656.784 718.34 C 658.287 736.956 656.981 756.642 656.958 775.401 C 657.026 811.217 656.888 847.034 656.543 882.849 C 643.324 891.937 622.747 901.438 608.249 909.525 L 490.697 975.058 L 488.189 973.413 C 486.959 970.665 486.791 968.167 486.653 965.201 C 485.476 939.898 486.652 913.937 486.525 888.554 C 486.436 870.477 484.094 818.828 487.568 804.033 C 493.302 795.805 634.538 721.174 652.155 712.797 z"/>
<path transform="translate(0,0)" fill="rgb(255,255,255)" d="M 646.048 725.854 L 647.172 726.582 C 648.977 743.076 647.587 761.161 647.55 777.826 L 647.328 878.829 L 636.132 883.259 C 629.199 878.913 622.738 873.807 615.645 869.695 C 605.316 863.706 595.351 861.373 583.643 864.771 C 546.004 875.694 525.634 915.631 508.645 947.628 C 507.413 950.691 506.471 953.924 505.421 957.056 C 502.097 958.621 498.567 959.758 495.107 960.988 L 495.251 808.541 C 545.055 780.145 595.327 752.579 646.048 725.854 z"/>
<path transform="translate(0,0)" fill="rgb(0,0,0)" d="M 579.548 787.177 C 583.025 786.884 586.451 787.033 589.673 788.49 C 593.964 790.43 597.28 793.591 598.936 798.038 C 602.786 808.37 599.637 821.469 594.823 830.938 C 588.815 842.753 580.174 850.734 567.663 854.947 C 563.577 855.349 559.482 855.643 555.702 853.736 C 551.43 851.581 548.404 848.219 546.96 843.644 C 543.788 833.595 546.96 821.617 551.482 812.445 C 557.596 800.042 566.389 791.585 579.548 787.177 z"/>
<path transform="translate(0,0)" fill="rgb(255,255,255)" d="M 578.884 797.01 C 580.767 796.749 582.505 796.728 584.347 797.319 C 587.009 798.173 589.545 800.431 590.782 802.868 C 593.539 808.299 591.491 816.533 589.572 821.871 C 585.588 832.953 578.697 841.627 567.954 846.508 C 566.097 846.733 564.479 846.926 562.611 846.533 C 559.882 845.96 557.158 843.553 555.865 841.215 C 552.779 835.637 555.137 826.394 557.169 820.9 C 561.412 809.434 568.059 802.14 578.884 797.01 z"/>
<path transform="translate(0,0)" fill="rgb(248,91,87)" d="M 592.892 872.254 C 606.608 872.546 617.119 881.394 628.052 888.701 C 598.076 904.277 568.873 921.531 539.488 938.194 L 515.609 951.592 C 524.109 935.484 533.707 918.974 544.316 904.157 C 556.128 887.662 572.638 875.565 592.892 872.254 z"/>
<path transform="translate(0,0)" fill="rgb(0,0,0)" d="M 374.412 858.821 C 376.251 858.995 377.09 859.639 378.656 860.558 C 379.373 861.79 379.749 862.749 379.782 864.193 C 380.188 882.037 379.31 900.076 379.284 917.947 C 379.422 954.397 379.341 990.848 379.041 1027.3 C 324.587 1058.21 269.548 1089.11 214.048 1118.09 C 211.424 1118 210.777 1118.21 208.69 1116.69 C 206.2 1106.85 208.044 1074.05 208.045 1062.21 C 208.05 1024.72 207.135 987.058 207.936 949.593 C 221.285 941.432 235.717 934.448 249.484 926.978 C 291.081 904.409 333.714 882.894 374.412 858.821 z"/>
<path transform="translate(0,0)" fill="rgb(255,255,255)" d="M 370.654 872.017 C 371.849 876.799 372.423 1010.95 370.655 1018.52 C 370.287 1020.1 368.67 1021.02 367.234 1021.67 C 356.843 1026.33 339.147 1010.89 329.214 1006.88 C 320.121 1003.21 309.741 1005.52 301.064 1009.31 C 266.352 1024.43 241.545 1065.88 228.224 1099.52 C 225.919 1102.49 220.509 1104.76 217.199 1106.71 L 217.252 954.372 C 268.181 926.867 318.599 897.222 370.654 872.017 z"/>
<path transform="translate(0,0)" fill="rgb(0,0,0)" d="M 301.54 928.23 C 304.287 928.437 307.29 929.073 309.721 930.401 C 314.531 933.027 317.888 937.316 319.304 942.604 C 322.377 954.083 318.355 968.201 312.231 978.014 C 305.297 989.125 296.817 994.583 284.377 997.495 C 281.295 997.172 278.414 996.354 275.757 994.725 C 270.303 991.381 266.887 986.636 265.658 980.352 C 263.484 969.241 267.23 957.778 273.382 948.572 C 280.203 938.368 289.286 930.602 301.54 928.23 z"/>
<path transform="translate(0,0)" fill="rgb(255,255,255)" d="M 299.528 937.926 C 301.617 937.918 303.485 938.118 305.407 939.029 C 307.911 940.216 309.875 943.254 310.735 945.786 C 313.359 953.514 309.879 964.68 306.118 971.514 C 301.402 980.081 296.282 984.635 286.947 987.354 C 285.571 987.078 284.185 986.76 282.846 986.338 C 279.583 985.31 277.169 982.777 275.692 979.738 C 273.081 974.36 274.693 967.434 276.695 962.138 C 281.018 950.7 288.432 942.797 299.528 937.926 z"/>
<path transform="translate(0,0)" fill="rgb(248,91,87)" d="M 312.982 1015.18 C 328.639 1013.71 341.781 1022.94 355.15 1029.99 C 327.279 1048.25 295.975 1063.28 266.601 1079.04 C 257.467 1084.17 248.533 1089.62 239.182 1094.36 C 242.932 1086.64 246.961 1079.05 251.26 1071.62 C 265.943 1046.51 283.674 1022.91 312.982 1015.18 z"/>
<path transform="translate(0,0)" fill="rgb(0,0,0)" d="M 962.716 326.911 C 962.934 326.881 963.15 326.832 963.369 326.822 C 966.241 326.692 966.614 326.437 968.615 328.365 C 970.035 338.039 969.29 348.398 969.256 358.172 L 969.065 406.226 C 950.862 419.573 918.525 434.518 897.677 446.15 C 839.232 478.758 780.788 511.905 721.585 543.087 C 719.201 542.721 719.367 542.622 717.639 541.25 C 713.579 531.263 716.215 478.363 716.561 464.144 C 730.732 452.647 757.958 440.821 774.776 431.175 C 807.735 412.27 841.138 394.176 874.236 375.522 C 903.549 359.002 932.541 341.84 962.716 326.911 z"/>
<path transform="translate(0,0)" fill="rgb(248,91,87)" d="M 958.867 338.885 C 961.793 342.044 960.64 392.475 960.93 400.873 C 939.19 414.611 915.561 425.896 893.09 438.453 L 726.534 530.925 C 725.971 530.864 725.545 530.371 725.071 530.06 C 724.775 509.725 725.063 489.352 725.095 469.013 C 752.425 452.401 781.068 437.389 808.985 421.746 C 858.686 393.659 908.649 366.037 958.867 338.885 z"/>
<path transform="translate(0,0)" fill="rgb(0,0,0)" d="M 965.18 460.725 C 967.927 460.995 968.422 461.049 970.626 462.67 L 970.678 465.446 C 968.312 469.276 964.355 471.459 960.565 473.707 C 950.477 479.69 939.717 484.504 929.5 490.297 C 887.703 514.253 845.677 537.806 803.427 560.953 C 719.162 608.424 634.449 655.092 549.297 700.952 C 466.412 747.038 383.233 792.595 299.767 837.619 C 271.241 852.989 243.349 869.88 214.35 884.305 C 211.92 884.792 211.468 884.26 209.223 883.406 C 208.778 882.028 208.552 882.098 208.896 880.832 C 209.959 876.916 215.297 874.19 218.622 872.247 C 229.036 866.164 240.044 860.793 250.612 854.915 L 390.511 778.592 C 582.629 673.655 774.188 567.698 965.18 460.725 z"/>
<path transform="translate(0,0)" fill="rgb(0,0,0)" d="M 654.166 972.689 C 655.992 972.74 656.956 973.111 658.639 973.748 C 659.948 976.031 659.802 976.087 659.327 978.703 C 657.148 981.559 654.538 983.473 651.542 985.39 C 641.845 991.595 631.181 996.496 621.193 1002.25 C 577.238 1027.59 531.873 1050.82 488.402 1076.94 L 485.599 1076.87 C 483.818 1075.13 483.749 1075 483.331 1072.55 C 484.505 1069 487.587 1067.38 490.544 1065.44 C 507.636 1054.19 526.562 1045.04 544.493 1035.17 C 581.214 1014.98 618.554 994.718 654.166 972.689 z"/>
<path transform="translate(0,0)" fill="rgb(0,0,0)" d="M 653.019 923.812 C 654.8 923.813 655.886 924.077 657.576 924.553 C 659.215 926.728 659.303 926.662 659.099 929.358 C 653.729 937.543 511.95 1013.04 490.498 1025.75 C 488.35 1026.12 488.057 1026.08 486.102 1025.45 C 484.786 1022.95 484.728 1022.89 485.243 1020.12 C 487.319 1017.22 489.905 1015.34 492.941 1013.48 C 518.758 997.664 546.529 983.725 573.115 969.176 C 600.023 954.45 626.31 938.842 653.019 923.812 z"/>
<path transform="translate(0,0)" fill="rgb(0,0,0)" d="M 654.544 1074.89 C 656.002 1075.45 656.514 1075.69 657.474 1077 C 658.5 1078.41 658.037 1078.88 657.819 1080.49 C 651.033 1089.1 537.993 1148.66 520.067 1158.83 C 509.126 1165.04 498.788 1173.22 487.519 1178.65 C 486.851 1178.14 485.743 1177.35 485.252 1176.69 C 483.739 1174.68 484.112 1173.31 484.414 1171.03 C 489.72 1163.64 636.704 1083.49 654.544 1074.89 z"/>
<path transform="translate(0,0)" fill="rgb(0,0,0)" d="M 375.275 1222.63 L 377.656 1223.4 C 379.564 1225.55 379.594 1225.41 379.507 1228.27 C 378.485 1229.96 377.653 1231.01 375.988 1232.14 C 354.244 1246.91 324.782 1261.18 301.232 1274.36 C 271.717 1290.88 242.877 1309.1 212.391 1323.8 L 210.271 1323.4 C 208.236 1321.39 208.241 1321.42 208.005 1318.58 C 209.066 1316.21 210.217 1315.3 212.344 1313.96 C 227.765 1304.22 244.789 1296.3 260.719 1287.32 C 298.711 1265.41 336.898 1243.85 375.275 1222.63 z"/>
<path transform="translate(0,0)" fill="rgb(0,0,0)" d="M 377.891 1120.75 C 378.89 1121.07 379.745 1121.75 380.627 1122.32 C 381.32 1124.54 381.861 1125.62 380.694 1127.87 C 378.272 1132.56 227.147 1216.19 210.422 1224.1 C 210.049 1223.87 209.62 1223.72 209.303 1223.42 C 207.525 1221.74 207.584 1220.29 207.427 1218.04 C 208.109 1216.61 208.747 1215.72 210.088 1214.82 C 228.925 1202.24 251.755 1191.71 271.701 1180.52 L 342.485 1140.96 C 354.317 1134.28 365.879 1127.09 377.891 1120.75 z"/>
<path transform="translate(0,0)" fill="rgb(0,0,0)" d="M 376.739 1071.77 C 378.88 1073.54 379.714 1074.35 380.43 1077.06 C 379.55 1079.57 378.832 1080.64 376.552 1082.11 C 359.994 1092.78 338.63 1102.75 321.022 1112.46 L 210.754 1173.9 C 210.466 1173.74 210.13 1173.64 209.891 1173.42 C 208.02 1171.64 208.078 1170.4 207.932 1168.01 C 208.799 1165.82 209.794 1164.91 211.684 1163.63 C 229.325 1151.67 249.942 1142 268.597 1131.59 C 304.54 1111.53 340.373 1091.05 376.739 1071.77 z"/>
<path transform="translate(0,0)" fill="rgb(0,0,0)" d="M 338.844 1193.82 C 341.175 1195.76 341.778 1197.21 342.061 1200.1 C 340.959 1202.25 339.675 1203.04 337.708 1204.33 C 321.441 1215.01 302.915 1223.86 285.93 1233.52 C 270.784 1242.16 255.579 1250.68 240.315 1259.11 C 230.864 1264.34 221.334 1270.34 211.26 1274.27 L 208.746 1273.12 C 207.622 1270.81 207.635 1270.71 208.143 1268.19 C 210.248 1265.57 212.727 1263.88 215.576 1262.13 C 233.438 1251.17 252.713 1241.82 271.023 1231.5 C 293.351 1218.93 315.717 1204.76 338.844 1193.82 z"/>
<path transform="translate(0,0)" fill="rgb(0,0,0)" d="M 607.555 1049.86 C 607.955 1049.96 608.382 1049.97 608.755 1050.15 C 610.859 1051.12 610.957 1052.45 611.56 1054.47 C 610.325 1057.35 609.881 1057.79 607.35 1059.61 C 595.379 1068.19 580.525 1074.94 567.623 1082.21 C 541.043 1097.2 514.506 1112.61 487.394 1126.62 C 485.121 1126.23 485.408 1126.64 483.759 1124.68 L 484.295 1121.32 C 492.348 1111.51 589.261 1059.01 607.555 1049.86 z"/>
<path transform="translate(0,0)" fill="rgb(255,255,255)" d="M 1471.21 481.861 C 1472.36 482.465 1472.05 482.118 1472.79 483.398 C 1475.74 488.492 1474.04 582.602 1474.06 598.023 L 1474.12 885.423 C 1474.09 902.141 1476 967.331 1472.97 978.392 C 1471.83 982.524 1467.63 986.525 1464.12 988.753 C 1449.14 998.268 1432.18 1005.71 1416.67 1014.5 L 1263.71 1099.48 C 1192.91 1139.59 1121.81 1179.15 1050.41 1218.17 C 1018.58 1235.92 987.526 1255.14 955.237 1272.04 C 953.247 1269.91 953.489 1266.06 953.398 1263.32 C 952.603 1239.43 953.258 1215.3 953.262 1191.38 L 953.151 1063.26 C 953.092 968.242 951.721 873.104 952.666 778.107 C 1071.91 710.573 1190.73 642.29 1309.11 573.262 C 1362.8 542.507 1416.21 510.186 1471.21 481.861 z"/>
<path transform="translate(0,0)" fill="rgb(0,0,0)" d="M 1171.61 704.919 C 1173.5 705.235 1173.44 705.425 1174.81 706.588 C 1178.43 717.432 1176.22 802.326 1176.23 819.519 C 1176.23 850.079 1177.8 881.386 1176 911.862 C 1168.05 918.113 1158.33 922.894 1149.58 927.969 C 1132.07 938.128 1114.46 948.113 1096.76 957.924 C 1063.37 976.676 1030.08 997.961 995.389 1014.15 C 994.485 1013.57 993.858 1013.24 993.073 1012.44 C 991.778 1011.13 991.572 1009.76 991.413 1008.01 C 990.623 999.291 991.2 990.115 991.231 981.339 L 991.293 931.787 C 991.281 890.009 989.84 847.616 992.071 805.917 C 1002.5 797.898 1015.65 792.112 1027.14 785.754 L 1084.76 753.601 C 1113.82 737.714 1142.09 719.885 1171.61 704.919 z"/>
<path transform="translate(0,0)" fill="rgb(248,91,87)" d="M 1166.75 716.988 C 1169.86 722.144 1168.04 881.554 1167.99 906.381 C 1149.87 918.882 1129.76 929.428 1110.56 940.242 C 1074.2 960.726 1037.28 980.638 1001.47 1002.05 C 998.535 997.62 1000.78 831.692 1000.88 810.61 C 1024.24 795.479 1050.15 782.389 1074.61 768.988 C 1105.6 752.146 1136.32 734.811 1166.75 716.988 z"/>
<path transform="translate(0,0)" fill="rgb(0,0,0)" d="M 1138.05 766.716 C 1139.69 767.125 1139.96 767.404 1141.17 768.5 C 1144.66 778.527 1143.07 876.029 1143.16 897.088 C 1131.3 905.22 1117.19 911.366 1104.54 918.335 C 1081.09 931.4 1057.74 944.645 1034.49 958.071 C 1032.31 958.065 1032.34 957.86 1030.58 956.831 C 1026.86 949.501 1029 847.308 1028.99 828.167 C 1065.53 808.651 1103.25 789.162 1138.05 766.716 z"/>
<path transform="translate(0,0)" fill="rgb(255,255,255)" d="M 1133.04 780.101 C 1135.15 782.237 1133.75 880.179 1133.7 891.952 C 1102.31 909.877 1070.79 927.56 1039.13 945 C 1035.96 940.567 1037.63 846.597 1037.84 834.074 C 1048.22 827.274 1059.92 821.653 1070.78 815.595 C 1091.68 804.028 1112.44 792.196 1133.04 780.101 z"/>
<path transform="translate(0,0)" fill="rgb(0,0,0)" d="M 1424.84 558.915 C 1424.95 559.018 1425.07 559.11 1425.16 559.223 C 1426.78 561.182 1427.36 563.113 1427.67 565.58 C 1429.26 578.547 1428.28 592.733 1428.35 605.855 C 1428.47 629.546 1428.99 653.333 1428.32 677.013 C 1413.85 686.627 1397.84 694.649 1382.79 703.381 C 1342.23 727.127 1301.38 750.382 1260.26 773.141 C 1250.27 778.666 1230.46 792.085 1219.99 794.079 L 1216.68 791.156 C 1212.65 779.706 1215.22 697.295 1215.57 679.559 C 1224.31 672.691 1234.68 667.525 1244.32 662.009 C 1260.81 652.555 1277.36 643.217 1293.97 633.993 C 1337.81 609.331 1381.43 584.304 1424.84 558.915 z"/>
<path transform="translate(0,0)" fill="rgb(255,255,255)" d="M 1417.64 573.861 L 1418.41 574.503 C 1420.59 581.092 1419.06 658.156 1419.07 672.058 C 1402.53 682.754 1384.92 692.324 1367.81 702.108 L 1281.98 750.9 C 1263.14 761.44 1244.01 771.408 1225.49 782.522 C 1222.4 778.051 1224.82 695.675 1224.91 683.633 L 1358.75 607.06 C 1378.3 595.827 1398.26 585.407 1417.64 573.861 z"/>
<path transform="translate(0,0)" fill="rgb(0,0,0)" d="M 1424.78 835.788 C 1425.86 836.176 1426.79 836.996 1427.73 837.649 C 1430.11 847.045 1428.38 887.158 1428.86 900.432 C 1410.92 909.838 1393.88 920.748 1376.26 930.722 C 1357.11 941.561 1337.43 951.429 1318.27 962.234 C 1303.12 970.776 1288.34 981.266 1272.39 988.191 L 1269.59 986.456 C 1265.72 979.902 1267.74 934.314 1267.56 923.576 C 1297.56 903.597 1330.92 886.762 1362.53 869.419 C 1382.9 858.237 1403.54 845.071 1424.78 835.788 z"/>
<path transform="translate(0,0)" fill="rgb(255,255,255)" d="M 1417.84 848.864 C 1421.05 853.068 1419.4 887.46 1419.4 895.028 C 1407.17 901.708 1395.49 909.415 1383.33 916.231 L 1277.39 974.774 C 1275.38 962.856 1276.76 941.951 1276.37 928.688 C 1293.66 917.036 1312.45 907.126 1330.7 897.024 L 1417.84 848.864 z"/>
<path transform="translate(0,0)" fill="rgb(0,0,0)" d="M 1425.15 730.726 C 1426.32 730.868 1427.48 731.351 1428.61 731.709 C 1433.63 739.05 1430.93 761.515 1430.81 770.841 C 1419.94 781.399 1385.77 798.477 1370.38 807.22 C 1320.55 835.544 1270.05 862.774 1220.89 892.284 C 1219.15 892.259 1218.43 892.01 1216.85 891.394 C 1212.35 884.938 1214.65 860.254 1214.8 851.593 C 1240.42 832.935 1270.44 818.662 1298.05 803.151 L 1425.15 730.726 z"/>
<path transform="translate(0,0)" fill="rgb(248,91,87)" d="M 1420.15 743.869 L 1421.38 744.831 C 1422.55 751.73 1421.94 759.34 1421.91 766.353 C 1390.18 786.983 1356.5 804.866 1323.48 823.324 C 1290.48 841.925 1257.68 860.872 1225.08 880.161 L 1223.52 879.682 C 1222.08 872.266 1222.93 863.686 1223 856.102 C 1268.7 828.352 1316.03 802.915 1362.74 776.889 C 1382.02 766.145 1400.95 754.762 1420.15 743.869 z"/>
<path transform="translate(0,0)" fill="rgb(0,0,0)" d="M 1422.44 944.899 C 1423.63 944.753 1424.77 944.949 1425.96 945.068 C 1428.06 947.085 1427.97 947.422 1428.47 950.332 C 1427.36 952.948 1424.33 954.264 1421.94 955.768 C 1398.32 970.583 1373.24 983.505 1348.85 997.002 L 1216.14 1070.62 C 1167.33 1098.24 1118.32 1125.51 1069.13 1152.44 L 1026.25 1175.84 C 1017.89 1180.48 1009.49 1185.95 1000.85 1189.94 C 998.47 1191.04 996.717 1190.95 994.181 1190.37 C 990 1179.53 992.564 1143.22 992.656 1129.88 C 1017.28 1116.79 1041.44 1102.74 1065.83 1089.22 L 1212.94 1008.09 C 1216.57 1005.8 1220.21 1003 1224.01 1001.05 C 1226.38 999.845 1228.45 999.159 1231.09 999.911 C 1232.69 1001.96 1232.58 1002.33 1232.73 1004.96 C 1230.4 1008.84 1224.21 1011.77 1220.38 1014.05 C 1185.56 1034.72 1149.19 1053.2 1113.75 1072.83 C 1076.67 1093.37 1040.04 1115.23 1002.57 1134.99 C 1001.52 1149.66 1002.16 1164.81 1002.06 1179.54 C 1034.63 1158.66 1070.34 1141.64 1104.14 1122.7 L 1331.2 996.167 C 1361.67 979.028 1392.4 962.895 1422.44 944.899 z"/>
<path transform="translate(0,0)" fill="rgb(0,0,0)" d="M 1229 940.921 C 1231.08 943.155 1232.14 943.914 1232.84 946.929 C 1232.06 948.645 1231.41 949.298 1229.86 950.39 C 1218.03 958.692 1204.46 965.746 1191.9 972.922 C 1163.54 988.775 1135.1 1004.46 1106.57 1019.99 C 1069.13 1040.54 1032.35 1063.87 993.809 1082.23 C 993.443 1082.1 993.035 1082.05 992.71 1081.83 C 990.784 1080.56 990.517 1079.57 990.218 1077.49 C 991.271 1074.61 992.882 1073.28 995.411 1071.69 C 1014.91 1059.41 1036.59 1049.35 1056.74 1038.05 C 1114.21 1005.84 1172.24 974.345 1229 940.921 z"/>
<path transform="translate(0,0)" fill="rgb(255,255,255)" d="M 1427.37 338.818 C 1434.03 338.996 1464.01 356.563 1472.03 360.734 C 1443.84 373.808 1417.01 390.747 1390.03 406.146 C 1339.57 434.797 1289.34 463.848 1239.34 493.297 L 1162.14 537.89 C 1149.94 545.034 1138.09 552.774 1125.79 559.726 L 1011.37 625.177 C 997.125 633.384 982.43 640.97 968.389 649.493 C 963.611 652.394 958.749 655.636 955.117 659.935 C 936.179 682.354 934.72 706.072 934.587 733.971 C 934.544 742.988 934.046 752.385 934.817 761.36 C 935.585 770.31 936.64 773.76 943.456 779.614 C 945.082 896.28 944.127 1013.09 944.275 1129.77 L 944.347 1225.71 C 944.357 1243.26 943.003 1262.02 945.415 1279.35 C 946.821 1280.54 947.357 1281.3 949.21 1281.71 C 952.541 1282.44 956.153 1281.19 959.192 1279.9 C 970.578 1275.03 981.717 1267.6 992.527 1261.46 L 1056.45 1225.17 L 1326.38 1074.69 C 1361.94 1055.42 1397.38 1035.93 1432.71 1016.24 C 1445.53 1009.09 1460.32 1002.7 1472.22 994.245 C 1477.76 990.31 1481.31 985.248 1482.22 978.445 C 1484.91 958.431 1483.28 936.677 1483.28 916.41 L 1483.18 800.835 L 1483.11 595.101 C 1483.1 560.896 1484.09 526.381 1482.99 492.207 C 1482.82 486.978 1482.79 479.939 1479.3 475.748 C 1474.54 470.02 1468.49 473.297 1462.87 475.812 C 1439.01 486.507 1410.86 504.788 1387.54 518.05 C 1311.15 561.319 1235.04 605.088 1159.22 649.355 C 1113.51 676.423 1067.52 703.033 1021.27 729.18 C 999.845 741.424 978.536 754.664 956.706 766.12 C 954.131 767.471 951.672 768.803 948.699 768.633 C 947.646 767.688 947.458 767.62 946.575 766.277 C 940.754 757.418 943.316 703.06 947.181 691.549 C 953.175 673.7 963.904 661.355 980.72 653.005 C 1011.6 635.551 1042.31 617.792 1072.84 599.729 L 1282.96 478.733 C 1311.96 462.103 1340.62 444.932 1369.78 428.565 L 1437.01 389.954 C 1451.73 381.512 1466.69 371.478 1482.91 366.253 C 1487.3 368.32 1492.54 370.857 1494.97 375.273 C 1497.69 380.237 1497.7 388.406 1497.83 394.016 C 1498.7 430.368 1497.42 467.039 1497.43 503.428 L 1497.81 730.203 L 1497.83 885.001 C 1497.82 909.709 1500.69 965.54 1494.23 986.888 C 1491.98 994.342 1486.67 1002.76 1480.15 1007.17 C 1473.23 1011.85 1465.14 1015.6 1457.78 1019.6 C 1444.47 1026.84 1431.2 1034.17 1417.98 1041.58 L 1267.34 1124.94 L 1058.08 1242.22 C 1021.45 1262.93 985.197 1284.93 947.946 1304.43 C 943.277 1306.87 938.47 1309.01 933.23 1307.31 C 932.597 1306.62 931.699 1306.09 931.332 1305.23 C 929.562 1301.05 930.666 810.75 929.867 766.59 C 920.687 757.621 895.015 743.102 882.999 735.087 C 882.903 715.587 881.336 695.181 886.656 676.224 C 890.751 661.631 898.174 646.526 910.132 636.826 C 922.666 626.658 938.457 619.154 952.483 611.208 C 981.739 594.985 1010.87 578.546 1039.89 561.892 C 1168.61 486.772 1297.77 412.413 1427.37 338.818 z"/>
<path transform="translate(0,0)" fill="rgb(0,0,0)" d="M 1453.75 390.024 C 1455.78 390.278 1458.26 390.78 1459.58 392.476 C 1465.46 400.015 1462.78 455.366 1461.93 467.52 C 1445.92 478.62 1426.99 487.1 1409.99 496.797 L 1294.43 562.914 L 1175.75 630.66 C 1157.04 641.225 1137.4 654.553 1117.43 662.207 L 1113.08 662.477 C 1111.32 661.498 1110.56 661.313 1109.89 659.269 C 1107.88 653.056 1108.84 614.102 1109.85 606.336 C 1110.48 601.539 1111.69 596.832 1113.72 592.432 C 1117.71 583.829 1124.81 579.06 1132.49 573.919 C 1150.37 561.93 1169.94 551.629 1188.56 540.796 C 1230.04 516.701 1271.64 492.823 1313.37 469.164 L 1401.34 418.588 C 1417.98 408.989 1435.7 396.333 1453.75 390.024 z"/>
<path transform="translate(0,0)" fill="rgb(255,255,255)" d="M 1452.01 400.179 C 1454.82 405.678 1452.85 452.574 1452.78 462.007 C 1422.75 480.517 1391.08 496.834 1360.54 514.55 C 1280.54 561.011 1200.12 606.763 1119.3 651.802 C 1116.85 641.341 1117.54 610.357 1120.16 600.052 C 1122.08 592.525 1126.93 588.653 1133 584.272 C 1149.04 572.691 1167.73 563.452 1184.89 553.551 C 1213.38 537.12 1241.62 520.395 1270.35 504.375 C 1331.26 470.401 1391.62 435.087 1452.01 400.179 z"/>
<path transform="translate(0,0)" fill="rgb(0,0,0)" d="M 1021.47 656.647 C 1022.5 656.779 1023.59 657.188 1024.6 657.475 L 1025.82 659.923 C 1025.94 668.875 1020.86 677.751 1017.26 685.788 C 1020.55 687.63 1025.76 690.058 1026.98 693.874 C 1027.85 696.605 1027.27 697.566 1026.06 699.897 C 1024.76 700.775 1023.54 701.624 1022 702.017 C 1016.19 703.501 1011.4 700.033 1006.56 697.338 C 1004.66 702.746 1002.54 707.851 1000.04 713.009 C 998.053 715.777 996.941 717.874 993.522 719.008 L 991.709 717.917 C 988.684 710.951 993.405 699.955 995.552 693.234 C 993.53 689.566 990.133 684.647 990.892 680.324 C 992.364 671.945 1005.28 668.343 1011.55 664.363 C 1015.06 662.137 1018.28 659.298 1021.47 656.647 z"/>
<path transform="translate(0,0)" fill="rgb(0,0,0)" d="M 1069.84 625.461 C 1073.27 626.395 1074.39 626.548 1077.02 629.07 C 1079.29 636.054 1071.82 642.598 1069.53 648.858 C 1066.97 655.837 1075.21 660.706 1077.7 666.437 C 1078.62 668.557 1078.23 669.159 1077.53 671.222 C 1075.77 672.438 1074.47 673.171 1072.37 673.535 C 1067.19 674.431 1061.61 669.136 1057.58 666.292 C 1055.34 671.745 1053.11 684.824 1047.13 687.204 C 1044.24 688.35 1042.49 687.119 1039.88 686.07 C 1041.43 678.553 1045.12 671.015 1047.98 663.899 C 1045.76 658.452 1042.39 653.161 1039.58 647.974 C 1041.53 645.105 1043.71 641.117 1046.41 638.983 C 1048.18 637.588 1048.72 637.837 1050.78 638.149 C 1052.92 640.759 1055.33 643.394 1056.89 646.396 C 1054.38 647.311 1055.3 646.499 1054.05 648.75 C 1054.66 651.003 1055.12 652.44 1056.61 654.259 C 1058.76 652.272 1067.5 630.334 1069.84 625.461 z"/>
<path transform="translate(0,0)" fill="rgb(255,255,255)" d="M 1002.34 98.7385 C 1004.85 98.9409 1005.84 99.8378 1007.44 101.543 C 1007.07 102.143 1006.88 102.891 1006.34 103.342 C 1002.77 106.315 994.699 108.935 990.38 111.25 C 980.971 116.291 971.815 121.904 962.631 127.343 C 920.887 151.887 878.891 175.998 836.647 199.671 L 554.561 359.597 L 436.768 425.671 C 418.953 435.691 399.898 444.72 382.934 456.1 C 372.726 462.948 364.138 472.901 357.448 483.133 C 347.381 498.531 336.224 520.254 340.685 539.215 C 341.994 544.781 344.632 551.193 349.903 554.077 C 354.705 556.704 360.533 556.067 365.597 554.615 C 382.065 549.894 405.49 534.576 420.963 526.003 L 523.191 469.241 L 702.382 370.73 C 729.339 355.949 757.132 342.148 783.556 326.499 C 790.753 322.237 797.264 317.31 802.802 311.006 C 829.484 280.641 809.864 248.852 827.103 220.76 C 830.125 215.836 834.789 211.539 839.554 208.327 C 846.978 203.322 855.538 199.327 863.343 194.915 L 918.974 163.655 C 946.568 148.149 973.131 130.904 1001.21 116.235 C 1006.26 113.596 1013.78 109.276 1019.5 108.749 C 1023.56 108.375 1028.76 111.496 1031.47 114.292 C 1034.91 117.829 1036.92 122.519 1037.96 127.283 C 1041.23 142.194 1038.92 177.118 1038.86 194.515 C 1020.6 207.61 999.001 217.83 979.304 228.665 C 945.465 247.522 911.528 266.2 877.494 284.701 L 446.524 522.127 C 343.257 580.367 239.666 638.03 135.756 695.113 C 135.659 673.043 133.632 643.62 136.318 622.585 C 138.276 607.26 146.908 585.741 159.656 576.281 C 174.929 564.948 192.999 556.429 209.62 547.154 L 277.333 508.579 L 492.134 386.436 L 824.092 199.583 C 883.405 165.995 941.936 130.254 1002.34 98.7385 z"/>
<path transform="translate(0,0)" fill="rgb(0,0,0)" d="M 986.33 158.898 C 987.168 159.037 988.3 159.186 989.071 159.507 C 991.469 160.504 992.552 161.689 993.395 164.127 C 995.604 170.513 995.909 185.326 992.28 191.218 C 987.729 198.607 971.427 204.911 963.258 207.242 C 962.421 207.052 962.061 207.009 961.208 206.603 C 958.672 205.398 956.88 203.699 955.874 201.072 C 953.535 194.958 954.147 183.177 956.873 177.344 C 961.781 166.841 976.352 162.882 986.33 158.898 z"/>
<path transform="translate(0,0)" fill="rgb(254,141,146)" d="M 963.978 180.377 C 970.729 175.759 977.453 171.635 985.275 169.064 C 986.178 174.962 986.046 180.909 986.07 186.86 C 980.89 189.786 970.529 197.253 964.631 196.158 C 964.177 194.939 963.887 194.183 963.835 192.867 L 963.978 180.377 z"/>
<path transform="translate(0,0)" fill="rgb(248,91,87)" d="M 985.275 169.064 C 986.178 174.962 986.046 180.909 986.07 186.86 C 980.89 189.786 970.529 197.253 964.631 196.158 C 964.177 194.939 963.887 194.183 963.835 192.867 C 969.545 191.355 979.388 185.468 983.794 181.456 C 985.832 179.601 985.242 171.819 985.275 169.064 z"/>
<path transform="translate(0,0)" fill="rgb(0,0,0)" d="M 245.072 555.554 L 247.764 556.367 C 250.835 559.488 251.959 563.475 253.48 567.491 C 256.569 566.52 260.446 564.97 263.675 565.012 C 265.76 565.039 265.987 565.109 267.473 566.629 C 267.186 571.199 262.607 575.644 259.836 579.184 C 259.766 583.663 259.895 588.11 259.881 592.583 C 259.871 595.746 259.664 598.84 257.286 601.146 C 249.176 601.955 245.573 602.177 239.402 607.913 L 238.396 608.862 C 236.564 611.51 235.139 613.256 232.453 615.057 C 230.03 615.249 230.049 615.341 228.12 613.888 C 227.201 608.339 230.614 602.693 230.922 596.998 C 229.328 593.479 224.592 591.819 221.51 589.547 L 221.232 587.506 C 223.931 581.261 233 577.228 238.555 573.802 C 239.508 566.376 240.099 561.511 245.072 555.554 z"/>
<path transform="translate(0,0)" fill="rgb(248,91,87)" d="M 246.53 571.631 C 247.799 572.945 248.937 574.31 250.102 575.716 C 251.962 575.587 252.973 575.569 254.822 576.019 C 254.361 580.951 253.915 590.282 250.461 593.882 C 248.569 593.745 246.913 593.732 245.031 593.973 L 242.423 597.492 C 240.935 598.906 240.588 599.358 238.531 599.857 C 237.265 594.414 237.213 591.045 233.501 586.599 C 239.539 582.104 243.514 578.805 246.53 571.631 z"/>
<path transform="translate(0,0)" fill="rgb(0,0,0)" d="M 933.807 186.898 C 936.202 187.6 938.759 188.051 940.191 190.329 C 944.93 197.87 942.135 212.816 940.566 221.151 C 932.31 227.688 924.33 232.686 914.058 235.364 C 913.083 235.292 911.331 235.199 910.426 234.966 C 908.53 234.477 907.204 233.579 906.256 231.877 C 902.858 225.777 903.473 213.438 905.716 207.013 C 909.189 197.067 924.91 191.087 933.807 186.898 z"/>
<path transform="translate(0,0)" fill="rgb(254,141,146)" d="M 930.252 197.738 C 932.404 197.632 931.333 197.393 933.395 198.719 C 934.672 203.981 934.06 209.588 933.884 214.967 C 928.496 220.219 922.995 223.3 916.248 226.385 L 914.462 226.649 L 913.26 225.494 C 912.217 219.869 912.877 213.805 913.053 208.101 C 918.635 204.403 924.469 201.107 930.252 197.738 z"/>
<path transform="translate(0,0)" fill="rgb(0,0,0)" d="M 190.047 584.502 C 195.729 586.744 198.857 590.917 202.833 595.343 C 206.425 593.906 211.373 591.246 215.213 592.488 L 215.906 594.508 C 214.562 599.386 211.082 603.36 208.145 607.408 C 207.826 610.854 207.809 614.322 207.622 617.778 C 206.763 633.633 198.763 623.46 190.517 631.053 C 190.286 631.266 190.063 631.485 189.836 631.701 C 187.425 634.553 184.209 639.05 180.782 640.642 C 178.811 641.558 178.832 641.144 177.029 640.49 C 175.323 635.527 177.085 629.705 176.456 624.483 C 176.075 621.323 172.576 621.014 170.204 619.069 C 168.378 617.572 168.416 617.307 168.153 615.07 C 171.26 611.117 178.462 607.447 182.776 604.578 C 185.977 598.168 187.252 591.1 190.047 584.502 z"/>
<path transform="translate(0,0)" fill="rgb(248,91,87)" d="M 193.212 599.567 C 196.172 602.287 200.294 602.721 202.698 605.963 C 201.154 610.238 200.486 614.221 199.964 618.727 L 190.506 622.737 C 188.744 624.465 187.88 625.448 185.632 626.517 C 184.338 621.748 183.231 616.674 184.244 611.765 C 189.193 608.012 190.682 605.238 193.212 599.567 z"/>
<path transform="translate(0,0)" fill="rgb(0,0,0)" d="M 882.043 214.824 L 885.483 215.022 C 887.351 216.222 888.667 217.254 889.593 219.345 C 892.737 226.445 892.199 238.273 889.426 245.391 C 885.868 254.528 870.681 259.738 862.409 263.6 C 862.208 263.629 862.008 263.684 861.805 263.688 C 859.41 263.731 857.995 263.807 856.431 261.734 C 851.849 255.66 854.444 238.519 855.147 231.071 C 862.516 223.83 872.898 219.439 882.043 214.824 z"/>
<path transform="translate(0,0)" fill="rgb(248,91,87)" d="M 881.966 223.108 C 884.778 227.12 882.441 239.564 881.706 244.417 C 875.904 248.278 869.717 251.176 863.447 254.182 C 860.454 249.269 862.606 240.864 863.283 235.332 C 869.343 230.857 875.444 226.875 881.966 223.108 z"/>
<path transform="translate(0,0)" fill="rgb(0,0,0)" d="M 292.135 528.511 C 293.306 528.618 294.42 528.676 295.568 528.986 C 297.633 529.545 298.492 530.814 299.555 532.501 C 299.714 532.754 300.645 534.301 300.855 534.56 C 304.899 539.524 310.507 536.926 316.036 537.233 L 316.94 538.857 C 315.914 543.646 313.263 547.319 310.685 551.398 C 311.182 557.69 311.324 563.823 311.191 570.132 C 302.373 571.372 299.035 570.401 292.634 577.272 C 289.969 579.86 287.14 583.4 283.479 584.405 C 278.953 581.573 281.611 570.347 280.339 565.326 C 278.874 564.899 277.737 564.705 276.189 564.627 C 275.68 564.601 275.17 564.594 274.66 564.578 C 273.767 562.376 273.588 561.782 274.905 559.507 C 276.579 556.615 280.377 554.325 282.482 551.561 C 287.134 545.454 289.354 535.715 292.135 528.511 z"/>
<path transform="translate(0,0)" fill="rgb(248,91,87)" d="M 293.616 544.314 C 294.679 544.951 295.827 545.724 296.963 546.242 C 299.908 547.584 300.189 547.349 303.217 546.426 C 303.473 546.92 303.758 547.4 303.984 547.908 C 305.795 551.981 306.266 556.392 304.114 560.413 C 301.941 564.475 298.775 564.716 294.681 565.902 L 288.363 572.39 C 287.526 567.983 286.94 563.515 286.266 559.079 C 289.597 554.681 291.466 549.362 293.616 544.314 z"/>
<path transform="translate(0,0)" fill="rgb(255,255,255)" d="M 946.083 69.8509 C 956.877 71.42 982.37 87.5352 993.941 92.9227 C 978.405 100.883 963.561 109.764 948.362 118.316 C 915.613 136.527 883.091 155.142 850.804 174.158 C 809.987 197.877 768.465 220.522 727.408 243.842 C 594.285 317.705 461.741 392.608 329.79 468.545 L 205.876 538.87 C 188.681 548.731 166.553 558.134 152.195 571.846 C 118.41 604.112 128.087 650.814 126.673 692.496 L 125.537 694.086 C 109.289 684.6 93.7377 673.994 77.5802 664.351 C 77.407 638.825 73.9838 606.071 81.7052 581.853 C 87.7161 563.001 98.817 547.924 114.761 536.294 C 125.821 528.226 138.577 521.803 150.499 515.08 L 208.8 482.29 L 401.92 373.704 L 799.124 150.507 C 848.032 123.523 896.564 95.7086 946.083 69.8509 z"/>
<path transform="translate(0,0)" fill="rgb(255,255,255)" d="M 1515.87 1168.54 C 1551.58 1204.91 1600.38 1218.65 1650.3 1220.56 C 1703.36 1222.59 1757.9 1210.39 1797.51 1173.55 C 1797.93 1199.08 1796.12 1224.12 1795.02 1249.59 C 1793.91 1275.6 1795.12 1303.82 1788 1328.97 C 1782.8 1347.33 1773.73 1363.4 1761.83 1378.22 C 1746.44 1396.32 1694.21 1437.27 1669.33 1439.41 C 1642.66 1441.71 1596.09 1413.78 1575.83 1397.58 C 1582.06 1397.16 1588.51 1397.59 1593.3 1393.03 C 1594.15 1390.45 1594.39 1389.19 1593.46 1386.58 C 1589.67 1375.83 1574.98 1360.96 1564.85 1356.37 C 1553.93 1338.33 1547.21 1318.07 1545.19 1297.08 C 1544.32 1287.91 1544.11 1278.7 1544.54 1269.5 C 1545.25 1254.5 1552.39 1214.96 1542.55 1203.9 C 1536.09 1196.64 1525.44 1192.41 1515.98 1192.09 L 1515.87 1168.54 z"/>
<path transform="translate(0,0)" fill="rgb(0,0,0)" d="M 1689.28 1240.14 C 1689.8 1240.28 1690.33 1240.38 1690.84 1240.56 C 1699.66 1243.7 1706.75 1268.59 1709.93 1276.89 C 1717.53 1272.51 1726.66 1268.47 1734.94 1265.49 C 1738.95 1264.05 1742.67 1262.72 1746.68 1264.6 L 1747.47 1267.11 C 1745.16 1278.81 1725.9 1301.34 1718.76 1312.57 C 1720.12 1320.7 1726.65 1344.79 1725.35 1351.42 C 1724.87 1353.87 1724.14 1354.1 1722.24 1355.51 C 1712.52 1356.9 1699.91 1350.89 1690.69 1347.79 L 1684.76 1355.01 C 1680.17 1360.99 1665.14 1383.32 1658.35 1384.66 C 1656.88 1384.95 1657.11 1384.54 1655.77 1383.4 C 1652.86 1374.34 1658.97 1348.65 1660.52 1338.02 C 1652.92 1335.22 1643.52 1332.66 1637.03 1327.77 C 1634.39 1325.78 1633.73 1324.3 1633.38 1321.08 C 1636.94 1313.21 1664.96 1300.62 1673.2 1296.08 C 1679.47 1277.75 1681.57 1258.05 1689.28 1240.14 z"/>
<path transform="translate(0,0)" fill="rgb(248,91,87)" d="M 1692.28 1259.6 C 1697.22 1263.98 1701.85 1282.02 1704.07 1289.12 C 1714.24 1284.54 1724.21 1279.29 1734.25 1274.41 C 1727.05 1287.24 1717.73 1298.99 1709.68 1311.32 C 1711.59 1322.96 1713.12 1334.44 1714.13 1346.2 C 1707.19 1343.72 1696.84 1336.5 1689.69 1336.79 C 1687.97 1336.86 1686.58 1338.97 1685.41 1340.14 C 1679.28 1348.84 1672.75 1356.95 1665.8 1365 C 1667.58 1354.29 1669.15 1343.75 1671.66 1333.17 C 1663.11 1329 1654.24 1325.54 1645.42 1321.97 C 1656.77 1315.82 1668.21 1309.83 1679.73 1304.01 C 1685.25 1289.56 1687.31 1274.21 1692.28 1259.6 z"/>
<path transform="translate(0,0)" fill="rgb(255,255,255)" d="M 1497.58 1619.94 L 1498.48 1620.69 C 1502.78 1632.06 1499.59 1679.3 1500.71 1695.85 C 1512.96 1705.15 1529.29 1712.3 1542.79 1719.91 L 1616.89 1761.5 C 1633.77 1770.86 1651.09 1779.78 1667.41 1790.08 C 1677.41 1785.1 1686.91 1778.88 1696.63 1773.36 L 1752.68 1741.8 C 1767.41 1733.53 1826.04 1703.24 1834.9 1694.67 C 1834.92 1670.57 1834.62 1646.42 1835.33 1622.32 C 1856.36 1632.54 1876.34 1644.6 1896.53 1656.33 C 1916.69 1668.04 1937.03 1679.47 1956.8 1691.84 C 1929.69 1706.22 1903.36 1721.86 1876.7 1737.04 L 1666.12 1856.38 C 1628.21 1837.74 1591.76 1815.29 1554.79 1794.81 C 1493.6 1760.91 1431.42 1727.55 1371.86 1690.88 C 1382.42 1683.19 1395.19 1677.07 1406.52 1670.45 C 1436.39 1652.99 1466.68 1635.5 1497.58 1619.94 z"/>
<path transform="translate(0,0)" fill="rgb(255,255,255)" d="M 77.0576 674.605 C 93.8653 684.054 109.579 695.307 126.604 704.486 L 126.941 1209.65 L 126.631 1359.83 C 126.495 1387.44 124.509 1416.32 127.075 1443.79 C 115.427 1438.85 89.4632 1425.77 81.0786 1417.11 C 76.7385 1412.62 76.371 1407.57 75.9911 1401.54 C 74.3496 1375.53 75.7004 1348.56 75.7137 1322.45 L 75.8081 1167.53 L 77.0576 674.605 z"/>
<path transform="translate(0,0)" fill="rgb(255,255,255)" d="M 816.744 221.127 C 816.644 222.328 816.777 221.793 816.264 223.017 C 805.671 248.304 814.699 269.865 804.218 292.993 C 800.322 301.591 793.151 310.072 785.361 315.523 C 774.496 323.125 760.596 328.713 748.879 335.114 L 653.709 387.16 C 582.907 427.145 511.758 466.512 440.271 505.259 C 426.125 512.836 412.039 520.526 398.016 528.329 C 387.431 534.233 376.499 541.408 365.073 545.438 C 360.563 547.03 357.514 546.768 353.197 544.847 C 352.979 544.532 352.746 544.226 352.543 543.901 C 347.818 536.317 348.245 527.07 350.269 518.66 C 354.429 501.376 366.186 481.068 380.025 469.724 C 393.762 458.463 412.743 450.382 428.305 441.849 L 510.209 396.182 L 641.467 321.808 C 700.278 288.871 759.331 256.475 816.744 221.127 z"/>
<path transform="translate(0,0)" fill="rgb(255,255,255)" d="M 1366.93 1699.47 C 1397.26 1717.79 1428.98 1734.15 1459.88 1751.53 L 1660.97 1864.44 L 1660.95 1965.46 C 1562.21 1912.09 1464.09 1857.6 1366.59 1802.01 C 1364.35 1768.27 1366.48 1733.32 1366.93 1699.47 z"/>
<path transform="translate(0,0)" fill="rgb(255,255,255)" d="M 1959.29 1700.84 C 1960.2 1701.06 1959.58 1700.85 1960.9 1701.96 L 1961.03 1801.09 L 1672.46 1964.28 L 1671.95 1964.42 L 1670.86 1963.51 C 1669.86 1952.87 1670.67 1941.68 1670.66 1930.98 C 1670.56 1908.91 1670.62 1886.84 1670.84 1864.77 C 1766.6 1809.46 1862.76 1754.81 1959.29 1700.84 z"/>
<path transform="translate(0,0)" fill="rgb(255,255,255)" d="M 1650.54 1065.42 C 1674.37 1064.34 1698.19 1067.45 1720.94 1074.63 C 1753.79 1084.93 1779.38 1100.99 1795.58 1131.9 C 1793.65 1135.39 1791.34 1138.66 1788.7 1141.65 C 1761 1173.54 1710.9 1184.05 1670.83 1186.74 C 1647.84 1187.15 1625.86 1184.98 1603.43 1179.96 C 1571.92 1172.92 1540.02 1158.75 1522.09 1130.62 C 1525.75 1123.62 1529.97 1116.88 1535.17 1110.91 C 1563.59 1078.27 1609.24 1068.22 1650.54 1065.42 z"/>
<path transform="translate(0,0)" fill="rgb(255,255,255)" d="M 883.826 746.623 L 920.517 770.579 C 921.718 792.839 920.82 815.632 920.881 837.953 L 921.144 971.481 C 921.231 1081.65 922.59 1191.96 921.44 1302.11 C 909.044 1295.39 895.609 1289.3 884.12 1281.13 C 882.155 1103.03 883.081 924.739 883.826 746.623 z"/>
<path transform="translate(0,0)" fill="rgb(255,255,255)" d="M 932.794 568.878 C 935.799 572.931 934.173 603.056 934.114 610.141 C 923.421 617.378 912.034 622.141 902.599 631.31 C 880.282 652.999 875.167 678.198 874.92 707.918 C 838.304 715.626 814.96 745.463 796.434 775.503 C 790.437 785.227 784.897 796.358 776.031 803.772 L 775.785 803.553 C 773.289 797.73 774.95 672.954 774.958 656.257 C 826.474 625.515 880.296 597.953 932.794 568.878 z"/>
<path transform="translate(0,0)" fill="rgb(0,0,0)" d="M 858.072 629.174 C 861.932 628.885 865.719 628.623 869.37 630.164 C 874.346 632.265 878.005 636.071 879.82 641.162 C 883.584 651.723 880.568 664.031 876.136 673.934 C 870.563 686.388 861.678 696.907 848.721 701.87 C 845.386 702.122 841.93 702.377 838.678 701.402 C 833.731 699.917 829.346 696.583 827.164 691.845 C 822.825 682.427 824.82 670.302 828.49 661.003 C 834.084 646.83 844.011 635.332 858.072 629.174 z"/>
<path transform="translate(0,0)" fill="rgb(255,255,255)" d="M 857.375 638.962 C 859.26 638.976 861.23 638.965 863.065 639.444 C 866.677 640.41 869.71 642.864 871.41 646.194 C 874.589 652.337 872.868 660.707 870.668 666.875 C 866.669 678.087 859.806 687.164 848.923 692.167 C 847.751 692.371 846.699 692.597 845.489 692.599 C 842.246 692.606 838.252 690.954 836.193 688.368 C 832.617 683.877 833.57 676.453 834.611 671.256 C 837.271 657.985 846.152 646.214 857.375 638.962 z"/>
<path transform="translate(0,0)" fill="rgb(255,255,255)" d="M 1682.1 1446.1 L 1683.08 1446.11 C 1683.43 1446.39 1683.95 1446.56 1684.15 1446.97 C 1685.23 1449.27 1684.71 1463.07 1684.86 1466.64 C 1685.61 1483.63 1686.48 1501.08 1690.87 1517.59 C 1700.82 1554.92 1718.81 1569.21 1750.65 1587.54 C 1723.93 1602.9 1695.88 1620.98 1667.56 1632.7 C 1663.03 1630.92 1658.69 1628.66 1654.32 1626.51 C 1630.08 1614.48 1605.59 1602.23 1582.09 1588.84 C 1595.99 1581.58 1609.53 1574.33 1620.74 1563.15 C 1651.12 1532.86 1653.05 1487.22 1653.11 1446.8 C 1664.01 1449.48 1671.39 1449.74 1682.1 1446.1 z"/>
<path transform="translate(0,0)" fill="rgb(255,255,255)" d="M 1509.53 1633.26 C 1525.47 1640.87 1540.62 1650.86 1556.09 1659.46 L 1662.9 1718.89 L 1662.91 1776.56 C 1647.7 1769.27 1632.86 1759.96 1618.01 1751.86 C 1581.66 1732.04 1545.56 1711.77 1509.71 1691.06 C 1509.77 1671.79 1509.71 1652.53 1509.53 1633.26 z"/>
<path transform="translate(0,0)" fill="rgb(255,255,255)" d="M 1824.66 1633.98 C 1827.61 1638.49 1825.55 1681.84 1825.35 1690.17 C 1811.27 1699.07 1796.18 1706.78 1781.69 1715.03 C 1745.45 1735.66 1708.95 1755.8 1672.99 1776.92 C 1669.63 1770.16 1671.87 1730.02 1671.93 1719.91 C 1686.21 1710.23 1702.02 1702.12 1717.05 1693.65 C 1752.77 1673.49 1789.1 1654.43 1824.66 1633.98 z"/>
<path transform="translate(0,0)" fill="rgb(255,255,255)" d="M 1639.49 1028.39 C 1665.82 1024.45 1701.42 1030.06 1726.75 1037.87 C 1752.84 1045.9 1785.3 1061.91 1798.24 1087.51 C 1804.37 1099.65 1803.3 1111.09 1799.27 1123.56 C 1796.25 1117.01 1793.35 1111.3 1788.73 1105.67 C 1765.01 1076.82 1722.28 1061.91 1686.24 1058.19 C 1662.19 1054.67 1632.84 1056.19 1609.33 1061.41 C 1572.99 1069.47 1537.77 1087.21 1517.4 1119.36 C 1516.98 1116.92 1516.53 1114.45 1516.3 1111.99 C 1515.03 1098.26 1520.22 1085.22 1528.84 1074.75 C 1554.62 1043.42 1601.08 1032.18 1639.49 1028.39 z"/>
<path transform="translate(0,0)" fill="rgb(255,255,255)" d="M 1536.67 1214.86 C 1539.94 1221.8 1538.24 1235.33 1538.1 1243.12 C 1517.96 1257.57 1489.82 1264.67 1471.52 1281.02 C 1474.82 1301.61 1483.52 1321.91 1497.57 1337.48 C 1515.78 1357.66 1539.78 1366.54 1566.41 1367.84 L 1584 1386.85 C 1574.83 1388.5 1565.75 1389.07 1556.47 1389.56 C 1531.14 1390.47 1504.89 1383.78 1485.58 1366.75 C 1458.55 1342.92 1446.46 1302.76 1444.5 1267.87 C 1475.47 1252.32 1507.17 1233.11 1536.67 1214.86 z"/>
<path transform="translate(0,0)" fill="rgb(255,255,255)" d="M 1894.86 1127 C 1895.03 1128.24 1895.04 1127.94 1895.01 1129.12 C 1893.63 1184.63 1862.43 1257.69 1827.55 1300.93 C 1818.55 1312.08 1807.8 1321.62 1797.43 1331.45 C 1799.89 1320.6 1801.48 1309.57 1802.2 1298.47 C 1809.22 1289.52 1816.14 1280.49 1822.94 1271.37 C 1841.11 1246.38 1854.65 1221.12 1863.36 1191.4 C 1864.39 1187.91 1867.06 1181.43 1866.5 1178.07 C 1866.05 1175.43 1865.11 1174.84 1863.12 1173.39 C 1852.21 1172.99 1820.63 1194.33 1808.26 1199.77 L 1807.01 1200.31 L 1807.1 1172.71 C 1818.81 1168.16 1829.59 1161.3 1840.66 1155.41 L 1894.86 1127 z"/>
<path transform="translate(0,0)" fill="rgb(255,255,255)" d="M 1790.45 1600.04 C 1803.53 1602.47 1817.15 1612.6 1828.31 1619.62 C 1816.43 1630.72 1771.89 1652.93 1755.36 1662.09 C 1726.07 1678.33 1697.11 1695.77 1667.27 1710.95 C 1619.31 1685.33 1571.88 1658.71 1525.01 1631.12 C 1520.01 1628.41 1513.64 1625.75 1509.21 1622.24 C 1507.13 1620.59 1506.7 1619.49 1506.4 1616.94 C 1508.74 1613.8 1511.39 1613.1 1514.85 1611.52 C 1529.68 1624.01 1550.49 1632.85 1567.49 1642.33 C 1600.43 1660.72 1633.16 1679.69 1666.75 1696.86 C 1689.6 1688.27 1711.96 1673.31 1733.37 1661.51 C 1754.46 1649.88 1777.64 1639.07 1797.56 1625.59 C 1800.27 1623.75 1803.31 1621.89 1803.9 1618.51 C 1805.58 1608.9 1795.35 1607.67 1791.29 1601.43 C 1791 1600.97 1790.73 1600.5 1790.45 1600.04 z"/>
<path transform="translate(0,0)" fill="rgb(255,255,255)" d="M 1516 1139.77 C 1520.17 1144.26 1523.82 1149.16 1528.17 1153.5 C 1558.88 1184.17 1618.81 1196.81 1660.77 1196.72 C 1710.77 1196.62 1761.47 1182.48 1797.38 1146.55 L 1795.67 1159.03 C 1793.47 1162.8 1791.17 1166.46 1788.14 1169.63 C 1759.12 1199.91 1706.47 1210.48 1666.31 1211.19 C 1619.82 1212.01 1562.88 1202.25 1528.3 1168.24 C 1519.63 1159.72 1516.07 1151.84 1516 1139.77 z"/>
<path transform="translate(0,0)" fill="rgb(255,255,255)" d="M 1543.87 1608.9 C 1552.77 1607.11 1650.32 1666.22 1666.49 1674.16 C 1687.1 1666 1774.92 1609.77 1787.75 1611.53 C 1789.99 1613.2 1791.78 1614.32 1792.85 1617.02 C 1790.94 1619.41 1788.2 1620.72 1785.63 1622.32 L 1711.99 1663.14 C 1697.26 1671.32 1682.69 1680.1 1667.29 1686.97 C 1644.07 1675.87 1621.62 1662.4 1599.24 1649.7 C 1577.83 1637.56 1556.12 1625.92 1534.88 1613.49 L 1543.87 1608.9 z"/>
<path transform="translate(0,0)" fill="rgb(248,91,87)" d="M 873.015 717.161 C 875.507 721.997 873.983 744.459 873.991 751.219 C 847.54 764.359 821.881 779.213 796.361 794.065 L 795.581 793.286 C 795.814 792.313 795.878 791.883 796.35 790.879 C 799.515 784.145 804.34 777.558 808.456 771.319 C 826.029 744.684 842.574 727.911 873.015 717.161 z"/>
<path transform="translate(0,0)" fill="rgb(255,255,255)" d="M 1762.71 1590.93 C 1769.39 1593.31 1775.99 1595.96 1782.47 1598.85 C 1770.93 1609.28 1753.67 1616.26 1739.99 1623.75 L 1684.52 1654.74 L 1671.22 1662.41 L 1671.38 1642.14 C 1701.92 1625.24 1732.36 1608.17 1762.71 1590.93 z"/>
<path transform="translate(0,0)" fill="rgb(255,255,255)" d="M 1569.85 1592.88 C 1576.3 1593.17 1651.32 1635.66 1662.42 1641.88 L 1662.53 1661.24 L 1653.06 1656.5 C 1619.53 1639.22 1586.87 1619.87 1553.71 1601.82 C 1558.78 1598.36 1564.42 1595.71 1569.85 1592.88 z"/>
<path transform="translate(0,0)" fill="rgb(255,255,255)" d="M 1507.93 1270.02 C 1509.86 1272.11 1511.61 1302.62 1512.93 1308.87 C 1516.07 1323.78 1523.06 1337.23 1529.95 1350.66 C 1524.4 1347.5 1519.21 1343.89 1513.95 1340.29 C 1496.67 1326.62 1487.21 1307.42 1481.07 1286.64 C 1488.85 1279.82 1498.93 1275.05 1507.93 1270.02 z"/>
<path transform="translate(0,0)" fill="rgb(255,255,255)" d="M 1533.81 1255.92 L 1534.91 1256.01 C 1537.06 1259.85 1534.91 1281.5 1535.33 1287.85 C 1536.42 1304.1 1539.19 1320.27 1544.65 1335.66 C 1546.78 1341.67 1553.69 1351.29 1553.57 1357.04 C 1550.88 1357.55 1548.86 1356.14 1546.54 1354.97 C 1542.39 1350.55 1538.93 1346.14 1535.95 1340.84 C 1526.39 1323.81 1513.43 1285.17 1519.75 1266.13 C 1521.55 1260.71 1529.06 1258.31 1533.81 1255.92 z"/>
<path transform="translate(0,0)" fill="rgb(255,255,255)" d="M 1519.82 1201 C 1523.9 1203.14 1527.51 1205.95 1531.21 1208.67 C 1500.8 1226.05 1470.39 1243.85 1439.28 1259.95 C 1435.06 1258.65 1430.95 1256.72 1426.86 1255.03 C 1456.82 1235.32 1489.27 1219.73 1519.82 1201 z"/>
<path transform="translate(0,0)" fill="rgb(255,255,255)" d="M 1878.22 1110.8 C 1883.18 1111.1 1887.93 1115.04 1891.98 1117.68 C 1868.89 1131.7 1843.89 1143.16 1820.23 1156.3 C 1816.99 1157.93 1813.62 1159.36 1810.32 1160.87 C 1809.96 1156.25 1809.81 1151.59 1809.57 1146.96 C 1832.27 1134.57 1855.16 1122.51 1878.22 1110.8 z"/>
<path transform="translate(0,0)" fill="rgb(255,255,255)" d="M 1854.72 1184.91 C 1854.78 1185.23 1854.87 1185.55 1854.89 1185.88 C 1855.19 1189.79 1853.17 1195.38 1851.97 1199.14 C 1842.53 1228.8 1823.82 1257.77 1803.49 1281.26 C 1803.12 1277.97 1803.25 1274.47 1803.14 1271.15 C 1821.53 1244.99 1833.13 1220.21 1844.88 1190.85 L 1854.72 1184.91 z"/>
<path transform="translate(0,0)" fill="rgb(255,255,255)" d="M 1421 1261.61 L 1434.75 1267.82 C 1436.16 1301.24 1447.49 1335.43 1468.89 1361.24 C 1468.57 1361.05 1468.25 1360.88 1467.94 1360.68 C 1464.34 1358.23 1461.11 1354.43 1458.07 1351.32 C 1433.85 1326.5 1427.94 1294.24 1421 1261.61 z"/>
<path transform="translate(0,0)" fill="rgb(255,255,255)" d="M 1709.55 1539.91 C 1725.42 1548.14 1766.41 1570.39 1778.44 1580.64 L 1777.42 1582.84 C 1773.4 1584.35 1767.99 1583.9 1763.71 1584.01 C 1742.48 1572.39 1721.09 1562.44 1709.55 1539.91 z"/>
<path transform="translate(0,0)" fill="rgb(255,255,255)" d="M 1830.52 1197.95 L 1831.21 1198.55 C 1831.92 1208.95 1812.03 1241.83 1805.46 1252.13 C 1803.05 1249.42 1805.42 1217.01 1805.74 1211.15 C 1814.16 1207.01 1822.34 1202.54 1830.52 1197.95 z"/>
</svg>