<?xml version="1.0" encoding="utf-8"?>
<svg height="360" preserveAspectRatio="xMidYMid meet" style="display: block;" version="1.1" viewBox="0 0 260 360" width="260" xmlns="http://www.w3.org/2000/svg">
<path d="M 0 0 L 2048 0 L 2048 2048 L 0 2048 L 0 0 z" fill="none" transform="translate(0,0)"/>
<path d="M 360.198 397.381 C 374.052 396.62 387.928 398.395 401.143 402.619 C 430.843 411.809 456.948 432.104 471.289 459.901 C 475.57 468.197 484.684 488.071 481.772 497.052 C 476.672 500.311 468.117 497.074 462.507 495.883 C 465.466 535.088 468.703 584.505 444.571 618.229 C 503.652 635.255 528.29 703.388 549.468 754.79 C 560.588 781.777 561.798 796.266 585.906 815.993 C 591.988 820.969 604.996 831.999 613.12 832.176 C 617.391 832.269 621.893 830.494 625.775 828.834 C 641.598 822.071 657.095 813.106 672.307 805.03 C 696.262 792.11 720.415 779.561 744.758 767.388 C 752.661 763.433 766.402 754.625 775.249 754.752 C 779.784 754.817 782.19 758.134 785.037 761.181 C 785.543 772.708 783.615 783.408 781.462 794.674 C 873.283 777.322 966.805 770.66 1060.16 774.819 C 1083.38 775.792 1106.45 778.248 1129.62 779.933 C 1132.76 777.921 1136.08 775.57 1139.61 774.314 C 1145.91 772.075 1153.76 772.8 1159.66 775.855 C 1167.12 779.725 1170.93 785.394 1173.4 793.194 C 1283.7 815.568 1403.57 858.676 1484.26 940.33 C 1522.63 979.157 1539.76 1018.68 1539.4 1073.07 C 1554.48 1065.22 1569.3 1056.74 1586.02 1052.98 C 1585.72 1048.1 1585.25 1043.22 1584.87 1038.34 C 1574.52 1035.65 1563.89 1033.53 1554.96 1027.28 C 1527.57 1008.1 1525.62 966.59 1527.4 936.485 C 1528.12 924.371 1530.22 911.352 1529.84 899.299 C 1529.64 892.703 1526.45 885.73 1525.49 879.061 C 1523.22 863.249 1529.87 845.524 1539.18 832.818 C 1553.4 813.431 1577.16 802.2 1600.53 798.896 C 1630.75 794.623 1658.5 802.183 1682.86 820.522 C 1706.47 838.298 1719.8 865.816 1723.85 894.69 C 1728.45 927.363 1718.67 962.554 1698.54 988.62 C 1692.41 996.558 1684.24 1002.9 1678.39 1011.04 C 1676.42 1013.78 1675 1016.17 1675.53 1019.63 C 1679.73 1021.02 1685.14 1018.92 1689.52 1018.61 C 1703.19 1017.65 1722.21 1030.36 1732.49 1038.94 C 1759.86 1061.78 1770.31 1090.14 1773.61 1124.73 C 1789.52 1133.78 1806.98 1139.57 1821.39 1151.23 C 1840.88 1167.02 1852.64 1192.79 1854.98 1217.51 C 1857.18 1240.78 1856.19 1264.64 1856.16 1288 C 1856.17 1326.11 1855.98 1364.22 1855.59 1402.33 L 1855.28 1487.02 C 1855.26 1502.18 1856.03 1517.87 1854.82 1532.97 C 1854.48 1537.2 1853.51 1540.42 1850.86 1543.78 C 1848.3 1547.01 1844.64 1549.06 1841.13 1551.1 C 1823.05 1561.62 1803.61 1570.25 1785.08 1579.99 L 1669.95 1640.94 C 1662.4 1644.9 1604.09 1672.85 1601.65 1675.81 C 1603.52 1686.86 1598.09 1701.94 1594.27 1712.26 C 1641.38 1709.09 1691.33 1712.59 1737 1724.96 C 1778.58 1736.22 1828.65 1758.95 1850.74 1798.24 C 1859.78 1814.31 1862.84 1832.33 1857.66 1850.21 C 1848.96 1880.18 1823.34 1901.59 1796.97 1916.17 C 1716.3 1960.79 1597.97 1963.14 1510.97 1937.6 C 1470.88 1925.84 1424.97 1905.9 1404.19 1867.2 C 1395.21 1850.48 1393.59 1831.46 1399.05 1813.33 L 1397.44 1813.14 C 1369.11 1809.79 1323.05 1790.13 1305.56 1766.89 C 1301.71 1761.78 1298.36 1754.36 1299.69 1747.81 C 1300.38 1744.37 1302.47 1741.86 1305.4 1740.05 C 1317.82 1732.38 1334.59 1736.03 1347.91 1738.65 C 1344.91 1718.25 1337.09 1696.74 1330.96 1676.94 C 1320.84 1644.37 1311.1 1611.67 1301.76 1578.86 C 1294.26 1552.89 1285.96 1526.49 1282.18 1499.66 C 1279.68 1481.84 1277.92 1461.33 1284.41 1444.11 C 1286.89 1437.52 1290.76 1431.33 1296.38 1426.97 C 1312.69 1414.32 1335.97 1406.9 1354.94 1398.84 C 1384.5 1386.28 1414.31 1374.1 1443.63 1360.99 C 1401.55 1356.98 1361.4 1327.47 1328.53 1302.63 C 1286.78 1318.35 1242.93 1329.09 1199.26 1337.72 C 1147.72 1347.75 1096.77 1352.93 1044.5 1356.68 C 1043.55 1387.92 1044.65 1419.37 1044.74 1450.62 C 1044.95 1527.32 1045.83 1604.21 1044.34 1680.88 C 1085.47 1688.54 1129.28 1698.65 1164.67 1721.89 C 1185.34 1735.46 1203.65 1754.52 1208.53 1779.52 C 1209.91 1786.6 1209.99 1793.9 1210.23 1801.09 C 1210.87 1820.4 1209.88 1835.34 1198.61 1851.9 C 1170.21 1893.64 1113.07 1913.14 1065.51 1922.09 C 984.011 1937.43 879.7 1929.5 809.92 1881.37 C 788.901 1866.88 770.439 1846.9 765.873 1820.99 C 761.785 1797.79 766.222 1773.51 779.959 1754.26 C 811.252 1710.42 882.473 1690.07 932.769 1681.98 L 932.875 1356.41 C 883.096 1353.24 831.666 1348.05 782.952 1337.14 C 783.98 1353.04 789.03 1427.54 786.198 1437.7 C 795.558 1451.17 805.232 1464.42 815.212 1477.43 C 825.793 1491.03 837.796 1504.66 846.207 1519.72 C 850.195 1526.86 854.071 1536.03 851.433 1544.26 C 850 1548.85 846.747 1552.66 842.433 1554.8 C 832.144 1559.9 817.576 1557.13 807.121 1553.44 C 785.066 1545.67 712.796 1499.95 703.112 1478.06 C 699.006 1468.77 700.613 1457.86 704.045 1448.67 C 698.19 1434.64 695.462 1419.11 692.009 1404.34 C 684.263 1371.21 678.013 1337.59 669.072 1304.78 C 649.03 1298.85 616.974 1283.35 597.343 1273.93 C 600.122 1367.22 599.124 1460.71 601.852 1554 C 601.979 1558.36 599.085 1565.17 600.152 1568.96 C 602.283 1576.53 610.238 1585.71 615.026 1591.93 C 627.941 1608.69 656.105 1641.01 660.485 1661.45 C 661.695 1667.1 660.952 1672.46 657.51 1677.18 C 654.19 1681.74 649.05 1684.07 643.582 1684.9 C 616.182 1689.02 585.298 1668.38 564.311 1653.32 C 550.026 1643.08 522.96 1623.37 514.495 1608.79 C 512.418 1605.21 511.577 1601.21 511.194 1597.13 C 510.308 1587.67 513.457 1578.02 513.069 1568.47 C 512.115 1545.03 507.657 1520.34 503.848 1497.17 C 425.771 1517.82 358.559 1523.16 279.488 1502.38 C 234.436 1490.54 182.324 1469.17 157.932 1426.77 C 148.156 1409.78 144.99 1390.62 150.309 1371.59 C 158.465 1342.4 185.534 1320.05 210.949 1305.82 C 288.751 1262.26 394.233 1256.55 479.098 1280.44 C 476.42 1263.89 475.157 1247.08 473.565 1230.4 C 454.257 1237.47 435.474 1247.85 415.955 1253.88 C 399.067 1259.09 388.873 1257.83 373.379 1249.5 C 341.005 1232.11 309.674 1212.65 277.433 1194.99 L 222.308 1165.38 C 211.606 1159.59 199.452 1154.11 190.124 1146.28 C 178.843 1136.82 169.734 1123.49 165.506 1109.35 C 159.522 1089.33 161.881 1065.57 162.022 1044.83 C 162.221 1024.85 162.291 1004.86 162.233 984.875 L 161.977 873.852 C 161.916 844.626 160.849 815.395 165.126 786.384 C 169.311 758.201 178.455 730.981 192.134 705.987 C 211.176 670.528 242.097 634.828 278.286 616.176 C 291.105 609.569 304.709 605.35 318.445 601.154 C 301.757 585.782 288.516 560.184 279.904 539.52 C 270.285 516.439 263.033 487.8 273.575 463.734 C 280.831 447.17 292.429 440.677 308.375 434.413 C 311.289 427.526 314.092 421.138 319.008 415.371 C 329.61 402.934 344.641 398.925 360.198 397.381 z" fill="rgb(34,33,35)" transform="translate(0,0)"/>
<path d="M 983.524 782.458 C 1027.4 781.464 1071.29 783.114 1114.96 787.397 C 1096.54 799.595 1076.34 809.489 1057.08 820.328 L 933.365 891.154 C 916.102 901.129 897.71 910.116 881.061 921.024 C 876.609 923.941 870.104 927.939 867.71 932.761 C 857.023 954.283 866.646 971.083 874.272 991.301 C 862.397 998.847 850.167 1005.82 837.624 1012.2 C 822.052 1020.26 802.992 1028.14 790.03 1039.99 C 789.943 1043.9 789.47 1048.86 790.614 1052.63 C 791.762 1056.41 794.441 1058.57 797.531 1060.79 C 814.92 1073.24 836.733 1084.04 855.369 1095.06 L 902.969 1123 C 910.925 1127.71 918.719 1133.08 926.979 1137.21 C 933.2 1140.32 940.57 1142.73 947.34 1140.39 C 961.87 1135.37 975.06 1126.77 988.5 1119.46 L 1055.85 1083.09 L 1164.16 1024.68 C 1183 1014.64 1203.94 1005.71 1221.58 993.916 C 1226.14 990.876 1229.21 987.324 1231.54 982.342 C 1233.51 978.114 1235.53 973.249 1234.88 968.502 C 1232.48 950.928 1219.11 921.056 1212.49 903.035 L 1176.02 802.547 C 1285.41 826.823 1430.06 876.147 1498.79 970.508 C 1521.43 1001.6 1535.58 1039.34 1529.34 1078.16 C 1511.85 1092.65 1495.31 1106.06 1482.14 1124.99 C 1475.75 1134.18 1471.34 1144.86 1463.69 1153.12 C 1446.88 1171.26 1423.28 1185.12 1402.48 1198.12 C 1384.96 1208.46 1366.02 1220.77 1346.64 1227.07 C 1339.19 1222.08 1332.37 1215.58 1323.43 1213.52 C 1318.72 1205.11 1313.64 1196.92 1307.4 1189.55 C 1300.28 1181.14 1286.44 1166.84 1274.93 1165.92 C 1273.54 1166.57 1272.87 1166.51 1272.22 1168.05 C 1268.9 1175.91 1276.01 1189.05 1279.15 1196.31 C 1266.23 1190.73 1226.91 1170.62 1215.15 1173.63 C 1212.97 1174.18 1210.95 1175.29 1209.97 1177.39 C 1208.06 1181.46 1209.25 1186.17 1210.66 1190.23 C 1215.89 1205.28 1236.66 1236.53 1249.21 1245.98 C 1257.31 1252.08 1267.11 1256.12 1276.22 1260.5 C 1247.99 1268.24 1219.83 1276.22 1191.13 1282.1 C 1046.02 1311.86 902.821 1307.06 758.996 1273.35 C 655.58 1249.11 515.674 1187.41 458.028 1093.91 C 434.867 1056.34 429.32 1021.48 439.639 978.653 C 455.765 987.376 473.601 993.784 490.314 1001.41 C 510.13 1010.44 536.028 1024.79 556.314 1030.46 C 561.738 1031.97 567.68 1030.08 572.751 1028.03 C 595.703 1018.77 622.925 1001.82 645.214 989.936 C 681.006 970.851 717.729 953.024 752.704 932.474 C 757.926 916.812 760.187 899.665 763.435 883.493 L 779.455 804.328 C 842.739 788.727 918.378 784.042 983.524 782.458 z" fill="rgb(254,254,254)" transform="translate(0,0)"/>
<path d="M 1765.61 1144.35 C 1769.87 1143.73 1773.98 1143.82 1778.26 1144.18 C 1797.58 1145.77 1815.1 1155.38 1827.39 1170.29 C 1838 1183.16 1843.1 1197.18 1845.58 1213.49 C 1848.89 1235.3 1847.26 1258.93 1847.26 1280.97 L 1846.92 1398.1 L 1846.66 1490.32 C 1846.58 1505.97 1847.32 1522.17 1845.84 1537.73 C 1830.53 1549.02 1801.01 1562.06 1783.3 1571.29 C 1741.89 1593.29 1700.35 1615.04 1658.67 1636.53 C 1639.53 1646.16 1620.79 1656.43 1601.8 1666.34 C 1605.33 1637.19 1603.19 1604.91 1603.28 1575.39 L 1603.59 1396.28 C 1603.71 1367.47 1600.84 1335.38 1607.31 1307.3 C 1614.83 1274.61 1632.55 1243.17 1653.1 1216.96 C 1680.22 1182.38 1720.58 1149.68 1765.61 1144.35 z" fill="rgb(254,254,254)" transform="translate(0,0)"/>
<path d="M 1602.05 1720.58 C 1671.25 1714.78 1764.97 1730.09 1819.41 1774.21 C 1835.47 1787.22 1848.93 1805.9 1850.97 1826.95 C 1852.73 1845.23 1845.45 1863.12 1833.7 1876.86 C 1792.32 1925.28 1712.24 1940.08 1651.5 1944.49 C 1587.02 1948.51 1487.72 1934.54 1437.1 1892.47 C 1420.93 1879.03 1405.93 1860.8 1404.25 1839 C 1402.79 1820.03 1412.36 1803 1424.63 1789.31 C 1466.29 1742.83 1541.74 1723.93 1602.05 1720.58 z" fill="rgb(254,254,254)" transform="translate(0,0)"/>
<path d="M 1152.73 786.875 C 1155.16 786.823 1157.95 786.708 1160.1 788.004 C 1161.73 788.984 1162.69 790.449 1163.37 792.16 C 1178.72 830.835 1191.82 870.643 1205.86 909.829 C 1212.8 929.21 1222.73 949.799 1227.13 969.8 C 1225.63 974.659 1223.96 980.629 1219.89 984.035 C 1206.9 994.918 1169.86 1011.63 1152.68 1020.99 L 953.973 1128.94 C 950.142 1130.93 946.09 1132.57 942.145 1134.32 C 941.829 1133.74 941.506 1133.16 941.198 1132.58 C 936.754 1124.11 933.918 1114.17 930.712 1105.14 C 923.236 1084.07 916.407 1062.84 909.259 1041.67 C 900.449 1015.58 889.231 988.95 882.582 962.271 C 881.323 957.217 879.55 949.811 881.336 944.86 C 883.141 939.857 886.742 936.202 891.011 933.232 C 901.698 925.799 914.022 920.196 925.322 913.726 C 951.006 898.783 976.871 884.153 1002.91 869.841 L 1090.17 820.964 C 1110.79 809.323 1131.24 796.842 1152.73 786.875 z" fill="rgb(254,254,254)" transform="translate(0,0)"/>
<path d="M 1145.12 804.906 C 1148.12 805.386 1150.26 806.344 1152.05 808.857 C 1161.08 821.522 1166.83 846.381 1172.48 861.584 C 1180.81 883.522 1188.95 905.53 1196.91 927.607 C 1200.49 937.585 1204.7 947.772 1207.43 958.004 C 1208.6 962.377 1209.4 966.533 1208.65 971.047 C 1205.19 975.991 1200.33 979.438 1195.28 982.615 C 1184.28 989.524 1172.41 995.441 1161.01 1001.7 L 1090.16 1040.16 C 1045.38 1064.48 1001.1 1090.35 955.275 1112.66 C 954.441 1112.98 952.807 1113.66 951.954 1113.76 C 950.545 1113.92 949.229 1113.48 948.226 1112.53 C 946.337 1110.74 945.384 1108.64 944.528 1106.22 C 934.428 1077.66 925.813 1048.38 916.163 1019.63 C 910.47 1002.67 894.122 965.87 893.379 949.818 C 895.061 945.742 899.78 942.506 903.338 940.124 C 912.351 934.089 922.381 929.117 931.813 923.732 C 955.517 910.196 979.487 897.211 1003.37 883.997 C 1050.72 857.794 1097.3 830.336 1145.12 804.906 z" fill="rgb(34,33,35)" transform="translate(0,0)"/>
<path d="M 1146.3 810.875 C 1147.18 811.377 1147.44 811.442 1148.16 812.341 C 1151.11 815.981 1198 945.146 1201.82 958.419 C 1202.9 962.203 1203.65 965.74 1202.91 969.637 C 1200.1 972.723 1196.88 975.014 1193.34 977.195 C 1181.83 984.285 1169.42 990.461 1157.6 997.042 C 1124.85 1015.2 1091.91 1033.03 1058.8 1050.52 C 1024.25 1069.13 990.081 1090.22 954.593 1106.84 L 951.678 1107.48 C 949.197 1105.67 948.763 1102.42 947.765 1099.55 C 937.31 1069.49 928.645 1038.78 918.302 1008.67 C 911.796 989.724 902.221 970.561 898.081 950.962 C 912.686 938.069 949.125 920.153 967.792 909.61 C 1027 876.164 1086.5 843.251 1146.3 810.875 z" fill="rgb(254,254,254)" transform="translate(0,0)"/>
<path d="M 980.484 983.95 C 978.862 980.504 977.397 977.388 976.635 973.642 C 978.035 966.765 985.707 958.725 990.937 954.096 C 994.073 951.319 996.719 949.304 1001.05 949.505 C 1004.51 951.283 1008.42 953.285 1009.93 957.145 C 1013.22 965.556 1000.39 976.123 997.414 983.48 C 996.285 986.273 996.031 989.176 997.81 991.788 C 1000.71 996.038 1008.16 996.889 1012.75 997.301 C 1017.7 996.628 1022.61 995.859 1027.62 995.778 C 1029.2 1002.09 1032.6 1010.13 1028.67 1016.14 C 1025.32 1021.26 1015.69 1024.07 1010.19 1026.47 C 1008.24 1023.09 1005.85 1019.59 1004.53 1015.9 C 1000.81 1017.04 996.918 1017.73 993.129 1018.65 L 991.271 1022.35 L 989.539 1022.82 C 989.184 1022.75 973.683 1012.54 972.712 1011.77 C 970.255 1009.81 968.171 1007.1 968.052 1003.84 C 967.808 997.131 976.16 988.694 980.484 983.95 z" fill="rgb(34,33,35)" transform="translate(0,0)"/>
<path d="M 978.158 993.293 C 983.459 994.598 988.925 995.09 994.343 995.684 C 994.292 997.395 994.356 998.996 994.534 1000.7 C 1000.03 1003.56 1006.5 999.449 1012.46 1001.43 L 1013.62 1005.08 L 1015.16 1004.92 C 1015.96 1003.35 1016.32 1002.71 1017.88 1001.77 C 1018.27 1001.54 1018.68 1001.35 1019.08 1001.14 L 1022.22 1001.75 C 1023.46 1003.95 1023.69 1004.32 1023.6 1006.82 C 1018.92 1012.28 1007.92 1011.15 1001.36 1013.09 C 998.185 1013.31 996.915 1013.9 994.21 1012.1 C 992.415 1008.2 993.348 1004.43 993.122 1000.27 C 989.819 998.537 987.41 1003.26 983.273 1002.79 L 982.092 998.48 L 980.488 998.106 C 978.59 1000.12 978.962 1000.78 978.616 1003.44 L 979.995 1004.75 C 982.801 1004.82 986.148 1004.39 988.46 1006.18 C 989.238 1008.39 988.885 1009.49 988.267 1011.71 L 986.633 1012.55 C 981.897 1010.59 977.189 1008.56 972.509 1006.47 C 973.982 1001.84 976.035 997.645 978.158 993.293 z" fill="rgb(254,254,254)" transform="translate(0,0)"/>
<path d="M 996.882 954.483 C 996.966 954.524 997.055 954.557 997.135 954.607 C 1000.1 956.464 1003.1 957.68 1004.2 961.072 C 1002.61 967.038 997.021 972.892 993.572 978.148 C 990.833 976.296 987.379 975.3 984.282 974.144 C 982.922 973.249 983.658 973.877 982.341 971.983 C 983.685 967.972 987.294 965.141 990.227 962.21 C 992.778 964.161 994.804 966.532 998.07 966.407 C 999.638 964.324 999.885 964.147 999.961 961.572 C 997.404 959.567 995.153 960.719 993.161 959.083 L 996.882 954.483 z" fill="rgb(254,254,254)" transform="translate(0,0)"/>
<path d="M 1040.34 947.863 C 1037.09 942.371 1037.8 945.592 1033.87 942.912 C 1028.97 939.577 1024.47 927.646 1026.25 921.839 C 1028.73 913.771 1042.57 908.639 1049.49 905.404 C 1050.39 904.978 1051.29 904.573 1052.21 904.192 C 1054.98 912.655 1058.32 921.267 1060.12 929.986 L 1052.62 934.052 C 1058.62 947.388 1065.31 960.748 1070.45 974.422 L 1071.68 973.843 C 1074.5 972.556 1076.48 971.335 1079.66 972.003 C 1082.43 973.594 1083.27 975.853 1084.03 978.807 C 1084.85 981.992 1085.28 984.346 1083.54 987.326 C 1080.04 993.317 1070.57 998.635 1063.94 1000.05 C 1061.63 1000.54 1059.43 1000.69 1057.49 999.105 C 1053.68 995.982 1051.87 989.183 1050.76 984.574 C 1051.46 982.378 1051.73 982.544 1053.45 981.21 C 1053.56 979.009 1041.89 952.423 1040.34 947.863 z" fill="rgb(34,33,35)" transform="translate(0,0)"/>
<path d="M 1047.25 911.876 C 1051.45 914.984 1052.66 921.182 1054.05 926.012 C 1048.72 930.393 1043.61 933.801 1037.56 937.092 L 1036.11 936.431 C 1033.12 932.182 1031.8 927.183 1030.18 922.296 C 1035.73 918.652 1041.57 915.334 1047.25 911.876 z" fill="rgb(254,254,254)" transform="translate(0,0)"/>
<path d="M 1045.7 949.854 C 1044.32 945.995 1043.26 943.258 1043.81 939.14 L 1044.59 937.853 C 1048.62 939 1051.02 943.854 1052.98 947.277 C 1056.11 952.755 1065.92 971.079 1064.66 976.663 C 1062.37 978.077 1060.08 979.443 1057.73 980.76 C 1054.8 970.344 1050.01 959.795 1045.7 949.854 z" fill="rgb(254,254,254)" transform="translate(0,0)"/>
<path d="M 1075.91 977.8 C 1077.56 978.186 1078.2 979.208 1079.42 980.352 L 1079.35 982.969 C 1076.36 989.077 1067.21 992.358 1061.41 995.225 C 1059.6 993.222 1058.78 991.91 1057.97 989.328 C 1060.3 983.301 1069.62 981.64 1075 978.365 L 1075.91 977.8 z" fill="rgb(254,254,254)" transform="translate(0,0)"/>
<path d="M 1130.38 895.549 C 1133.83 896.419 1137.32 898.245 1140.28 900.187 C 1143.84 902.532 1146.28 906.234 1147.04 910.428 C 1147.75 914.427 1146.48 918.302 1144.15 921.545 C 1141.29 925.532 1139.05 925.571 1134.49 926.315 C 1130.59 929.983 1127.27 941.519 1124.77 946.751 C 1126.64 949.556 1129.24 952.735 1129.33 956.253 C 1129.54 964.551 1118.57 972.168 1113.14 977.399 C 1109.25 973.968 1103.84 970.069 1101.35 965.496 C 1099.37 961.873 1100.21 959.569 1101.39 955.919 C 1103.77 951.49 1108.66 946.431 1109.95 941.782 C 1111.74 935.309 1109.58 927.345 1111.12 920.707 C 1111.72 918.132 1112.58 917.83 1114.65 916.492 L 1115.85 917.175 C 1117.37 920.643 1117.34 924.719 1116.69 928.416 C 1115.7 933.978 1114.75 939.611 1115.45 945.258 C 1117.22 947.016 1116.14 946.531 1118.72 946.622 C 1123.66 941.343 1126.04 931.248 1128.3 924.398 L 1118.66 919.461 C 1122.67 910.198 1123.27 903.447 1130.38 895.549 z" fill="rgb(34,33,35)" transform="translate(0,0)"/>
<path d="M 1110.58 949.524 C 1113.34 951.498 1121.17 957.097 1122.21 959.761 C 1121.28 962.975 1118.58 964.55 1116.07 966.532 L 1112.94 967.758 C 1109.54 966.965 1107.05 963.664 1104.68 961.217 L 1110.58 949.524 z" fill="rgb(254,254,254)" transform="translate(0,0)"/>
<path d="M 1131.62 902.458 C 1134.84 904.406 1137.9 905.961 1140.13 909.057 C 1141.1 914.309 1139.36 916.519 1136.48 920.769 L 1124.92 914.574 C 1126.66 910.358 1129.32 906.393 1131.62 902.458 z" fill="rgb(254,254,254)" transform="translate(0,0)"/>
<path d="M 1096.02 884.824 C 1096.3 884.831 1096.59 884.812 1096.87 884.845 C 1109.23 886.316 1101.82 899.494 1107.69 905.781 L 1110.3 903.405 C 1112.88 903.407 1112.57 903.701 1114.41 905.26 L 1114.41 909.311 C 1115.88 911.232 1117.16 913.132 1118.38 915.216 L 1117.32 915.687 C 1112.68 914.266 1109.98 911.488 1105.76 909.568 L 1103.89 908.739 L 1101.58 909.038 C 1098.26 912.157 1093.22 916.858 1088.33 916.959 C 1085.82 917.012 1084.46 916.156 1082.96 914.143 C 1080.71 911.105 1078.14 902.093 1079.11 898.345 C 1080.76 891.99 1090.76 887.844 1096.02 884.824 z" fill="rgb(34,33,35)" transform="translate(0,0)"/>
<path d="M 1096.03 890.699 C 1096.26 890.793 1096.53 890.817 1096.71 890.981 C 1099.35 893.308 1100.03 899.787 1100.87 903.206 C 1097.12 906.007 1093.35 908.79 1089.57 911.553 L 1087.71 910.242 C 1086.75 906.084 1084.97 902.931 1085.35 898.554 C 1087.29 894.795 1092.43 892.734 1096.03 890.699 z" fill="rgb(254,254,254)" transform="translate(0,0)"/>
<path d="M 352.194 1276.42 C 394.423 1274.02 439.211 1276.17 479.614 1289.25 C 484.533 1319.1 486.745 1349.76 490.092 1379.83 C 494.116 1415.97 499.1 1451.95 502.89 1488.13 C 437.21 1506.54 383.577 1512.26 315.721 1501.72 C 271.348 1493.62 224.904 1480.94 189.808 1451.24 C 172.935 1436.97 157.688 1417.26 156.091 1394.43 C 154.772 1375.58 163.173 1358.35 175.28 1344.4 C 215.61 1297.95 292.969 1280.4 352.194 1276.42 z" fill="rgb(254,254,254)" transform="translate(0,0)"/>
<path d="M 435.384 625.446 C 443.429 627.104 450.589 629.864 458.029 633.276 C 487.844 686.562 511.511 823.816 514.159 885.369 C 489.23 896.446 465.021 910.508 440.563 922.73 C 422.464 921.936 404.229 919.512 386.146 918.024 C 358.556 915.753 330.757 914.119 303.266 910.905 C 301.126 903.608 294.302 887.242 297.48 880.55 C 300.266 874.682 295.718 799.754 295.083 784.994 C 294.736 776.921 293.488 724.428 290.999 720.126 C 290.525 719.307 289.604 718.847 288.906 718.207 C 286.142 718.204 286.017 718.287 283.785 719.931 L 283.539 722.246 C 285.093 748.157 285.976 774.124 287.212 800.052 C 288.41 825.167 290.05 850.548 289.536 875.691 C 271.407 890.267 247.055 889.281 225.24 887.75 C 220.707 849.754 218.734 811.498 219.334 773.238 C 219.462 761.99 219.161 750.235 220.418 739.061 C 224.177 705.657 266.73 676.601 291.532 656.545 C 297.111 664.605 302.596 672.537 309.849 679.2 C 329.483 697.236 360.282 707.24 386.733 705.9 C 401.455 705.155 415.12 700.17 425.059 688.816 C 442.089 669.362 437.242 648.77 435.384 625.446 z" fill="rgb(254,254,254)" transform="translate(0,0)"/>
<path d="M 1687.6 1026.32 C 1698.95 1025.22 1710.26 1033.25 1719.19 1039.38 C 1748.66 1059.61 1759.11 1089.56 1765.38 1123.14 C 1757.74 1121.02 1750.53 1119.28 1742.56 1119.2 C 1702.95 1118.79 1662.77 1146.95 1635.88 1173.51 C 1602.67 1206.31 1569.71 1254.66 1561.75 1301.48 C 1558.84 1318.56 1559.02 1335.87 1558.69 1353.13 C 1558.27 1376.37 1558.01 1399.61 1557.91 1422.85 C 1550.84 1421.39 1543.85 1419.02 1537.19 1416.27 C 1507.8 1404.16 1481.14 1385.37 1468.48 1355.27 C 1510.17 1323.25 1529.92 1255.47 1546.3 1207.04 C 1547.92 1202.27 1550.24 1196.28 1547.86 1191.56 L 1545.18 1191.09 C 1543.24 1192.25 1542.13 1193.51 1541.1 1195.53 C 1538.37 1200.91 1536.78 1207.5 1534.79 1213.24 L 1521.73 1250.5 C 1510.23 1280.47 1492.29 1328.32 1464.85 1345.94 C 1454.48 1352.6 1441.88 1352.9 1430.2 1350.1 C 1397.22 1342.21 1318.69 1292.95 1301.46 1264.52 C 1301.78 1255.38 1303.36 1247.15 1307.39 1238.9 C 1310.09 1233.38 1314.28 1227.59 1320.42 1225.69 C 1322.54 1225.04 1324.72 1224.67 1326.88 1225.34 C 1335.24 1227.94 1344.46 1235.39 1352.07 1240.09 C 1367.06 1249.34 1382.4 1257.97 1397.44 1267.12 C 1407 1272.93 1416.22 1279.88 1426.34 1284.68 C 1426.71 1284.85 1427.08 1285.02 1427.46 1285.19 C 1432.25 1274.32 1434.32 1261.21 1437.82 1249.74 C 1445.4 1224.94 1453.94 1199.72 1463.91 1175.78 C 1476.97 1144.42 1498.6 1111.91 1526.17 1091.58 C 1533.82 1085.94 1542.05 1081.71 1550.33 1077.12 C 1557.68 1073.05 1565.18 1068.41 1572.99 1065.25 C 1576.17 1063.96 1581.8 1061.61 1585.04 1062.96 C 1586.46 1065.86 1587.58 1068.46 1590.34 1070.35 C 1600.13 1077.04 1617.62 1078.16 1629.1 1075.94 C 1644.25 1073.01 1666.38 1063.87 1675.16 1050.46 C 1679.95 1043.15 1678.37 1037.29 1676.64 1029.38 C 1679.76 1027.16 1683.88 1026.92 1687.6 1026.32 z" fill="rgb(121,120,121)" transform="translate(0,0)"/>
<path d="M 1044.7 1690.63 C 1074.86 1694.54 1106.27 1702.66 1133.95 1715.11 C 1159.59 1726.63 1188.05 1745.46 1198.18 1773.08 C 1203.12 1786.56 1202.35 1800.98 1196.32 1813.95 C 1182.4 1843.9 1147.57 1863.08 1118.02 1874.03 C 1030.52 1906.45 922.662 1902.98 837.932 1863.76 C 826.767 1858.14 815.791 1851.67 806.023 1843.84 C 791.138 1831.92 777.535 1815.63 775.732 1795.92 C 774.314 1780.42 781.465 1765.85 791.155 1754.23 C 821.175 1718.2 886.66 1695.61 932.59 1691.49 C 933.456 1712.74 930.855 1757.66 935.243 1775.65 C 937.149 1783.78 941.074 1791.3 946.656 1797.52 C 956.862 1809 971.201 1815.97 986.534 1816.89 C 1001.75 1817.53 1016.57 1812 1027.65 1801.55 C 1034.31 1795.16 1039.28 1787.46 1041.93 1778.58 C 1047.26 1760.73 1044.02 1712.34 1044.7 1690.63 z" fill="rgb(254,254,254)" transform="translate(0,0)"/>
<path d="M 1458.51 1362.79 C 1462.93 1363.01 1472.55 1381.4 1476.33 1385.64 C 1497.95 1409.89 1527.77 1422.36 1557.7 1432.79 L 1558.33 1508.05 C 1515.12 1508.29 1472.32 1505.12 1429 1506.83 C 1414.1 1507.42 1398.47 1508.01 1383.78 1510.64 C 1377.08 1511.84 1369.11 1513.7 1365.18 1519.77 C 1361.09 1526.09 1361.08 1535.83 1362.86 1542.89 C 1368.07 1563.62 1397.25 1574.67 1414.52 1584.46 L 1431.76 1746.85 C 1432.24 1752.51 1433.39 1759.04 1431.84 1764.59 C 1430.61 1769.01 1428.05 1772.43 1423.97 1774.61 C 1414.15 1779.86 1399.79 1779.18 1389.48 1775.89 C 1378.05 1772.24 1368.47 1765.43 1363.08 1754.5 C 1353.31 1734.69 1346.23 1699.02 1339.68 1676.8 C 1329.62 1643.4 1319.75 1609.95 1310.06 1576.44 C 1303.43 1553.71 1296.05 1530.64 1292.03 1507.27 C 1288.93 1489.25 1285.8 1466.06 1292.23 1448.39 C 1294.19 1443 1297.4 1437.36 1302.01 1433.79 C 1315.25 1423.54 1337.32 1415.94 1352.98 1409.08 C 1388.14 1393.68 1423.88 1379.33 1458.51 1362.79 z" fill="rgb(121,120,121)" transform="translate(0,0)"/>
<path d="M 418.017 979.099 L 432.057 979.202 C 428.312 989.041 426.644 998.968 424.311 1009.15 C 416.921 1041.41 412.922 1065.49 421.363 1098.39 C 437.165 1159.97 487.334 1206.65 539.015 1240.22 C 555.425 1250.87 572.672 1260.17 589.514 1270.12 C 591.366 1331.88 591.565 1393.94 592.447 1455.74 L 593.201 1521.79 C 593.337 1535.27 594.128 1548.91 592.959 1562.35 C 584.261 1567.58 574.53 1570.57 564.538 1572.12 C 553.873 1573.77 533.646 1575.83 524.764 1568.78 C 516.635 1562.34 516.82 1533.93 515.758 1523.76 C 508.827 1470.58 502.433 1417.1 496.599 1363.79 C 491.812 1320.03 487.616 1276.18 481.592 1232.57 C 478.714 1211.73 470.034 1198.26 456.72 1182.35 C 449.138 1173.29 441.529 1162.81 432.326 1155.42 C 404.291 1132.9 345.196 1123.39 316.076 1101.02 C 291.515 1082.15 277.376 1051.79 273.334 1021.63 C 273.842 1021.7 274.35 1021.77 274.856 1021.84 L 278.385 1022.38 C 311.358 1027.08 390.701 999.668 418.017 979.099 z" fill="rgb(254,254,254)" transform="translate(0,0)"/>
<path d="M 941.258 1356.88 C 972.811 1357.6 1004.38 1357.63 1035.93 1356.97 L 1036.13 1640.4 L 1036.13 1722.96 C 1036.12 1739.1 1037.23 1756.1 1034.9 1772.05 C 1033.59 1781 1028.39 1787.96 1022.52 1794.49 C 1013.18 1802.71 1002.39 1808.34 989.685 1808.67 C 976.857 1809 964.316 1803.3 955.226 1794.4 C 949.481 1788.78 944.243 1781.1 942.972 1773.04 C 940.553 1757.7 941.542 1741 941.375 1725.46 C 941.029 1694.16 940.969 1662.86 941.195 1631.56 L 941.258 1356.88 z" fill="rgb(254,254,254)" transform="translate(0,0)"/>
<path d="M 426.522 1036.81 C 428.83 1039.4 433.282 1062.18 435.284 1067.75 C 439.291 1078.91 445.995 1090.41 452.296 1100.38 C 489.661 1159.55 553.272 1202.29 615.724 1231.6 C 782.002 1309.64 978.889 1326.26 1158.87 1296.38 C 1203.56 1288.96 1248.44 1279.35 1291.09 1263.91 C 1295.81 1272.34 1302.29 1279.7 1309.48 1286.11 C 1313.11 1289.34 1317.89 1292.5 1320.59 1296.54 L 1316.73 1298.22 C 1284.14 1308.04 1251.47 1317.84 1218.2 1325.14 C 1094.23 1352.33 959.804 1357.44 834.487 1337.42 C 742.848 1322.79 655.288 1296.61 573.988 1251.2 C 528.702 1225.91 488.542 1197.25 457.87 1154.58 C 432.388 1119.13 419.345 1080.47 426.522 1036.81 z" fill="rgb(254,254,254)" transform="translate(0,0)"/>
<path d="M 1608.11 807.391 C 1627.5 805.487 1647.01 809.449 1664.12 818.763 C 1687.64 831.772 1704.89 853.768 1711.91 879.721 C 1720.07 910.369 1715.9 942.998 1700.27 970.6 C 1681.17 1004.26 1657.01 1014.62 1621.33 1024.57 C 1609.9 1027.86 1598.75 1029.36 1586.91 1030.33 C 1587.28 1012.64 1589 994.983 1588.78 977.297 C 1593.81 970.806 1597.06 965.351 1598.27 956.983 C 1599.08 951.441 1599.05 944.015 1595.35 939.405 C 1593.07 936.56 1589.66 935.423 1586.12 935.121 C 1581.52 934.727 1579.04 936.484 1575.7 939.416 C 1558.55 921.454 1538.16 906.931 1534.45 880.439 C 1532.28 864.943 1537.14 848.801 1546.96 836.699 C 1561.94 818.212 1585.14 809.842 1608.11 807.391 z" fill="rgb(171,170,171)" transform="translate(0,0)"/>
<path d="M 774.01 762.816 C 776.262 763.338 775.273 762.796 776.947 764.496 C 777.869 781.017 763.984 840.445 760.286 858.559 C 755.77 880.677 752.599 904.784 745.696 926.251 C 732.371 936.121 707.902 947.155 692.526 955.36 L 572.42 1019.3 L 570.607 1019.6 C 567.771 1013.35 588.43 924.664 591.461 909.032 C 594.87 891.444 596.35 872.603 601.598 855.486 C 615.672 840.432 748.55 774.858 774.01 762.816 z" fill="rgb(254,254,254)" transform="translate(0,0)"/>
<path d="M 327.868 607.226 C 329.486 607.328 328.651 607.061 330.206 608.429 C 330.598 611.388 331.647 618.745 329.514 620.974 C 326.14 624.501 300.087 635.259 293.212 639.421 C 274.986 650.456 226.075 699.455 217.104 718.479 C 209.045 735.571 199.645 790.901 197.784 811.702 C 194.579 847.545 196.85 884.701 196.695 920.762 L 196.493 1009.89 C 196.533 1025.62 196.058 1041.63 197.092 1057.31 C 197.697 1066.49 199.243 1076.15 202.408 1084.81 C 207.205 1097.94 216.243 1110.35 226.845 1119.38 C 238.417 1129.25 253.447 1136.52 266.678 1144.05 L 331.76 1180.72 C 347.53 1189.64 363.033 1201 379.597 1208.27 C 383.796 1210.11 388.858 1212.38 393.41 1212.9 C 412.93 1215.1 437.477 1201.1 455.508 1194.07 C 461.754 1202.82 467.698 1211.81 472.276 1221.56 C 464.327 1224.47 456.549 1227.75 448.75 1231.03 C 436.396 1236.47 423.478 1243.31 410.453 1246.72 C 403.979 1248.42 395.3 1249.76 388.868 1247.49 C 376.896 1243.27 364.864 1234.57 353.688 1228.27 L 283.628 1188.96 C 259.166 1175.01 233.651 1162.87 209.319 1148.75 C 192.196 1138.81 178.744 1126.19 173.615 1106.37 C 168.705 1087.39 170.854 1065.34 170.89 1045.79 L 170.974 973.223 L 170.763 879.093 C 170.509 848.012 169.068 817.002 174.018 786.165 C 179.096 755.55 189.923 726.172 205.929 699.585 C 234.185 652.445 274.291 620.445 327.868 607.226 z" fill="rgb(254,254,254)" transform="translate(0,0)"/>
<path d="M 1739.72 1127.4 C 1751.78 1127.71 1763.04 1129.52 1773.81 1135.15 C 1741.39 1137.83 1712.33 1150.36 1686.78 1170.34 C 1645.24 1202.82 1610.59 1254.67 1598.71 1306.11 C 1592.04 1334.95 1594.93 1367.07 1594.95 1396.63 L 1594.92 1566.15 C 1594.91 1595.54 1597.03 1629.24 1593.31 1658.25 C 1592.79 1662.28 1592.18 1666.9 1588.75 1669.52 C 1584.57 1670.15 1578.26 1666.64 1574.46 1664.75 C 1558.52 1656.8 1543.13 1647.09 1527.63 1638.29 C 1489.03 1616.36 1450.84 1593.81 1411.82 1572.65 C 1402.04 1566.62 1390.9 1562.41 1381.68 1555.49 C 1375.34 1550.74 1371.22 1544.47 1370.3 1536.52 C 1369.78 1532.02 1369.83 1525.29 1373.37 1521.83 C 1375.26 1519.96 1378.06 1519.34 1380.57 1520.25 C 1389.57 1523.52 1401.22 1533.12 1409.77 1538.24 C 1435.65 1553.48 1461.71 1568.4 1487.96 1583 C 1502.55 1591.21 1517.46 1600.9 1532.85 1607.39 C 1538.53 1609.79 1544.64 1611.85 1550.89 1611.18 C 1559.71 1610.22 1565.21 1603.85 1566.51 1595.35 C 1569.1 1578.29 1567.08 1548.76 1567.09 1530.65 L 1567.03 1401.79 C 1567.09 1368.22 1564.35 1322.5 1573.05 1290.55 C 1581.63 1259.04 1601.09 1227.29 1621.18 1201.59 C 1649.95 1164.78 1692.56 1133.2 1739.72 1127.4 z" fill="rgb(254,254,254)" transform="translate(0,0)"/>
<path d="M 210.243 786.715 C 212.654 798.874 211.77 812.897 212.202 825.354 C 213.368 858.95 215.202 903.17 226.349 934.522 C 231.672 949.493 239.685 962.45 254.483 969.512 C 256.886 979.117 257.846 989.011 259.564 998.748 C 260.933 1006.51 263.557 1013.99 265.354 1021.65 C 268.234 1033.93 269.695 1045.76 274.557 1057.56 C 298.199 1114.92 340.094 1122.98 392.025 1144.09 C 404.095 1148.99 417.25 1153.77 427.451 1162.09 C 435.986 1169.05 442.184 1177.98 448.335 1187 L 429.501 1194.99 C 417.312 1200.36 404.363 1206.51 390.699 1203.38 C 386.997 1202.5 383.42 1201.16 380.054 1199.38 C 361.543 1189.82 344.007 1177.79 325.75 1167.61 C 298.767 1152.56 262.47 1134.9 237.952 1117.03 C 229.928 1111.18 222.81 1104.2 217.5 1095.78 C 211.609 1086.44 206.906 1075.9 205.543 1064.86 C 204.071 1052.93 204.937 1040.11 204.995 1028.08 L 205.534 960.53 L 205.494 871.209 C 205.464 844.121 204.087 813.203 210.243 786.715 z" fill="rgb(254,254,254)" transform="translate(0,0)"/>
<path d="M 356.377 406.248 C 378.629 404.073 402.344 410.549 421.713 421.325 C 448.283 436.108 464.607 458.931 472.894 487.904 C 444.657 486.1 412.493 482.697 386.014 472.539 C 379.968 470.22 372.371 465.137 365.914 465.275 C 361.728 469.786 365.957 477.14 366.945 482.494 C 369.802 497.974 364.015 512.783 357.848 526.626 C 352.306 538.89 344.799 549.718 336.058 559.887 L 335.221 558.739 C 332.385 554.91 329.484 550.849 324.224 550.675 C 321.586 550.589 319.744 552.078 318.107 553.956 C 311.885 561.096 312.576 573.534 313.012 582.349 C 297.955 561.264 284.869 534.854 279.182 509.552 C 275.501 493.17 275.969 473.683 285.645 459.294 C 293.029 448.314 302.636 446.076 314.807 443.895 C 317.049 436.624 319.404 429.625 323.925 423.39 C 331.923 412.357 343.561 408.459 356.377 406.248 z" fill="rgb(171,170,171)" transform="translate(0,0)"/>
<path d="M 375.915 478.723 C 399.982 488.983 427.019 492.105 452.762 494.917 C 459.19 526.546 458.011 578.942 441.276 607.363 C 435.398 617.346 429.394 620.596 418.739 623.559 C 408.733 625.322 398.559 625.798 388.508 624.067 C 372.43 621.297 356.107 613.451 346.507 599.924 C 348.365 587.656 347.842 577.046 340.385 566.58 C 341.324 565.626 342.254 564.664 343.175 563.693 C 365.271 540.386 376.852 510.576 375.915 478.723 z" fill="rgb(254,254,254)" transform="translate(0,0)"/>
<path d="M 286.93 888.211 C 292.486 894.247 293.698 911.336 294.637 919.295 C 325.072 922.771 355.968 924.212 386.505 926.847 C 402.869 928.259 448.251 934.424 461.616 932.104 C 466.786 931.206 471.368 929.955 476.55 931.443 C 487.381 934.552 497.971 952.165 503.362 961.39 L 478.834 973.695 C 469.428 971.876 460.311 971.067 450.738 970.804 C 415.396 966.477 270.257 971.38 250.117 957.198 C 234.084 945.907 229.726 914.73 226.348 896.73 C 248.735 898.135 266.074 896.541 286.93 888.211 z" fill="rgb(254,254,254)" transform="translate(0,0)"/>
<path d="M 594.614 850.035 C 594.72 851.404 594.81 850.869 594.424 852.119 C 587.834 873.451 584.669 897.256 580.368 919.174 C 574.225 950.48 567.257 981.595 562.307 1013.12 C 536.694 1003.03 511.662 991.002 486.68 979.443 L 501.917 971.914 C 504.317 970.659 507.099 968.921 508.948 966.904 C 510.634 965.063 511.149 963.093 510.84 960.636 C 509.7 951.578 491.896 930.762 484.175 925.646 C 476.226 920.38 464.378 923.66 455.816 925.466 C 472.212 917.592 488.137 908.432 504.149 899.79 C 534.398 883.377 564.554 866.792 594.614 850.035 z" fill="rgb(254,254,254)" transform="translate(0,0)"/>
<path d="M 679.169 1308.35 C 712.098 1319.12 740.446 1326.99 773.943 1335.68 C 775.226 1368.56 778.012 1401.39 779.035 1434.26 L 772.168 1439.97 C 768.502 1441.91 764.574 1443.62 760.553 1444.67 C 748.392 1447.85 725.24 1450.57 714.303 1443.68 C 711.341 1441.82 710.143 1439.25 708.929 1436.09 C 703.902 1423.02 701.56 1408.01 698.351 1394.37 C 691.453 1365.81 685.058 1337.13 679.169 1308.35 z" fill="rgb(254,254,254)" transform="translate(0,0)"/>
<path d="M 1423.15 1589.34 C 1432.22 1593.38 1441.03 1599.42 1449.72 1604.28 C 1468.77 1614.95 1488.71 1624.97 1506.71 1637.32 C 1507.56 1646.38 1509.46 1655.25 1511.22 1664.17 C 1501.47 1664.85 1491.32 1665.18 1482.1 1668.76 C 1476.73 1670.85 1470.77 1674.34 1468.63 1680.02 C 1467.03 1684.29 1467.88 1688.79 1469.94 1692.73 C 1478.69 1709.46 1505.12 1717.88 1521.79 1723.23 L 1524.34 1723.73 C 1518.88 1727.97 1506.64 1730.06 1499.85 1732.47 C 1479.24 1739.79 1458.01 1749.27 1441.15 1763.41 C 1441.24 1740.2 1437.44 1716.13 1435.03 1693.03 C 1431.41 1658.46 1428.26 1623.72 1423.15 1589.34 z" fill="rgb(254,254,254)" transform="translate(0,0)"/>
<path d="M 1435.16 1515.44 C 1476.05 1513.4 1517.14 1515.43 1558.01 1517.08 C 1557.97 1533.16 1560.79 1583.89 1556.18 1595.88 C 1555.11 1598.66 1553.33 1601.71 1550.32 1602.68 C 1542.62 1605.16 1532.08 1597.49 1525.78 1593.91 C 1480.73 1569.24 1436.6 1542.98 1391.68 1518.07 C 1406.09 1516.49 1420.68 1516.11 1435.16 1515.44 z" fill="rgb(254,254,254)" transform="translate(0,0)"/>
<path d="M 1200.73 1822.94 C 1201.8 1825.08 1201.11 1826.41 1200.52 1828.7 C 1194.26 1852.89 1169.05 1872.9 1148.4 1884.59 C 1075.38 1925.96 968.742 1929.45 888.819 1907.47 C 849.008 1896.52 801.664 1875.44 780.337 1837.97 C 777.595 1832.29 775.883 1826.42 774.087 1820.39 C 787.383 1841.67 803.635 1854.96 825.548 1867.19 C 902.864 1910.35 1016.27 1913.36 1100.02 1889.38 C 1137.08 1878.77 1181.19 1858.18 1200.73 1822.94 z" fill="rgb(254,254,254)" transform="translate(0,0)"/>
<path d="M 876.678 1000.97 C 882.679 1008.83 894.854 1054.46 898.949 1066.84 C 903.392 1080.27 908.436 1093.54 913.279 1106.83 C 897.037 1098.34 881.761 1087.85 865.675 1078.96 C 844.106 1066.63 822.078 1054.35 801.282 1040.76 L 876.678 1000.97 z" fill="rgb(254,254,254)" transform="translate(0,0)"/>
<path d="M 521.352 1576.48 C 531.639 1580.47 540.021 1581.24 550.997 1581.24 C 554.074 1587.52 557.416 1593.81 561.065 1599.78 C 572.893 1619.1 588.728 1635.75 611.275 1641.3 C 613.986 1640.6 616.867 1639.97 619.423 1638.81 C 623.02 1637.18 624.863 1634.99 626.128 1631.29 C 626.801 1629.32 627.429 1627.7 628.492 1625.88 L 629.883 1625.77 C 639.734 1636.45 646.642 1649.44 651.86 1662.91 C 652.002 1664.4 652.251 1666.11 652.093 1667.6 C 651.806 1670.32 650.835 1672.17 648.791 1673.96 C 644.795 1677.48 637.899 1677.3 633.001 1676.77 C 602.195 1673.44 542.815 1631.98 523.839 1607 C 517.183 1598.24 520.079 1586.51 521.352 1576.48 z" fill="rgb(254,254,254)" transform="translate(0,0)"/>
<path d="M 710.383 1452.45 C 720.502 1455.39 731.815 1456.9 742.338 1456.35 C 753.124 1478.24 771.034 1503.14 795.059 1511.62 C 800.647 1513.6 806.858 1514.1 812.24 1511.21 C 817.237 1508.54 819.547 1504.94 821.241 1499.66 C 821.354 1499.3 821.459 1498.95 821.568 1498.59 C 828.776 1503.05 839.689 1527.28 843.846 1535.74 C 843.888 1536.91 843.927 1538.08 843.841 1539.24 C 843.649 1541.84 842.296 1543.86 840.267 1545.42 C 835.638 1548.97 828.884 1548.97 823.364 1548.35 C 795.475 1545.18 731.429 1502.03 713.648 1479.3 C 707.415 1471.34 709.215 1461.7 710.383 1452.45 z" fill="rgb(254,254,254)" transform="translate(0,0)"/>
<path d="M 472.747 640.828 C 503.716 662.94 538.949 746.136 550.374 782.601 C 545.704 787.296 540.67 791.434 535.546 795.619 C 528.815 800.883 521.986 805.64 514.522 809.806 C 511.882 788.854 507.259 767.979 502.672 747.384 C 494.579 711.044 485.453 675.83 472.747 640.828 z" fill="rgb(254,254,254)" transform="translate(0,0)"/>
<path d="M 1280.27 1175.71 C 1296.04 1184.65 1308.95 1200.4 1313.9 1217.73 C 1302.16 1228.3 1294.52 1240.21 1292.5 1256.12 C 1273.43 1251.19 1257.7 1243.41 1244.4 1228.8 C 1232.75 1214.15 1221.88 1198.17 1215.28 1180.58 C 1237.06 1185.24 1259.99 1199.73 1279.26 1203.62 C 1282.51 1204.28 1285.36 1204.64 1288.28 1202.81 C 1290.28 1196.51 1282.43 1182.41 1280.27 1175.71 z" fill="rgb(254,254,254)" transform="translate(0,0)"/>
<path d="M 263.81 971.455 C 309.659 977.136 359.634 976.784 405.964 978.279 C 397.259 981.578 388.687 985.415 380.083 988.982 C 357.487 998.927 332.172 1007.52 307.986 1012.54 C 297.762 1014.67 281.865 1017.47 272.81 1011.07 C 265.266 1005.73 265.165 980.954 263.81 971.455 z" fill="rgb(254,254,254)" transform="translate(0,0)"/>
<path d="M 552.527 791.706 C 553.41 792.46 553.043 792.049 553.752 793.108 C 566.624 812.341 581.929 823.934 600.421 837.258 C 585.55 844.795 570.908 852.775 556.513 861.185 C 551.22 864.272 545.892 867.3 540.53 870.267 C 533.801 867.099 527.939 863.234 522.059 858.715 C 519.938 845.354 518.377 831.853 516.558 818.444 C 530.285 811.021 541.678 802.967 552.527 791.706 z" fill="rgb(254,254,254)" transform="translate(0,0)"/>
<path d="M 1537.15 910.766 C 1540.83 914.326 1543.85 919.256 1547.44 923.088 C 1554.94 931.08 1563.1 938.592 1571.02 946.16 C 1569.92 953.337 1567.89 962.285 1570.89 969.135 C 1573.13 974.245 1576.78 975.966 1581.71 978.012 C 1580.83 994.561 1580.18 1011.12 1579.78 1027.69 C 1578.79 1028.57 1579.11 1028.6 1577.78 1028.6 C 1569.79 1028.6 1556.29 1019.8 1551.27 1013.96 C 1529.11 988.174 1534.6 942.224 1537.15 910.766 z" fill="rgb(254,254,254)" transform="translate(0,0)"/>
<path d="M 339.617 605.528 C 340.258 606.038 340.831 606.647 341.42 607.214 C 361.721 626.768 382.492 635.268 411 634.764 C 411.127 642.764 411.357 650.991 407.985 658.446 C 404.473 666.213 398.178 670.154 390.553 673.243 C 386.619 673.935 383.003 674.023 379.015 673.69 C 354.562 671.644 337.12 657.751 322.167 639.508 C 328.889 634.792 335.519 632.658 343.312 630.465 C 340.641 622.718 340.512 613.665 339.617 605.528 z" fill="rgb(254,254,254)" transform="translate(0,0)"/>
<path d="M 425.976 630.186 L 427.402 630.891 C 430.857 640.476 430.881 654.957 428.323 664.79 C 425.342 676.249 418.087 685.923 407.706 691.681 C 392.425 700.156 373.606 698.566 357.343 694.099 C 334.074 687.709 312.815 675.814 300.653 654.437 C 299.525 652.228 299.093 651.064 299.207 648.573 C 302.026 642.645 308.059 640.182 313.531 637.133 C 315.634 641.847 317.896 646.208 321.02 650.318 C 333.882 667.238 354.851 679.871 376.099 682.3 C 387.566 683.611 398.529 680.986 407.457 673.392 C 419.815 662.881 417.984 647.675 418.976 633.162 C 420.819 630.644 423.027 630.863 425.976 630.186 z" fill="rgb(254,254,254)" transform="translate(0,0)"/>
<path d="M 1454.65 1171.96 L 1455.4 1173.05 C 1449.5 1190.77 1442.97 1208.31 1436.73 1225.92 C 1420.62 1234.4 1405.86 1245.32 1389.43 1253.29 L 1371.22 1242.17 L 1356.42 1233.4 C 1391.53 1215.92 1424.2 1196.8 1454.65 1171.96 z" fill="rgb(254,254,254)" transform="translate(0,0)"/>
<path d="M 1665.13 1017.85 C 1666.48 1017.96 1665.7 1017.75 1667.26 1019.03 C 1669.53 1027.21 1669.18 1035.53 1668.89 1043.93 C 1664.88 1049.81 1660.08 1054.02 1654.08 1057.76 C 1637.57 1068.04 1620.4 1070.92 1601.53 1066.47 L 1596.35 1064.24 C 1591.8 1059.1 1593.58 1045.46 1593.22 1038.54 C 1617.59 1036.31 1643.3 1028.85 1665.13 1017.85 z" fill="rgb(254,254,254)" transform="translate(0,0)"/>
<path d="M 1323.39 1744.38 C 1332.58 1744.82 1341.46 1745.84 1350.53 1747.37 C 1354.28 1758.59 1358.36 1767.35 1368.08 1774.79 C 1381.92 1785.39 1399.04 1789.12 1416.14 1786.88 C 1412.05 1791.28 1406.86 1801.16 1401.75 1803.59 C 1396.55 1803.99 1391.32 1803.56 1386.25 1802.33 C 1365.18 1797.36 1320.16 1777.2 1309.18 1757.68 C 1307.54 1754.76 1307.74 1753.03 1308.65 1749.9 C 1312.88 1745.31 1317.45 1744.94 1323.39 1744.38 z" fill="rgb(254,254,254)" transform="translate(0,0)"/>
<path d="M 1511.07 1673.47 C 1513.31 1673.68 1515.81 1679.96 1517.34 1682.07 C 1522.92 1689.77 1531.96 1695.3 1540.77 1698.43 C 1558.67 1704.81 1574.26 1701.53 1591.02 1693.61 C 1589.07 1700.44 1586.71 1706.6 1583.44 1712.9 C 1576.36 1714.77 1568.52 1715.19 1561.23 1715.91 C 1544.58 1717.74 1542.17 1720.73 1524.99 1715.54 C 1514.12 1712.25 1481.71 1699.85 1477.63 1688.82 C 1476.81 1686.59 1476.99 1684.39 1478.37 1682.42 C 1483.82 1674.66 1502.23 1674.45 1511.07 1673.47 z" fill="rgb(254,254,254)" transform="translate(0,0)"/>
<path d="M 779.356 1442.85 C 786.732 1453.7 795.114 1463.82 802.578 1474.59 C 806.515 1480.28 814.6 1492.21 812.086 1499.33 C 811.205 1501.83 810.233 1503 807.775 1504 C 802.829 1506.01 795.229 1502.3 790.638 1500.39 C 773.335 1489.5 759.539 1473.84 750.902 1455.31 C 761.742 1452.63 770.515 1450.08 779.356 1442.85 z" fill="rgb(254,254,254)" transform="translate(0,0)"/>
<path d="M 590.93 1573.06 C 596.164 1576.79 615.531 1606.63 618.317 1613.46 C 620.095 1617.82 621.522 1623.45 619.11 1627.86 C 618.087 1629.74 616.328 1630.7 614.321 1631.24 C 608.551 1632.8 602.259 1629.6 597.514 1626.66 C 580.638 1614.93 569.144 1598.36 559.602 1580.46 C 570.807 1579.34 580.393 1577.04 590.93 1573.06 z" fill="rgb(254,254,254)" transform="translate(0,0)"/>
<path d="M 1515.76 1642.29 C 1529.43 1647.34 1550.27 1661.84 1564.35 1669.42 C 1571.23 1673.13 1581.84 1680.16 1589.44 1677.87 L 1590.7 1678.58 C 1589.81 1681.61 1587.08 1683.68 1584.89 1685.84 C 1579.89 1688.67 1575.24 1690.92 1569.49 1691.89 C 1556.99 1693.99 1541 1691.09 1530.56 1683.48 C 1518.54 1674.72 1518.03 1655.86 1515.76 1642.29 z" fill="rgb(121,120,121)" transform="translate(0,0)"/>
<path d="M 1429.84 1240.18 C 1431.12 1243.76 1423.49 1267.37 1422 1272.64 C 1417.33 1270.38 1412.98 1267.36 1408.6 1264.6 C 1405.28 1262.02 1401.7 1259.76 1398.22 1257.4 C 1408.85 1251.86 1419.32 1245.92 1429.84 1240.18 z" fill="rgb(254,254,254)" transform="translate(0,0)"/>
<path d="M 323.977 559.42 C 325.215 560.086 326.348 560.741 327.365 561.732 C 332.969 567.195 338.089 577.467 338.311 585.223 C 338.434 589.555 337.461 591.477 334.42 594.522 C 331.871 594.339 329.161 594.233 326.761 593.279 C 322.222 591.475 320.971 587.57 319.16 583.398 C 320.004 575.731 320.155 566.24 323.977 559.42 z" fill="rgb(254,254,254)" transform="translate(0,0)"/>
<path d="M 1583 942.306 C 1584.5 942.764 1585.92 943.166 1587.12 944.244 C 1589.59 946.472 1590.64 950.788 1590.47 954.029 C 1590.14 960.123 1588.02 964.141 1583.49 968.082 C 1581.34 967.769 1579.83 967.776 1578.3 965.966 C 1576.83 964.219 1576.32 961.512 1576.28 959.277 C 1576.19 952.845 1578.67 946.923 1583 942.306 z" fill="rgb(254,254,254)" transform="translate(0,0)"/>
<path d="M 522.005 869.453 C 525.167 871.304 529.879 873.3 531.864 876.433 L 530.571 877.788 C 528.302 879.162 526.61 880.462 523.835 880.277 C 521.794 877.229 522.226 873.104 522.005 869.453 z" fill="rgb(254,254,254)" transform="translate(0,0)"/>
<path d="M 1179.58 87.395 C 1215.04 82.5674 1254.26 93.4555 1286.37 107.932 C 1348.7 136.038 1402.85 194.558 1426.6 258.634 C 1439.94 294.646 1442.84 338.707 1426.19 374.202 C 1408.97 410.908 1380.03 426.178 1343.41 439.264 C 1358.26 470.89 1458.1 631.889 1457.93 645.148 C 1456.27 646.995 1456.15 646.858 1453.67 647.207 C 1446.8 644.808 1441.11 638.681 1435.64 633.989 C 1405.15 607.933 1373.27 583.663 1342.34 558.164 L 1241.56 475.428 C 1217.83 455.68 1194.51 435.317 1170.5 415.922 C 1157.18 405.158 1143.38 395.01 1129.99 384.33 C 1088.12 350.917 1055.95 286.927 1050.1 233.91 C 1046.4 200.404 1052.7 167.269 1074.39 140.72 C 1100.41 108.854 1139.14 91.3061 1179.58 87.395 z" fill="rgb(34,33,35)" transform="translate(0,0)"/>
<path d="M 1187.63 95.4282 C 1194.38 95.0403 1201.05 95.1167 1207.8 95.5519 C 1271.21 99.6383 1330.02 136.343 1371.15 183.196 C 1406.15 223.057 1432.4 275.24 1428.65 329.568 C 1425.79 371.182 1402.3 405.88 1363.84 422.956 C 1354.37 427.16 1340.27 429.043 1332.57 435.807 C 1332.38 444.779 1429.01 604.973 1441.36 628.022 L 1423.46 613.2 C 1406.75 599.976 1390.72 585.846 1374.2 572.376 L 1243.33 465.49 C 1206.39 435.071 1168.39 405.679 1131.89 374.788 C 1093.09 341.952 1062.17 279.593 1058.21 229.647 C 1055.66 197.414 1062.21 167.695 1083.66 142.813 C 1109.98 112.279 1148.32 98.53 1187.63 95.4282 z" fill="rgb(254,254,254)" transform="translate(0,0)"/>
<path d="M 1164.88 169.298 C 1168.86 168.949 1172.77 168.538 1176.69 169.591 C 1191.58 173.599 1205.92 180.81 1220.23 186.552 C 1242.96 195.671 1265.97 204.097 1288.55 213.588 C 1304.44 220.265 1315.47 227.652 1321.96 244.457 C 1323.58 248.653 1324.62 252.784 1324.96 257.273 C 1326.14 273.019 1326.27 357.558 1321.66 367.034 C 1317.79 374.982 1308.59 378.314 1300.7 380.661 C 1294.98 381.086 1290.59 380.53 1285.13 378.84 C 1258.18 370.492 1231.42 357.355 1205.24 346.603 C 1189.95 340.327 1171.14 335.208 1157.33 326.324 C 1148.3 320.516 1142.84 311.787 1140.86 301.221 C 1138.22 287.162 1140.09 269.752 1140.12 255.324 C 1140.17 234.763 1138.96 213.204 1140.81 192.758 C 1141.23 188.2 1141.57 183.039 1144.26 179.202 C 1149.33 171.996 1156.79 170.727 1164.88 169.298 z" fill="rgb(34,33,35)" transform="translate(0,0)"/>
<path d="M 1154.72 179.854 C 1167.78 180.329 1273.33 223.86 1289.09 232.234 C 1292.42 233.966 1295.42 236.276 1297.94 239.055 C 1302.21 243.702 1305.42 249.422 1306.74 255.615 C 1310.18 271.793 1307.06 299.32 1306.9 316.814 C 1306.8 328.156 1307.79 339.696 1307.12 350.992 C 1306.63 359.195 1305.5 364.835 1299.29 370.4 C 1297.42 370.921 1295.49 371.359 1293.54 371.435 C 1285.17 371.763 1164.28 322.811 1157.79 316.705 C 1153.66 312.82 1150.36 307.709 1148.99 302.188 C 1145.37 287.482 1147.74 268.712 1147.97 253.603 C 1148.19 238.225 1148 222.907 1147.96 207.533 C 1147.94 197.768 1147.41 187.202 1154.72 179.854 z" fill="rgb(207,214,241)" transform="translate(0,0)"/>
<path d="M 1170.77 207.555 C 1179.79 210.685 1232.64 271.79 1243.31 282.87 C 1250.72 276.159 1275.53 252.2 1284.54 252.488 L 1284.94 254.094 C 1278.49 265.853 1258.12 279.793 1247.02 288.056 C 1253.93 295.434 1287.62 328.116 1287.86 335.994 C 1285.99 337.649 1285.82 337.502 1283.28 337.606 C 1261.8 317.123 1242.59 293.073 1222.84 270.862 C 1217.14 274.116 1177.18 296.528 1175.27 297.032 C 1172.56 297.744 1170.28 298.03 1167.87 296.568 C 1170.88 288.052 1207.82 271.094 1217.62 265.406 C 1203.16 249.257 1187.72 233.713 1173.86 217.062 C 1170.94 213.564 1170.36 212.177 1170.77 207.555 z" fill="rgb(34,33,35)" transform="translate(0,0)"/>
<path d="M 1601.52 297.388 C 1632.38 294.297 1669.09 313.378 1693.12 331.028 C 1741.49 366.547 1778.82 421.167 1787.91 481.188 C 1792.34 510.445 1789.13 543.345 1770.91 567.681 C 1749.72 595.995 1718.97 597.71 1686.55 601.654 C 1666.34 603.977 1646.16 606.494 1626 609.206 C 1603.97 609.908 1506.15 626.753 1493.27 623.479 C 1492.16 622.513 1490.67 621.755 1490.37 620.231 C 1489.7 616.854 1491.6 612.836 1492.94 609.823 C 1499.17 595.903 1507.94 582.52 1515.61 569.318 C 1528.15 547.828 1540.33 526.128 1552.13 504.225 C 1535.5 472.731 1519.89 441.985 1516.21 405.897 C 1513.5 379.357 1518.73 348.516 1536.28 327.535 C 1553.14 307.386 1576.18 299.818 1601.52 297.388 z" fill="rgb(34,33,35)" transform="translate(0,0)"/>
<path d="M 1596.64 306.373 C 1629.02 302.011 1664.96 321.05 1690.23 339.263 C 1735.63 371.969 1770.91 427.069 1779.49 482.573 C 1783.54 508.751 1780.95 538.625 1764.71 560.479 C 1744.75 587.342 1716.83 589.07 1686.07 592.613 C 1668.36 594.497 1650.68 596.674 1633.05 599.143 C 1620.44 599.684 1607.05 602.437 1594.44 603.997 C 1563.06 607.88 1531.65 612.127 1500.18 615.201 C 1519.48 577.923 1542.1 542.518 1561.62 505.422 C 1546.89 472.158 1529.89 447.593 1525.37 409.571 C 1522.25 383.376 1525.32 355.324 1542.38 334.18 C 1556 317.291 1575.43 308.72 1596.64 306.373 z" fill="rgb(254,254,254)" transform="translate(0,0)"/>
<path d="M 1622.93 356.801 C 1623.89 356.814 1624.85 356.802 1625.81 356.859 C 1634.55 357.369 1653.11 367.808 1658.59 374.79 C 1660.09 376.714 1660.67 378.392 1660.88 380.784 C 1661.76 390.911 1659.23 402.472 1657.97 412.53 C 1655.8 430.714 1653.39 448.869 1650.75 466.99 C 1650.69 467.347 1650.69 467.723 1650.56 468.062 C 1649.53 470.791 1648.8 471.501 1646.4 472.84 C 1640.5 472.607 1636.31 468.182 1632.18 464.441 C 1631.77 462.982 1631.4 461.512 1631.07 460.032 C 1627.36 443.807 1618.57 377.81 1620.08 363.468 C 1620.34 360.977 1621.63 358.884 1622.93 356.801 z" fill="rgb(34,33,35)" transform="translate(0,0)"/>
<path d="M 1627.9 366.269 C 1636.44 370.219 1645.31 373.973 1652.36 380.334 C 1650.93 405.172 1647.66 430.376 1643.78 454.958 C 1643.28 457.631 1643.34 459.969 1641.53 462.06 L 1640.09 461.126 C 1633.99 448.36 1628.87 382.866 1627.9 366.269 z" fill="rgb(117,126,159)" transform="translate(0,0)"/>
<path d="M 1630 485.213 C 1632.21 485.608 1634.48 485.983 1636.62 486.675 C 1645.99 489.708 1654 500.172 1657.74 508.843 C 1660.73 515.779 1662.52 524.188 1659.27 531.354 C 1656.94 536.477 1653.89 538.441 1648.8 540.492 C 1645.7 540.23 1642.84 539.695 1639.96 538.449 C 1630.27 534.263 1622.38 524.306 1618.66 514.638 C 1616.17 508.164 1614.84 500.357 1618.14 493.918 C 1620.71 488.882 1624.82 486.824 1630 485.213 z" fill="rgb(34,33,35)" transform="translate(0,0)"/>
<path d="M 1629.47 493.602 C 1632.83 494.059 1635.91 495.436 1638.7 497.343 C 1645.65 502.09 1650.69 510.163 1651.81 518.512 C 1652.57 524.134 1651.84 527.213 1648.36 531.654 C 1642.57 530.862 1639.02 529.198 1634.77 525.134 C 1629.2 519.815 1624.92 512.465 1624.83 504.602 C 1624.78 499.617 1626.12 497.198 1629.47 493.602 z" fill="rgb(117,126,159)" transform="translate(0,0)"/>
</svg>