<svg preserveAspectRatio="xMidYMid meet" version="1.1" xmlns="http://www.w3.org/2000/svg" style="display: block;" viewBox="0 0 2048 2048" width="1024" height="1024">
<path transform="translate(0,0)" fill="rgb(255,255,255)" d="M 0 0 L 2048 0 L 2048 2048 L 0 2048 L 0 0 z"/>
<path transform="translate(0,0)" fill="rgb(4,33,102)" d="M 1146.52 404.36 C 1150.55 404.01 1155.02 404.289 1158.91 405.371 C 1170.18 408.497 1223.44 436.715 1233.03 443.775 C 1238.26 447.62 1243.33 452.486 1246.48 458.228 C 1250.58 465.722 1251.61 476.442 1251.84 484.848 C 1253.51 545.321 1252 606.289 1252.03 666.807 L 1251.85 1027.57 L 1251.82 1178.31 C 1251.82 1204.59 1254.93 1256.36 1247.95 1280.13 C 1241.87 1300.88 1228.16 1322.93 1211.34 1336.68 C 1198.92 1346.84 1182.29 1353.83 1168.18 1361.57 C 1143.03 1375.7 1117.75 1389.58 1092.34 1403.21 L 857.317 1532.3 C 856.755 1563.65 857.128 1595.08 857.039 1626.44 C 863.315 1623.11 869.405 1619.5 875.748 1616.28 C 904.923 1630.85 933.047 1648.59 961.53 1664.53 C 978.437 1673.99 1006.1 1686.44 1020.42 1698.26 C 1025.96 1702.83 1029.47 1709.21 1030.07 1716.42 C 1030.63 1723.15 1027.82 1729.76 1023.3 1734.65 C 1019.42 1738.85 1013.74 1741.88 1008.85 1744.77 C 959.953 1773.62 907.214 1800.68 857.225 1828.16 C 835.57 1840.25 813.826 1852.19 791.995 1863.97 C 780.293 1870.33 768.657 1877.44 756.376 1882.63 C 748.348 1886.02 739.13 1886.49 730.498 1886.61 C 721.643 1886.72 711.899 1885.68 703.534 1882.72 C 685.569 1876.38 659.807 1860.84 642.365 1851.55 C 626.682 1843.19 609.362 1835.4 594.426 1825.91 C 590.822 1823.62 587.499 1820.73 584.478 1817.71 C 551.801 1785.06 556.387 1740.35 556.682 1698.22 C 533.779 1711.61 510.16 1723.99 486.962 1736.89 L 322.733 1827.22 C 307.563 1835.56 256.048 1866.92 242.453 1869.14 C 235.953 1870.2 228.297 1868.43 222.213 1866.17 C 210.354 1861.75 170.954 1838.9 160.612 1830.85 C 149.937 1822.53 142.439 1810.53 140.75 1797 C 139.059 1783.44 140.115 1768.74 140.152 1755.06 L 140.191 1682.48 L 140.456 1428.23 L 140.08 1143.47 L 140.055 1058.03 C 140.061 1042.42 139.014 1026.05 140.81 1010.57 C 142.832 993.145 152.626 973.642 163.446 960.057 C 169.883 951.974 177.309 945.029 186.057 939.509 C 196.887 932.674 208.516 926.93 219.628 920.541 C 250.197 902.9 280.874 885.444 311.655 868.176 L 596.673 706.726 L 956.893 504.016 L 1070.67 440.218 C 1088.17 430.454 1105.58 420.076 1123.44 410.979 C 1131 407.127 1138.15 405.257 1146.52 404.36 z"/>
<path transform="translate(0,0)" fill="rgb(255,255,255)" d="M 1201.23 490.943 L 1201.72 491.261 C 1202.69 493.246 1202.65 492.624 1202.76 494.575 C 1204.59 527.073 1202.97 561.496 1202.98 594.263 L 1203.03 792.369 L 1203.17 1109.45 C 1203.14 1160.45 1203.94 1211.59 1202.95 1262.56 C 1202.83 1269.16 1202.73 1277.39 1200.49 1283.65 C 1198.64 1288.8 1194.05 1292.61 1189.49 1295.32 C 1164.67 1310.05 1138.83 1323.52 1113.58 1337.53 C 1058.06 1368.57 1002.32 1399.23 946.39 1429.52 L 601.521 1620.45 C 522.628 1664.54 443.479 1708.17 364.08 1751.34 L 288.541 1792.94 C 275.308 1800.1 262.155 1807.74 248.446 1813.95 C 245.969 1801.02 247.911 1766.15 247.937 1751.13 L 247.663 1611.34 L 247.753 1226.3 C 247.909 1172.52 246.672 1118.54 247.836 1064.79 C 247.994 1057.5 248.197 1051.15 250.791 1044.24 C 255.284 1032.26 262.434 1019.5 273.302 1012.22 C 286.203 1003.58 300.919 996.46 314.51 988.834 L 395.086 943.453 L 674.066 786.195 L 1014.45 593.826 L 1135.47 526.065 C 1157.17 514.108 1178.75 501.354 1201.23 490.943 z"/>
<path transform="translate(0,0)" fill="rgb(4,33,102)" d="M 1186.87 507.764 L 1189.06 508.055 C 1190.19 510.333 1189.98 509.316 1190.08 511.799 C 1191.12 538.19 1190.07 565.131 1189.99 591.583 L 1189.54 751.63 L 1190.1 1282.69 C 1109.32 1324.68 1030.2 1370.54 950.51 1414.61 L 507.941 1659.33 L 354.005 1744.31 C 338.713 1752.74 276.567 1790.03 264.112 1791.85 C 263.313 1791.16 262.715 1790.73 262.122 1789.79 C 258.018 1783.26 260.294 1680.28 260.303 1663.35 L 260.042 1218.94 L 259.987 1096.97 C 260.017 1079.08 257.895 1053.28 261.603 1036.3 C 262.719 1031.19 268.47 1026.43 272.649 1023.79 C 296.31 1008.8 322.188 996.086 346.632 982.257 L 525.883 881.721 L 984.689 621.343 C 1051.82 583.158 1120.64 547.437 1186.87 507.764 z"/>
<path transform="translate(0,0)" fill="rgb(255,255,255)" d="M 1180.6 630.881 C 1180.73 630.987 1180.89 631.063 1180.99 631.2 C 1181.38 631.753 1181.83 632.29 1182.04 632.93 C 1183.25 636.536 1181.5 757.588 1181.47 774.565 L 1182.02 1277.7 C 1172.07 1282.21 1162.53 1288.15 1152.98 1293.48 L 1102.18 1321.85 L 942.434 1410.06 L 519.467 1644.07 L 346.555 1739.43 C 321.146 1753.32 296.064 1767.7 270.363 1781.07 C 269.234 1780.82 269.97 1781.04 268.292 1780.05 C 266.322 1709.35 267.946 1636.35 267.941 1565.41 L 267.623 1148.29 C 301.28 1127.98 335.869 1109.08 370.055 1089.68 L 530.387 998.469 C 746.495 874.83 963.235 752.299 1180.6 630.881 z"/>
<path transform="translate(0,0)" fill="rgb(4,33,102)" d="M 841.86 893.745 L 844.355 895.322 C 845.148 896.537 845.393 897.298 845.439 898.759 C 846.143 920.965 845.119 943.425 845.085 965.655 L 845.112 1108.49 C 829.547 1118.28 812.924 1126.61 796.892 1135.62 L 698.559 1190.83 L 345.528 1386.04 C 344.12 1385.5 343.103 1385.12 341.971 1384.07 C 339.285 1381.6 340.713 1200.44 340.857 1178.14 C 367.335 1161.08 396.085 1146.49 423.542 1131 L 569.087 1048.54 L 751.341 944.779 C 781.383 927.704 811.296 909.821 841.86 893.745 z"/>
<path transform="translate(0,0)" fill="rgb(255,255,255)" d="M 837.002 905.348 C 839.568 909.907 837.974 1077.85 837.91 1103.57 C 818.627 1115.49 798.039 1125.96 778.215 1136.99 L 677.156 1193.76 C 568.284 1254.55 459.05 1314.68 349.458 1374.16 C 346.874 1366.29 348.567 1318.99 348.557 1307.16 C 348.519 1265.65 347.317 1223.96 348.665 1182.48 C 370.911 1171.19 392.607 1157.63 414.358 1145.34 L 545.856 1070.81 L 837.002 905.348 z"/>
<path transform="translate(0,0)" fill="rgb(4,33,102)" d="M 804.846 955.799 C 806.906 955.629 807.088 955.699 808.842 956.54 C 811.557 963.326 809.562 1068.16 809.528 1084.44 C 796.175 1096.94 762.82 1112.39 745.214 1121.97 C 715.601 1138.09 686.568 1155.33 657.1 1171.73 C 633.684 1184.76 608.522 1197.03 586.502 1212.21 C 583.863 1211.84 585.007 1212.39 583.077 1210.52 C 580.712 1197.22 582.293 1181.36 582.286 1167.75 L 582.29 1079.69 C 655.968 1037.57 731.495 998.505 804.846 955.799 z"/>
<path transform="translate(0,0)" fill="rgb(255,255,255)" d="M 800.875 966.959 C 803.879 971.388 802.026 1067.19 801.988 1080.82 C 781.561 1091.07 762.017 1103.74 742.045 1114.92 L 591.447 1199.32 C 591.018 1198.71 590.416 1198.2 590.161 1197.5 C 588.376 1192.62 589.958 1098.68 589.981 1084.94 C 615.413 1072.15 640.079 1057.05 664.974 1043.18 C 710.515 1018.2 755.817 992.795 800.875 966.959 z"/>
<path transform="translate(0,0)" fill="rgb(251,130,161)" d="M 687.395 1057.08 C 690.048 1056.78 692.813 1056.55 695.43 1057.25 C 699.849 1058.42 704.096 1061.5 706.204 1065.6 C 710.592 1074.13 708.865 1086.26 705.932 1095.03 C 701.613 1107.95 694.025 1116.07 681.967 1121.82 C 678.374 1122.35 675.234 1122.68 671.738 1121.45 C 667.375 1119.93 663.83 1117.05 661.927 1112.79 C 658.069 1104.15 659.868 1092.06 662.992 1083.47 C 667.614 1070.76 675.432 1062.78 687.395 1057.08 z"/>
<path transform="translate(0,0)" fill="rgb(251,130,161)" d="M 548.72 1203.91 L 550.167 1205.15 C 551.155 1213.11 550.523 1221.25 550.219 1229.24 C 539.833 1235.46 528.817 1240.98 518.232 1246.9 C 477.806 1269.53 436.795 1291.03 396.094 1313.16 L 394.495 1312.33 C 393.303 1305.17 393.9 1297.43 393.975 1290.17 C 406.507 1282.92 419.458 1276.39 432.018 1269.17 C 470.601 1247 509.178 1224.33 548.72 1203.91 z"/>
<path transform="translate(0,0)" fill="rgb(251,130,161)" d="M 529.536 1115.88 L 530.827 1117.56 C 531.26 1120.85 531.567 1124.26 530.608 1127.51 C 529.884 1129.96 528.977 1131.22 526.947 1132.74 C 510.883 1144.77 486.788 1156.25 468.609 1166.24 C 443.908 1179.81 419.644 1194.19 394.608 1207.14 C 393.572 1202.56 393.511 1197.59 393.142 1192.92 C 411.149 1181.72 430.519 1172.05 449.094 1161.78 C 476.06 1146.75 502.876 1131.45 529.536 1115.88 z"/>
<path transform="translate(0,0)" fill="rgb(4,33,102)" d="M 562.956 1318.72 C 564.362 1318.91 565.23 1319.35 566.501 1319.95 C 568.867 1325.62 567.033 1518.36 567.025 1544.43 C 559.941 1549.48 551.635 1553.36 543.993 1557.53 L 503.966 1579.44 L 345.381 1665.81 C 343.671 1665.02 342.677 1664.04 341.362 1662.7 C 340.128 1653.5 340.867 1643.59 340.872 1634.3 L 340.818 1584.87 C 340.761 1536.94 339.377 1488.6 341.008 1440.71 C 366.231 1425.09 396.738 1410.24 423.217 1396.02 C 470.163 1370.92 516.747 1345.15 562.956 1318.72 z"/>
<path transform="translate(0,0)" fill="rgb(255,255,255)" d="M 558.832 1330.02 C 561.632 1335.28 559.799 1516.04 559.767 1539.86 C 542.799 1549.76 524.958 1558.35 507.723 1567.8 L 349.346 1654.63 C 346.706 1643.79 348.431 1612.14 348.382 1599.59 C 347.989 1548.54 348.102 1497.49 348.722 1446.44 C 371.727 1431.7 396.627 1419.42 420.674 1406.44 C 466.913 1381.48 513.609 1356.77 558.832 1330.02 z"/>
<path transform="translate(0,0)" fill="rgb(4,33,102)" d="M 529.268 1378.64 L 530.907 1379.34 C 532.615 1381.16 532.677 1382.8 532.879 1385.18 C 534.229 1401.03 532.97 1417.89 532.945 1433.88 C 532.897 1463.69 533.391 1493.63 532.458 1523.42 C 520.78 1532.73 496.923 1543.31 482.912 1550.97 C 448.508 1569.88 414.21 1588.99 380.018 1608.29 C 378.245 1607.62 377.667 1606.99 376.338 1605.7 C 373.841 1591.76 375.794 1574.88 375.817 1560.58 C 375.743 1527.57 375.877 1494.56 376.22 1461.55 C 397.087 1451.27 417.388 1439.56 437.787 1428.38 L 529.268 1378.64 z"/>
<path transform="translate(0,0)" fill="rgb(255,255,255)" d="M 523.103 1390.81 L 524.009 1391.05 C 526.521 1394.64 525.063 1504.86 525.064 1518.82 C 508.787 1526.35 493.096 1536.41 477.349 1545.1 L 385.674 1595.18 L 384.089 1594.46 C 382.467 1580.79 383.694 1565.56 383.689 1551.72 L 383.574 1466.88 C 402.771 1458.01 421.446 1446.45 439.98 1436.22 L 523.103 1390.81 z"/>
<path transform="translate(0,0)" fill="rgb(251,130,161)" d="M 507.123 1438.82 L 509.128 1439.47 C 511.567 1450.29 509.799 1477.32 509.836 1489.51 C 494.895 1498.94 478.828 1506.84 463.286 1515.25 C 442.719 1526.37 422.31 1537.92 401.367 1548.33 L 399.771 1548.01 C 396.725 1543.08 398.297 1507.57 398.312 1499.37 C 434.318 1478.76 470.893 1459.05 507.123 1438.82 z"/>
<path transform="translate(0,0)" fill="rgb(4,33,102)" d="M 1138 730.711 C 1139.69 730.846 1140.98 731.276 1142.58 731.786 C 1143.04 732.518 1143.7 733.159 1143.97 733.983 C 1145.63 739.036 1144.07 780.28 1144.05 788.759 L 1143.81 954.532 L 968.711 1051.11 C 955.199 1058.51 942.008 1066.48 928.425 1073.74 C 927.052 1073.59 926.053 1073.11 924.786 1072.58 C 923.344 1070.18 923.301 1068.11 923.167 1065.39 C 921.811 1037.67 923.145 1009.31 923.186 981.511 C 923.251 937.68 922.665 893.729 923.653 849.914 C 930.304 845.136 938.191 841.457 945.376 837.483 L 985.348 815.417 C 1036.2 787.396 1088.08 760.306 1138 730.711 z"/>
<path transform="translate(0,0)" fill="rgb(255,255,255)" d="M 1134.65 741.9 L 1135.8 742.702 C 1138.37 753.178 1136.27 791.827 1136.21 804.447 L 1136.04 949.953 C 1127.95 953.28 1120.06 958.399 1112.36 962.624 C 1095.48 971.842 1078.67 981.182 1061.94 990.641 C 1019.05 1014.7 975.943 1038.38 932.633 1061.68 L 931.549 1061.32 C 929.25 1051.82 931.018 1018.51 931.017 1007.03 L 931.136 854.228 C 952.684 843.058 973.719 830.634 994.994 818.919 L 1134.65 741.9 z"/>
<path transform="translate(0,0)" fill="rgb(4,33,102)" d="M 1139.83 1004.81 C 1141.05 1004.96 1142.01 1005.37 1143.16 1005.8 C 1144.57 1007.87 1144.64 1009.32 1144.77 1011.74 C 1145.49 1024.4 1144.94 1037.39 1144.94 1050.08 L 1144.91 1122.9 L 1144.86 1185.86 C 1144.84 1198.19 1145.29 1210.72 1144.27 1223 C 1133.7 1233.77 1089.65 1255.48 1074.81 1263.69 L 927.514 1345.07 C 926.184 1345.07 925.088 1344.81 923.794 1344.53 C 922.117 1341.87 922.208 1339.9 922.09 1336.75 C 921.22 1313.44 922.176 1289.75 922.188 1266.4 L 922.392 1126.66 C 930.795 1119.8 941.418 1114.83 950.895 1109.58 L 997.331 1083.89 C 1044.85 1057.6 1091.88 1030.29 1139.83 1004.81 z"/>
<path transform="translate(0,0)" fill="rgb(255,255,255)" d="M 1135.71 1015.99 C 1138.45 1019.77 1136.89 1200.79 1136.78 1219.64 C 1109.72 1235.91 1081.59 1250.65 1053.92 1265.87 L 930.891 1333.78 C 927.724 1330.49 929.902 1151.45 930.056 1131.27 C 954.382 1114.64 982.493 1101.35 1008.29 1087.06 L 1135.71 1015.99 z"/>
<path transform="translate(0,0)" fill="rgb(4,33,102)" d="M 1106.7 1062.86 C 1109.48 1062.99 1110.19 1062.82 1112.42 1064.41 C 1114.74 1078.36 1113.07 1095.09 1113.06 1109.33 L 1113.01 1203.42 C 1101.31 1211.89 1086.3 1218.18 1073.56 1225.1 L 1005.24 1262.53 C 989.956 1270.88 974.192 1278.8 959.491 1288.14 C 957.665 1288.88 957.329 1288.81 955.458 1288.56 C 955.008 1287.88 954.367 1287.3 954.108 1286.53 C 952.32 1281.21 953.937 1164.44 953.94 1147.86 L 1038.1 1100.83 C 1060.84 1088.04 1083.41 1074.62 1106.7 1062.86 z"/>
<path transform="translate(0,0)" fill="rgb(255,255,255)" d="M 1102.93 1073.82 C 1104.2 1074.09 1103.48 1073.82 1104.9 1074.97 C 1105.45 1116.29 1105.07 1157.65 1105.07 1198.97 C 1057.64 1224.38 1010.37 1250.09 963.272 1276.11 L 962.537 1275.78 C 959.548 1271.28 961.589 1168.18 961.712 1153.28 C 982.352 1140.48 1003.94 1129.26 1025.21 1117.56 C 1051.19 1103.12 1077.1 1088.54 1102.93 1073.82 z"/>
<path transform="translate(0,0)" fill="rgb(251,130,161)" d="M 1027.32 1154.91 C 1030.15 1154.77 1032.81 1154.85 1035.5 1155.86 C 1039.7 1157.43 1043.32 1160.63 1045 1164.82 C 1048.27 1172.97 1046.3 1183.64 1043 1191.46 C 1038.88 1201.24 1032.9 1207.16 1023.26 1211.33 C 1020.33 1211.78 1017.56 1212.21 1014.63 1211.45 C 1010.91 1210.49 1007.75 1208.25 1005.92 1204.82 C 1002.1 1197.67 1003.64 1186.72 1006.08 1179.38 C 1009.9 1167.88 1016.48 1160.15 1027.32 1154.91 z"/>
<path transform="translate(0,0)" fill="rgb(4,33,102)" d="M 843.036 1162.78 L 846.639 1163.4 C 847.051 1163.93 847.605 1164.39 847.875 1165.01 C 848.887 1167.33 848.076 1370.44 847.546 1387.76 C 814.396 1407.1 780.066 1425 746.318 1443.3 L 636.354 1503.52 L 633.984 1503.36 C 633.505 1502.79 632.822 1502.34 632.546 1501.65 C 631.085 1497.99 631.751 1299.05 632.374 1278.43 C 654.461 1265.01 678.547 1253.61 701.184 1240.97 C 748.264 1214.69 795.213 1187.67 843.036 1162.78 z"/>
<path transform="translate(0,0)" fill="rgb(255,255,255)" d="M 838.571 1173.97 L 839.58 1174.87 C 841.975 1191.65 840.153 1221.56 840.141 1239.83 L 840.021 1382.48 L 640.482 1492.29 C 637.471 1488.52 639.661 1303.4 639.836 1283.17 C 688.01 1258.25 735.115 1231.32 782.521 1204.97 C 801.182 1194.6 819.548 1183.68 838.571 1173.97 z"/>
<path transform="translate(0,0)" fill="rgb(4,33,102)" d="M 811.519 1220 C 811.781 1220.21 812.064 1220.39 812.305 1220.62 C 814.048 1222.3 814.508 1224.18 814.724 1226.5 C 816.162 1241.98 815.025 1258.48 815.01 1274.08 L 814.916 1366.05 C 801.318 1375.48 785.556 1382.86 771.045 1390.84 C 736.902 1409.59 701.737 1427.78 668.459 1447.99 C 666.646 1446.17 665.79 1445.64 665.377 1443.01 C 663.537 1431.31 665.264 1415.12 665.278 1403.03 L 665.234 1300.9 C 683.452 1289.35 704.089 1279.74 723.018 1269.26 C 752.526 1252.92 781.59 1235.51 811.519 1220 z"/>
<path transform="translate(0,0)" fill="rgb(255,255,255)" d="M 805.941 1231.91 C 808.814 1235.35 807.654 1347.09 807.335 1360.91 C 763.759 1386.32 719.359 1411.47 674.602 1434.72 L 673.799 1434.57 C 671.382 1430.14 673.027 1319.9 673.029 1305.97 C 717.574 1281.72 761.88 1257.03 805.941 1231.91 z"/>
<path transform="translate(0,0)" fill="rgb(251,130,161)" d="M 748.986 1292.87 L 750.702 1293.37 C 755.946 1301.41 761.837 1327.14 765.147 1338.14 C 756.719 1346.85 744.038 1352.21 733.431 1357.89 C 729.187 1360.42 725.216 1362.56 720.53 1364.24 C 724.732 1343.22 728.209 1321.02 734.847 1300.66 C 739.293 1297.71 744.279 1295.38 748.986 1292.87 z"/>
<path transform="translate(0,0)" fill="rgb(255,255,255)" d="M 1179.86 521.878 C 1180.56 521.927 1181.22 522.269 1181.88 522.498 C 1182.52 555.347 1181.93 588.3 1181.88 621.159 L 880.535 790.717 L 269.562 1137.56 L 268.718 1137.57 C 267.161 1134.94 266.851 1047.19 268.527 1041.24 C 270.256 1035.11 273.856 1032.58 279.077 1029.36 C 304.455 1013.71 331.517 1000.01 357.5 985.319 L 578.377 861.596 L 941.377 655.998 C 1020.79 611.151 1099.58 565.201 1179.86 521.878 z"/>
<path transform="translate(0,0)" fill="rgb(4,33,102)" d="M 1032.39 630.964 C 1034.37 630.956 1036.19 631.015 1038.12 631.528 C 1042.34 632.649 1046.29 635.403 1048.3 639.341 C 1051.26 645.156 1049.98 653.522 1047.83 659.39 C 1044.06 669.693 1037.57 675.107 1027.94 679.416 C 1025.17 679.655 1022.31 679.988 1019.59 679.241 C 1015.98 678.248 1012.72 675.908 1011.06 672.496 C 1008.14 666.481 1009.64 658.195 1011.95 652.231 C 1015.86 642.152 1022.61 635.295 1032.39 630.964 z"/>
<path transform="translate(0,0)" fill="rgb(251,130,161)" d="M 1033.35 638.804 C 1034.47 639.104 1035.31 639.293 1036.36 639.676 C 1039.05 640.655 1040.81 642.784 1041.82 645.389 C 1043.43 649.581 1042.34 654.265 1040.55 658.207 C 1037.31 665.322 1032.98 669.679 1025.69 672.401 C 1022.77 671.787 1020.11 670.741 1018.31 668.218 C 1016.14 665.182 1016.18 661.359 1017.18 657.916 C 1019.66 649.301 1025.73 643.065 1033.35 638.804 z"/>
<path transform="translate(0,0)" fill="rgb(4,33,102)" d="M 1116.81 587.116 C 1119.01 587.3 1121.18 587.704 1123.28 588.423 C 1127.1 589.766 1130.16 592.686 1131.69 596.442 C 1134.27 602.806 1132.31 610.904 1129.54 616.874 C 1125.3 625.99 1119.31 631.669 1110.02 635.24 C 1106.67 635.352 1103.42 635.239 1100.39 633.681 C 1096.86 631.865 1094.29 628.856 1093.14 625.05 C 1090.86 617.565 1093.26 608.125 1097.17 601.583 C 1101.97 593.555 1107.76 589.262 1116.81 587.116 z"/>
<path transform="translate(0,0)" fill="rgb(251,130,161)" d="M 1113.51 595.961 C 1116.67 595.68 1120.05 595.69 1122.49 598.025 C 1124.46 599.909 1124.88 602.607 1124.66 605.205 C 1123.93 613.934 1117.74 621.543 1111.29 626.864 C 1110.09 627.115 1108.26 627.637 1106.99 627.536 C 1104.06 627.303 1102.65 626.269 1100.76 624.162 C 1099.66 621.215 1099.21 619.043 1099.84 615.905 C 1101.62 606.972 1106.03 600.914 1113.51 595.961 z"/>
<path transform="translate(0,0)" fill="rgb(4,33,102)" d="M 948.131 678.05 C 950.951 677.824 953.658 677.673 956.417 678.442 C 960.248 679.511 963.688 681.921 965.524 685.508 C 968.574 691.465 967.272 699.667 965.015 705.652 C 961.269 715.586 955.076 721.416 945.713 725.924 C 943.373 726.141 941.051 726.304 938.721 725.869 C 934.913 725.159 931.292 722.637 929.357 719.274 C 926.371 714.083 927.305 706.704 928.981 701.254 C 932.189 690.821 938.591 683.128 948.131 678.05 z"/>
<path transform="translate(0,0)" fill="rgb(251,130,161)" d="M 949.361 686.901 C 952.772 686.795 955.867 686.948 958.279 689.739 C 960.001 691.73 960.162 694.701 959.753 697.185 C 958.343 705.752 952.315 712.375 945.386 717.005 C 944.974 717.053 944.563 717.117 944.149 717.148 C 940.759 717.398 939.019 716.871 936.406 714.719 C 934.885 711.989 934.386 710.005 934.949 706.865 C 936.554 697.921 942.017 691.681 949.361 686.901 z"/>
<path transform="translate(0,0)" fill="rgb(255,255,255)" d="M 1143.08 412.233 C 1164.67 410.348 1190.2 429.071 1208.83 439.214 C 1205.22 440.724 1201.65 442.322 1198.12 444.007 C 1166.93 458.819 1136.76 477.097 1106.53 493.835 L 942.581 585.568 L 574.198 793.471 C 493.626 838.066 413.317 883.136 333.277 928.679 C 315.95 938.607 298.51 948.333 280.958 957.856 C 267.712 965.071 253.42 971.933 241.237 980.836 C 223.354 993.904 213.085 1012.02 205.76 1032.55 L 202.765 1042.86 C 184.51 1033.43 165.478 1021.43 148.99 1009.13 C 152.994 995.457 157.943 982.417 165.878 970.49 C 172.994 959.794 181.563 951.894 192.409 945.069 C 212.478 932.439 234.027 921.55 254.681 909.852 L 385.275 835.78 L 825.46 586.754 L 982.638 498.733 C 1014.82 480.247 1047.16 462.042 1079.66 444.121 C 1096.63 434.68 1124.72 416.01 1143.08 412.233 z"/>
<path transform="translate(0,0)" fill="rgb(255,255,255)" d="M 236.285 1046.26 L 238.78 1046.1 C 240.102 1048.28 239.956 1050.07 239.988 1052.58 C 240.179 1067.53 239.45 1082.55 239.416 1097.51 L 239.094 1240.06 L 239.267 1685.89 C 239.323 1703.12 238.336 1810.86 240.869 1816.86 C 241.858 1819.21 244.271 1821.25 246.624 1822.04 C 249.373 1822.96 254.115 1820.39 256.737 1819.18 C 274.481 1811.02 291.447 1800.18 308.577 1790.76 L 402.252 1739.66 L 767.59 1537.47 L 1085.09 1362.28 L 1159.65 1321.12 C 1171.15 1314.77 1183.62 1308.8 1194.56 1301.59 C 1202.28 1296.51 1206.09 1289.77 1209.25 1281.36 C 1216.99 1286.35 1225.45 1290.2 1233.7 1294.26 C 1228.38 1305.62 1220.88 1315.17 1212.38 1324.31 C 1198.16 1339.34 1119.68 1379.01 1096.69 1391.43 L 982.791 1453.73 L 505.238 1717.07 C 440.708 1753.27 375.882 1788.94 310.765 1824.07 C 292.821 1833.82 275.298 1844.4 257.193 1853.84 C 250.985 1857.08 244.181 1860.6 237.048 1860.85 C 229.578 1861.12 222.036 1857.86 216.877 1852.51 C 212.459 1847.93 209.83 1841.67 209.215 1835.38 C 208.314 1826.17 208.895 1816.45 208.914 1807.16 L 208.99 1757.1 L 208.985 1595.49 L 209.017 1051.47 L 236.285 1046.26 z"/>
<path transform="translate(0,0)" fill="rgb(255,255,255)" d="M 1214.9 446.113 C 1218.03 445.852 1220.96 445.83 1224 446.79 C 1230.62 448.88 1235.8 454.787 1238.79 460.841 C 1242.28 467.901 1243.43 475.514 1243.79 483.287 C 1245.86 529.132 1244.21 575.793 1244.08 621.719 L 1243.91 861.418 L 1243.96 1122.12 C 1243.97 1167.5 1245.61 1213.59 1243.66 1258.9 C 1243.23 1268.86 1240.18 1278.04 1237.09 1287.44 C 1228.25 1282.89 1219.29 1278.51 1210.92 1273.14 L 1210.94 678.142 L 1210.82 541.414 C 1210.81 528.382 1212.6 497.746 1209.96 486.269 C 1208.27 484.05 1207.41 483.465 1204.74 482.658 C 1183.75 485.932 1106.73 533.463 1083.72 546.168 L 741.34 738.64 L 420.717 919.516 L 322.698 974.929 C 304.997 984.786 284.549 993.781 268.343 1005.8 C 257.428 1013.89 249.793 1024.98 243.64 1036.94 C 232.719 1037.91 221.481 1040.61 210.636 1042.5 C 213.294 1034.18 216.695 1026.11 220.797 1018.39 C 228.047 1004.69 237.511 993.001 250.657 984.607 C 268.631 973.129 288.166 963.332 306.81 952.941 L 405.556 897.248 L 822.777 662.691 L 1080.69 517.664 C 1107.67 502.344 1134.75 487.218 1161.94 472.288 C 1178.86 463.007 1196.37 451.752 1214.9 446.113 z"/>
<path transform="translate(0,0)" fill="rgb(255,255,255)" d="M 874.695 1625.87 C 877.488 1626.01 879.596 1627.31 881.999 1628.58 C 911.222 1644.04 939.554 1661.45 968.369 1677.67 C 982.461 1685.6 999.862 1692.62 1012.6 1702.42 C 1017.18 1705.95 1022.31 1711.21 1022.78 1717.32 C 1023.08 1721.2 1021.49 1724.81 1018.82 1727.58 C 1007.89 1738.89 917.404 1785.91 896.485 1797.43 L 808.76 1845.73 C 791.883 1855 774.826 1865.27 757.252 1873.12 C 748.279 1877.13 740.802 1878.74 730.918 1878.72 C 722.173 1878.71 713.318 1877.62 705.07 1874.61 C 687.437 1868.19 601.477 1823.31 590.065 1811.79 C 558.32 1779.75 564.596 1735.05 564.789 1693.89 C 572.684 1688.7 581.445 1684.39 589.71 1679.79 C 589.821 1702.02 586.548 1770.5 592.887 1786.85 C 595.863 1794.66 600.883 1801.53 607.422 1806.74 C 620.203 1816.91 637.267 1823.94 651.693 1831.57 C 669.15 1840.8 686.75 1851.3 704.976 1858.85 C 722.962 1866.31 744.187 1864.3 761.845 1857.04 C 805.996 1835.17 848.885 1809.99 892.089 1786.25 L 943.176 1758.17 C 953.168 1752.68 963.709 1747.53 973.123 1741.09 C 981.415 1735.42 987.405 1728.2 989.042 1717.97 C 990.59 1708.3 987.386 1699.67 981.851 1691.89 C 983.116 1696.91 984.36 1702.17 984.369 1707.37 C 984.383 1715.26 981.244 1723.75 975.262 1729.11 C 963.796 1739.36 946.919 1747.03 933.445 1754.42 L 872.407 1787.91 L 799.245 1828.39 C 784.963 1836.27 769.971 1845.74 754.745 1851.48 C 744.372 1855.38 733.794 1856.34 722.786 1855.33 C 717.788 1854.88 713.053 1853.9 708.377 1852.02 C 691.661 1845.3 675.234 1835.2 659.32 1826.65 C 643.986 1818.42 626.987 1810.67 612.752 1800.66 C 609.144 1798.13 606.452 1795.05 603.639 1791.7 C 662.221 1755.46 726.361 1723.11 786.999 1689.9 L 829.925 1666.45 C 838.918 1661.54 848.486 1657.01 856.738 1650.92 L 856.9 1636.59 L 874.695 1625.87 z"/>
<path transform="translate(0,0)" fill="rgb(255,255,255)" d="M 148.19 1018.45 C 165.523 1030.05 182.898 1041.31 200.908 1051.85 C 198.703 1114.96 200.527 1179.42 200.512 1242.67 L 200.56 1611.49 L 200.36 1766.97 C 200.352 1785.78 198.137 1824.78 202.043 1841.79 C 202.757 1843.7 202.58 1842.64 202.33 1845.02 C 194.636 1844.63 167.242 1826.43 161.268 1820.59 C 153.806 1813.3 149.968 1804.17 148.95 1793.87 C 146.745 1771.57 148.702 1743.11 148.698 1720.18 L 148.675 1563.35 L 148.583 1209.54 C 148.526 1145.88 149.253 1082.1 148.19 1018.45 z"/>
<path transform="translate(0,0)" fill="rgb(255,255,255)" d="M 847.83 1537.86 L 848.603 1538.51 C 850.872 1545.81 849.087 1631.6 849.058 1646.89 C 765.508 1691.63 683.369 1739.1 599.744 1783.67 C 595.049 1769.31 597.592 1746.19 597.646 1730.98 C 597.74 1712.42 597.689 1693.87 597.493 1675.31 C 610.598 1669.03 623.3 1661.26 636.043 1654.24 L 699.44 1619.43 L 847.83 1537.86 z"/>
<path transform="translate(0,0)" fill="rgb(4,33,102)" d="M 1600.13 1430.75 C 1607.96 1432.43 1687.17 1478.88 1700.59 1486.44 C 1775.66 1527.95 1850.45 1569.98 1924.94 1612.52 C 1843.32 1656.99 1762.79 1703.9 1681.99 1749.88 L 1418.96 1897.9 L 1407.15 1904.1 C 1336.64 1861.92 1264.63 1821.67 1193.29 1780.89 C 1176.37 1771.22 1108.1 1734.11 1097.68 1723.34 C 1096.71 1720.05 1096.73 1716.09 1097.96 1712.86 C 1099.43 1709.01 1109.62 1703.71 1113.22 1701.58 C 1138.18 1686.9 1164.05 1673.49 1189.35 1659.36 L 1371 1557.87 C 1426.38 1526.76 1481.58 1495.17 1537.35 1464.77 C 1558.21 1453.41 1578.78 1441.15 1600.13 1430.75 z"/>
<path transform="translate(0,0)" fill="rgb(255,255,255)" d="M 1599.99 1439.85 C 1611.44 1443.77 1623.15 1451.79 1633.73 1457.75 L 1694.9 1492.24 L 1820.05 1562.94 C 1848.95 1579.1 1879.01 1594.49 1906.78 1612.54 C 1892.38 1622.44 1875.72 1630.42 1860.52 1639.12 C 1826.13 1658.98 1791.58 1678.57 1756.89 1697.89 L 1410.44 1893.34 C 1409.61 1893.66 1408.9 1893.97 1408 1894.11 C 1405.84 1894.45 1403.42 1892.63 1401.64 1891.64 C 1337.72 1855.86 1274.86 1817.99 1211.25 1781.65 C 1186.17 1767.64 1161.26 1753.34 1136.51 1738.76 C 1125.47 1732.27 1112.99 1726.22 1103.13 1718.07 C 1118.54 1705.17 1159.62 1684.71 1179.24 1673.91 L 1310.61 1600.99 L 1475.28 1508.55 C 1516.52 1485.18 1557.74 1461.36 1599.99 1439.85 z"/>
<path transform="translate(0,0)" fill="rgb(4,33,102)" d="M 1600.91 1467.04 C 1620.35 1477.32 1639.23 1488.62 1658.38 1499.42 L 1764.15 1558.95 C 1779.96 1567.89 1796.45 1575.61 1812.23 1584.57 C 1817.1 1587.33 1822.06 1589.37 1823.66 1595.04 C 1823.24 1596.75 1822.88 1597.83 1821.69 1599.19 C 1817.09 1604.48 1729.92 1652.26 1716 1660.12 L 1491.2 1786.49 C 1466.82 1800.11 1442.81 1814.49 1418.29 1827.83 C 1415.31 1829.45 1412.89 1830.99 1409.43 1831.1 C 1362.6 1802.73 1314.66 1775.55 1267.01 1748.57 C 1238.63 1732.51 1209.65 1717.13 1182.24 1699.45 C 1194.16 1688.38 1216.16 1678.57 1230.96 1670.28 C 1267.31 1649.88 1303.79 1629.7 1340.37 1609.72 L 1516.03 1512.02 C 1544.05 1496.73 1571.94 1480.42 1600.91 1467.04 z"/>
<path transform="translate(0,0)" fill="rgb(255,255,255)" d="M 1599.27 1476.74 C 1602.38 1477 1605.08 1478.71 1607.79 1480.15 C 1621.02 1487.24 1633.86 1495.14 1646.99 1502.43 C 1679.71 1520.33 1712.3 1538.45 1744.77 1556.81 C 1767.23 1569.5 1790.59 1581.15 1812.65 1594.43 C 1794.08 1607.35 1773.35 1618.25 1753.66 1629.37 L 1669.93 1676.69 C 1583.89 1725.29 1498.09 1774.54 1411.3 1821.79 C 1379.32 1805.73 1346.43 1785.31 1315.4 1767.17 L 1196.08 1698.76 C 1226.25 1683.16 1255.71 1665.77 1285.43 1649.3 L 1453.97 1555.77 C 1501.9 1528.52 1550.35 1502.17 1599.27 1476.74 z"/>
<path transform="translate(0,0)" fill="rgb(4,33,102)" d="M 1604.28 1514.83 C 1613.7 1519.2 1622.64 1525.46 1631.61 1530.72 L 1677.36 1557.08 C 1690.1 1564.44 1726.09 1582.76 1734.74 1590.54 C 1737.61 1593.12 1738.52 1595.71 1738.77 1599.48 C 1733.29 1605.18 1672.83 1640.1 1663.4 1643.92 C 1660.19 1645.21 1658.75 1643.79 1655.79 1642.48 L 1515.85 1561.17 C 1546.75 1549.71 1574.37 1528.71 1604.28 1514.83 z"/>
<path transform="translate(0,0)" fill="rgb(251,130,161)" d="M 1603.4 1524.08 C 1613.44 1527.36 1627.08 1537.67 1636.94 1543.3 C 1668.13 1561.13 1699.68 1578.4 1730.74 1596.44 C 1709.04 1610.87 1684.05 1622.51 1661.46 1635.93 C 1655.73 1635.32 1549.36 1571.73 1534 1562.44 C 1556.8 1549.15 1580.15 1536.57 1603.4 1524.08 z"/>
<path transform="translate(0,0)" fill="rgb(4,33,102)" d="M 1394.43 1619.2 C 1396.89 1619.56 1398.83 1620.06 1401.1 1621.11 C 1409.76 1625.13 1418.1 1630.48 1426.43 1635.19 L 1474.7 1662.5 L 1527.83 1692.45 C 1535.88 1697.06 1545.41 1701.4 1552.39 1707.42 C 1553 1710.54 1552.22 1711.14 1550.81 1713.9 C 1539.71 1710.73 1515.45 1694.82 1504.23 1688.49 C 1467.71 1667.9 1430.48 1647.95 1394.7 1626.11 C 1393.16 1623.32 1393.87 1622.26 1394.43 1619.2 z"/>
<path transform="translate(0,0)" fill="rgb(4,33,102)" d="M 1459.62 1585.65 C 1470.06 1588.59 1605.58 1665.23 1610.43 1672 C 1611.48 1673.47 1610.64 1675.15 1610.35 1676.82 C 1607.53 1677.09 1605.9 1676.85 1603.33 1675.62 C 1594.4 1671.35 1585.89 1665.62 1577.32 1660.64 L 1528.64 1632.63 C 1508.62 1621.14 1477.24 1605.81 1459.9 1592.67 C 1458.71 1589.95 1459.24 1588.55 1459.62 1585.65 z"/>
<path transform="translate(0,0)" fill="rgb(4,33,102)" d="M 1339.44 1655.4 C 1348.27 1657.46 1399.34 1689.37 1410.63 1695.8 L 1460.39 1723.78 C 1470.09 1729.24 1480.3 1734.37 1489.33 1740.88 C 1490.2 1743.67 1489.32 1744.93 1488.42 1747.67 C 1478.52 1745.6 1343.68 1667.53 1338.79 1661.99 C 1338.07 1659.09 1338.59 1658.2 1339.44 1655.4 z"/>
<path transform="translate(0,0)" fill="rgb(4,33,102)" d="M 1840.45 1600.42 C 1848.88 1600.78 1856.08 1605.39 1862.73 1610.13 C 1850.34 1621.39 1815.39 1638.34 1798.85 1647.54 L 1683.26 1712.43 L 1501.79 1815.29 C 1471.3 1832.54 1440.81 1851.71 1409.23 1866.8 C 1399.7 1862.03 1390.54 1856.03 1381.29 1850.68 L 1326.61 1819.39 C 1266.61 1785.21 1206.88 1750.56 1147.42 1715.46 L 1145.86 1714.51 C 1144.15 1713.49 1142.21 1712.5 1140.72 1711.16 C 1138.87 1709.51 1138.49 1707.1 1138.37 1704.75 L 1139.81 1703.86 C 1151.48 1705.52 1224.26 1751.11 1240.56 1760.56 L 1334.83 1814.61 C 1359.69 1828.99 1384.36 1843.98 1409.67 1857.53 C 1440.8 1841.25 1471.17 1823.02 1501.77 1805.74 L 1658.09 1717.48 C 1720.48 1681.89 1784.56 1648.38 1845.61 1610.6 L 1839.93 1607.04 C 1838.83 1604.02 1839.47 1603.38 1840.45 1600.42 z"/>
<path transform="translate(0,0)" fill="rgb(4,33,102)" d="M 1746.26 685.164 C 1753.93 684.202 1760.57 684.719 1767.91 687.32 C 1779.89 691.559 1790.57 700.339 1795.83 712.036 C 1809.69 742.794 1786.8 755.095 1778.21 779.821 C 1778.07 780.232 1777.94 780.647 1777.8 781.06 C 1782.89 789.826 1790.58 805.54 1791.21 815.615 C 1787.16 826.147 1779.94 836.159 1774.07 845.818 L 1744.66 894.187 C 1727.85 921.921 1712.51 951.364 1694.4 978.218 C 1692.87 980.486 1691.35 982.479 1688.79 983.638 C 1688.43 983.801 1688.05 983.929 1687.68 984.079 C 1687.27 984.248 1686.86 984.431 1686.45 984.593 C 1678.43 987.729 1671.11 985.009 1663.72 981.68 L 1528.28 1212.58 C 1516.18 1233.26 1503.97 1253.88 1491.65 1274.43 C 1485.44 1284.82 1479.56 1297.21 1471.41 1306.2 C 1465.63 1312.56 1456.98 1317.56 1450.12 1322.88 C 1434.01 1335.37 1417.98 1347.99 1402.06 1360.73 C 1392.83 1368.76 1372.57 1387.85 1362.05 1391.67 C 1360.94 1390.88 1359.69 1390.48 1359.35 1389.06 C 1358.79 1386.67 1359.46 1383.95 1359.96 1381.59 C 1364.37 1361.1 1370.29 1340.73 1375.06 1320.28 C 1379.56 1300.96 1382.95 1281.03 1388.22 1261.94 C 1389.67 1256.65 1391.63 1251.77 1394.28 1246.97 C 1406.03 1225.72 1419.32 1205.11 1431.78 1184.25 C 1464.55 1129.4 1498.07 1074.76 1529.89 1019.38 L 1639.39 831.151 L 1671.52 775.868 C 1677.97 764.65 1684.08 752.844 1691.34 742.147 C 1695 736.756 1698.97 734.745 1705.11 732.939 C 1715.62 715.103 1725.49 692.53 1746.26 685.164 z"/>
<path transform="translate(0,0)" fill="rgb(255,255,255)" d="M 1542.62 1014.5 C 1545.25 1016.35 1547.11 1019.07 1549.21 1021.5 C 1565.44 1040.27 1587.03 1052.42 1611.92 1054.22 C 1578.53 1111.95 1544.75 1169.46 1510.57 1226.73 C 1500.12 1244.46 1476.23 1290.09 1464.16 1302.37 C 1463.14 1302.69 1462.12 1303.02 1461.09 1303.29 C 1446.34 1307.2 1429.95 1307.65 1416.58 1299.26 C 1405.46 1292.29 1400.35 1280.89 1397.63 1268.53 C 1396.72 1264.4 1396.47 1260.43 1398.26 1256.51 C 1403.01 1246.17 1410.22 1236.09 1416.02 1226.24 C 1428.78 1204.38 1441.75 1182.64 1454.91 1161.01 C 1484.44 1112.36 1512.82 1063.01 1542.62 1014.5 z"/>
<path transform="translate(0,0)" fill="rgb(255,255,255)" d="M 1666.24 801.505 C 1670.44 804.622 1674.17 809.294 1678.26 812.749 C 1696.62 828.267 1714.18 837.069 1738 840.171 C 1707.03 891.773 1676.43 943.602 1646.21 995.653 C 1637.26 998.727 1628.91 998.942 1619.77 996.33 C 1600.41 990.796 1585.48 976.191 1575.88 958.988 C 1579.69 945.518 1597.23 919.184 1605.04 905.79 L 1666.24 801.505 z"/>
<path transform="translate(0,0)" fill="rgb(255,255,255)" d="M 1747.53 693.162 C 1748.15 693.1 1748.77 693.03 1749.39 692.975 C 1761.15 691.941 1773.14 697.064 1781.83 704.835 C 1788.27 710.597 1792.67 718.191 1792.85 726.985 C 1793.13 741.207 1782.57 754.25 1775.64 765.808 C 1772.41 771.184 1769.7 778.146 1765.06 782.436 C 1760.85 786.332 1754.58 785.338 1749.31 785.188 C 1745.63 784.567 1741.81 783.667 1738.29 782.411 C 1722.96 776.932 1710.16 766.935 1703 752.139 C 1709.2 739.451 1728.44 706.926 1738.53 698.146 C 1741.07 695.932 1744.48 694.542 1747.53 693.162 z"/>
<path transform="translate(0,0)" fill="rgb(255,255,255)" d="M 1781.16 813.93 C 1781.91 814.635 1781.45 814.09 1781.89 815.939 C 1775.03 831.82 1760.07 852.246 1750.73 867.768 C 1731.03 900.491 1712.32 933.988 1691.93 966.273 C 1689.93 969.444 1687.37 973.923 1684.23 975.986 C 1679.69 978.964 1674.14 976.943 1669.48 975.504 C 1669.19 973.261 1669.38 972.988 1670.32 971.035 C 1677.11 956.925 1686.4 943.239 1694.37 929.688 C 1716.4 892.2 1739.87 855.294 1760.73 817.168 C 1764.41 818.508 1768.32 819.267 1772.13 820.164 C 1775.24 818.25 1778.19 816.046 1781.16 813.93 z"/>
<path transform="translate(0,0)" fill="rgb(255,255,255)" d="M 1392.46 1280.69 C 1396.77 1284.82 1399 1293.31 1403.29 1298.32 C 1414.62 1311.53 1430.62 1313.21 1446.81 1314.09 C 1432.06 1327.7 1415.23 1339.72 1399.48 1352.19 C 1389.31 1360.28 1379.45 1368.8 1369.48 1377.13 C 1377.74 1345.08 1384.53 1312.79 1392.46 1280.69 z"/>
<path transform="translate(0,0)" fill="rgb(251,130,161)" d="M 1556.41 988.599 C 1560.2 992.126 1563.24 996.845 1566.97 1000.57 C 1584.49 1018.07 1603.2 1026.05 1627.53 1028.99 C 1623.83 1034.55 1620.1 1040.08 1616.32 1045.59 C 1612.22 1048.12 1603.94 1046.3 1599.49 1045.18 C 1578.22 1039.86 1558.34 1023.9 1547.14 1005.41 C 1549.81 999.57 1553.15 994.117 1556.41 988.599 z"/>
<path transform="translate(0,0)" fill="rgb(251,130,161)" d="M 1670.73 793.927 C 1673.31 789 1677.55 778.126 1682.67 776.202 L 1684.7 779.893 C 1698.7 797.756 1719.04 811.022 1741.98 813.611 C 1745.51 814.009 1749.08 814.169 1752.63 814.256 L 1742.87 832.203 C 1720.24 831.21 1704.58 822.979 1686.55 809.703 C 1680.78 804.822 1675.78 799.531 1670.73 793.927 z"/>
<path transform="translate(0,0)" fill="rgb(255,255,255)" d="M 1670.73 793.927 C 1673.31 789 1677.55 778.126 1682.67 776.202 L 1684.7 779.893 L 1686.55 809.703 C 1680.78 804.822 1675.78 799.531 1670.73 793.927 z"/>
<path transform="translate(0,0)" fill="rgb(255,255,255)" d="M 1569.75 966.601 C 1573.9 969.729 1581.78 982.028 1588.05 987.649 C 1603.1 1001.13 1619.75 1007.09 1639.93 1005.95 L 1632.04 1021.02 C 1626.16 1020.95 1620.54 1020.7 1614.78 1019.31 C 1592.72 1014.06 1573.68 1000.21 1561.89 980.842 L 1569.75 966.601 z"/>
<path transform="translate(0,0)" fill="rgb(255,255,255)" d="M 1696.66 749.763 C 1696.77 751.017 1696.91 752.261 1697.05 753.512 C 1697.95 761.799 1703.27 768.681 1709.14 774.314 C 1724.01 788.594 1742.71 793.25 1762.77 792.97 C 1761.12 798.889 1760.18 803.439 1754.91 807.105 C 1751.29 807.145 1747.6 807.102 1744 806.649 C 1718.02 803.372 1701.27 788.685 1685.87 768.657 C 1689.09 762.007 1692.58 755.926 1696.66 749.763 z"/>
<path transform="translate(0,0)" fill="rgb(255,255,255)" d="M 1771.79 792.488 C 1774.38 792.966 1776.7 794.371 1777.91 796.789 C 1779.1 799.158 1778.84 801.433 1778.12 803.868 C 1776.92 807.914 1774.67 809.269 1771.26 811.262 C 1770.67 811.517 1769.36 811.53 1768.7 811.6 C 1766.53 810.25 1766.67 809.919 1765.85 807.455 C 1766.51 805.369 1767.09 803.679 1768.29 801.821 C 1770.22 798.808 1771.43 797.006 1771.74 793.364 C 1771.77 793.072 1771.78 792.78 1771.79 792.488 z"/>
<path transform="translate(0,0)" fill="rgb(133,247,222)" d="M 1895.69 381.567 C 1901.46 381.293 1918.01 378.885 1922.04 382.386 L 1921.14 384.01 C 1916.74 386.501 1912.17 387.073 1907.21 387.447 C 1896.24 388.274 1885.16 387.924 1874.17 388.103 C 1848.6 388.446 1823.03 388.581 1797.47 388.508 C 1719.65 388.021 1641.84 387.942 1564.02 388.27 C 1489.38 389.593 1414.76 391.79 1340.17 394.86 C 1308.58 395.874 1276.94 395.536 1245.34 396.222 L 1130.42 398.284 C 1112.78 398.676 1095.14 399.789 1077.5 399.938 C 977.878 400.436 878.252 400.359 778.63 399.707 C 713.364 398.849 648.06 396.428 582.797 396.07 L 381 396.105 L 188.729 398.185 C 182.761 398.233 174.02 399.668 168.458 398.089 C 166.698 397.589 166.949 397.191 166.139 395.675 L 167.19 394.06 C 180.451 390.019 263.478 392.686 283.737 392.512 C 375.628 391.723 467.692 390.042 559.574 390.833 L 791.085 393.948 C 819.808 394.408 848.522 395.62 877.25 395.759 C 932.553 396.028 988.065 396.715 1043.35 395.492 C 1068.26 394.941 1093.1 392.753 1118 392.263 L 1361.63 387.727 C 1399.21 386.798 1436.77 384.655 1474.36 384.103 C 1558.24 382.868 1642.13 382.248 1726.02 382.243 C 1782.58 382.333 1839.13 384.328 1895.69 381.567 z"/>
<path transform="translate(0,0)" fill="rgb(133,247,222)" d="M 1850.69 119.869 C 1873.36 129.695 1898.9 139.735 1919.18 153.973 C 1907.56 159.327 1890.71 167.505 1882.25 177.31 C 1874.36 186.463 1860.57 237.211 1853.33 253.544 L 1826.63 177.676 C 1812.99 168.74 1797.66 160.104 1782.44 154.251 C 1804.61 141.684 1828.83 132.915 1850.69 119.869 z"/>
<path transform="translate(0,0)" fill="rgb(4,33,102)" d="M 1207.75 209.312 C 1210.22 209.167 1212.84 208.909 1215.33 209.024 C 1221.76 209.323 1219.82 213.895 1222.74 217.358 C 1226.77 214.916 1230.91 212.229 1235.16 210.199 C 1241.53 207.163 1251.09 208.294 1257.5 210.781 C 1265.5 213.897 1271.81 220.24 1274.89 228.252 C 1278.6 237.721 1278.17 250.143 1273.91 259.384 C 1269.54 268.857 1260.48 272.992 1251.17 276.134 C 1250.09 276.27 1249.01 276.417 1247.92 276.502 C 1236.69 277.375 1230.05 273.551 1221.76 266.678 C 1221.47 278.166 1221.71 289.717 1221.73 301.211 L 1207.04 301.195 C 1206.91 270.578 1207.72 239.937 1207.75 209.312 z"/>
<path transform="translate(0,0)" fill="rgb(255,255,255)" d="M 1238.36 221.221 C 1242.21 221.08 1246.18 221.357 1249.82 222.75 C 1255.3 224.851 1259.69 229.596 1261.72 235.055 C 1263.85 240.766 1263.62 247.383 1260.88 252.847 C 1257.7 259.166 1253.11 261.693 1246.65 263.91 C 1241.96 264.146 1237.51 264.266 1233.18 262.173 C 1228.21 259.771 1224.45 255.186 1222.72 249.996 C 1220.68 244.053 1221.13 237.542 1223.94 231.927 C 1227.18 225.588 1231.85 223.353 1238.36 221.221 z"/>
<path transform="translate(0,0)" fill="rgb(133,247,222)" d="M 1774.39 177.542 C 1774.65 177.652 1774.9 177.757 1775.16 177.873 C 1784.58 182.214 1800.32 189.968 1806.33 198.346 C 1813.05 207.71 1818.52 232.08 1822.63 244.087 C 1829.14 263.203 1835.99 282.202 1843.18 301.077 C 1822.05 294.651 1794.19 278.267 1774.93 266.891 C 1773.59 237.263 1774.43 207.213 1774.39 177.542 z"/>
<path transform="translate(0,0)" fill="rgb(133,247,222)" d="M 1928.56 177.897 C 1928.62 177.95 1928.69 177.987 1928.74 178.055 C 1931.82 182.752 1930 256.084 1930 267.735 C 1910.28 281.631 1886.6 290.751 1865.26 301.96 L 1864.43 300.588 C 1866.47 287.216 1875.81 265.942 1880.54 252.363 C 1887.32 232.849 1893.16 212.685 1900.81 193.528 L 1928.56 177.897 z"/>
<path transform="translate(0,0)" fill="rgb(4,33,102)" d="M 1004.2 187.497 C 1021.27 187.338 1044.76 184.321 1058.79 196.016 C 1064.09 200.43 1067.29 206.489 1067.55 213.422 C 1067.86 221.273 1065.02 228.923 1059.67 234.669 C 1051.47 243.398 1041.32 245.035 1029.97 245.166 L 1015.48 245.124 L 1015.46 276.693 L 1000.55 276.684 C 1000.11 265.384 998.955 193.313 1001.81 187.93 L 1004.2 187.497 z"/>
<path transform="translate(0,0)" fill="rgb(255,255,255)" d="M 1015.37 199.115 C 1026.14 198.9 1038.86 197.868 1048.1 204.427 C 1050.88 206.396 1053.26 209.132 1053.72 212.625 C 1054.49 218.45 1051.31 224.104 1047.79 228.429 C 1038.54 235.034 1026.23 233.249 1015.44 233.06 C 1015.14 221.769 1015.37 210.412 1015.37 199.115 z"/>
<path transform="translate(0,0)" fill="rgb(4,33,102)" d="M 1153.27 207.989 C 1172.32 205.558 1189.76 218.964 1192.31 238 C 1194.86 257.036 1181.56 274.558 1162.54 277.224 C 1143.36 279.914 1125.65 266.473 1123.08 247.271 C 1120.5 228.069 1134.05 210.442 1153.27 207.989 z"/>
<path transform="translate(0,0)" fill="rgb(255,255,255)" d="M 1152.18 221.137 C 1156.44 220.829 1160.71 220.459 1164.8 221.977 C 1169.96 223.891 1174.21 228.191 1176.48 233.156 C 1179.03 238.758 1179.45 245.308 1177.18 251.076 C 1174.58 257.655 1169.75 261.322 1163.38 263.901 C 1159.68 264.449 1156.16 264.756 1152.47 263.86 C 1147.15 262.566 1142.57 258.838 1139.92 254.089 C 1136.69 248.179 1136.1 241.18 1138.29 234.811 C 1140.84 227.42 1145.35 224.35 1152.18 221.137 z"/>
<path transform="translate(0,0)" fill="rgb(4,33,102)" d="M 1313.27 208.922 C 1332.09 204.56 1350.87 216.338 1355.15 235.183 C 1359.42 254.029 1347.55 272.756 1328.69 276.941 C 1309.95 281.097 1291.37 269.327 1287.13 250.606 C 1282.88 231.886 1294.57 213.255 1313.27 208.922 z"/>
<path transform="translate(0,0)" fill="rgb(255,255,255)" d="M 1315.13 221.094 C 1319.07 220.788 1323.41 220.427 1327.27 221.467 C 1332.38 222.841 1337.11 227.111 1339.65 231.662 C 1342.62 236.985 1343.52 243.544 1341.7 249.403 C 1339.57 256.208 1334.65 260.62 1328.51 263.796 C 1324.52 264.585 1320.97 265.1 1316.95 264.21 C 1311.54 263.019 1306.83 259.69 1303.91 254.979 C 1300.45 249.452 1299.73 242.374 1301.55 236.165 C 1303.77 228.559 1308.36 224.704 1315.13 221.094 z"/>
<path transform="translate(0,0)" fill="rgb(4,33,102)" d="M 446.245 207.262 C 446.528 207.228 446.811 207.186 447.096 207.16 C 456.372 206.305 467.331 206.646 474.674 213.119 C 481.064 218.751 483.265 227.296 483.585 235.525 C 483.802 241.095 484.662 273.058 481.947 275.998 C 478.899 276.382 476.478 276.482 473.428 276.144 C 471.141 274.011 471.262 273.05 470.613 270.065 C 466.663 269.474 454.994 277.743 448.076 278.038 C 440.176 278.375 432.78 273.895 427.193 268.741 C 424.249 263.588 422.447 258.149 423.067 252.106 C 425.009 233.167 460.894 242.238 468.597 236.233 C 469.162 233.02 468.889 228.71 467.183 225.806 C 465.506 222.951 461.919 221.067 458.891 220.079 C 448.785 216.78 439.103 221.291 430.233 225.8 C 428.311 223.765 426.916 221.638 425.437 219.284 C 425.325 217.585 424.886 216.465 425.831 214.944 C 429.256 209.435 440.206 208.43 446.245 207.262 z"/>
<path transform="translate(0,0)" fill="rgb(255,255,255)" d="M 450.594 246.366 L 469.678 245.96 C 469.711 249.264 469.793 252.852 468.87 256.054 C 467.229 261.747 463.133 264.028 458.183 266.608 C 454.135 266.919 449.694 267.601 445.849 266.013 C 442.486 264.624 439.184 261.654 438.086 258.097 C 437.349 255.707 437.828 253.207 439.312 251.208 C 442.126 247.418 446.227 246.899 450.594 246.366 z"/>
<path transform="translate(0,0)" fill="rgb(4,33,102)" d="M 880.293 207.315 C 889.133 207.11 898.771 208.063 905.441 214.496 C 917.141 225.781 913.129 260.143 913.091 275.998 C 912.597 276.006 912.103 276.007 911.609 276.02 C 908.745 276.095 904.702 276.802 902.139 275.309 C 900.472 274.338 900.179 272.972 899.803 271.143 C 899.738 270.826 899.692 270.505 899.636 270.185 C 893.503 269.578 885.544 277.671 876.475 277.029 C 868.322 276.453 861.902 271.081 856.818 265.152 C 856.672 264.833 856.509 264.521 856.379 264.195 C 854.414 259.24 853.019 251.263 855.49 246.312 C 862.254 232.758 886.561 239.874 898.075 235.423 C 898.925 232.815 898.556 228.682 897.163 226.23 C 895.351 223.041 890.447 220.638 887.037 219.776 C 877.843 217.452 869.082 221.611 861.354 226.124 C 859.12 222.629 857.404 218.856 855.587 215.133 C 863.818 210.988 871.137 208.505 880.293 207.315 z"/>
<path transform="translate(0,0)" fill="rgb(255,255,255)" d="M 885.831 245.479 C 888.856 245.301 894.109 244.421 896.609 246.142 C 898.795 247.646 899.417 249.286 900.063 251.741 C 899.747 254.721 898.969 256.711 897.072 259.009 C 892.567 264.464 888.771 265.25 881.943 266.045 C 879.066 265.603 876.027 265.235 873.443 263.804 C 870.766 262.322 868.465 259.797 867.913 256.71 C 867.48 254.293 868.592 252.114 870.025 250.257 C 873.873 245.27 880.209 245.687 885.831 245.479 z"/>
<path transform="translate(0,0)" fill="rgb(4,33,102)" d="M 1455.7 208.386 C 1456.05 208.36 1456.41 208.318 1456.76 208.308 C 1464.46 208.083 1473.08 209.722 1478.69 215.358 C 1490.49 227.221 1486.5 259.941 1486.34 275.796 C 1482.9 275.914 1475.79 276.83 1472.92 275.067 C 1472.81 273.09 1472.63 271.225 1472.28 269.276 C 1465.03 269.806 1459.87 278.477 1448.72 277.728 C 1441.24 277.225 1434.93 272.85 1430.01 267.527 C 1428.9 264.763 1427.7 261.871 1427.29 258.907 C 1426.66 254.354 1427.39 249.801 1430.47 246.243 C 1437.12 238.548 1448.94 238.891 1458.19 238.063 C 1463.51 237.586 1469.03 237.465 1472.63 233.143 C 1472.44 231.191 1472.56 230.796 1471.43 229.051 C 1459.04 209.841 1446.21 228.205 1434.08 224.958 C 1431.67 224.312 1430.82 223.447 1429.85 221.262 C 1430.33 219.374 1430.8 218.432 1432.1 216.921 C 1438.44 209.585 1446.85 209.328 1455.7 208.386 z"/>
<path transform="translate(0,0)" fill="rgb(255,255,255)" d="M 1472.26 246.86 C 1472.4 249.637 1472.89 253.052 1472.29 255.776 C 1471.26 260.416 1467.96 262.03 1464.27 264.487 C 1461.22 265.345 1457.77 266.106 1454.6 266.125 C 1450.97 266.147 1444.81 264.352 1442.57 261.233 C 1441.24 259.379 1440.83 258.015 1441.11 255.771 C 1441.59 251.843 1444.59 249.373 1447.55 247.151 L 1472.26 246.86 z"/>
<path transform="translate(0,0)" fill="rgb(4,33,102)" d="M 571.83 182.42 C 576.193 182.285 580.603 182.56 584.967 182.695 C 594.089 208.487 606.964 234.175 618.432 259.078 L 650.105 183.138 L 664.316 184.139 C 661.94 189.309 659.62 194.506 657.358 199.728 C 647.388 225.577 635.652 250.998 623.68 275.979 C 619.581 276.551 615.376 276.613 611.244 276.823 C 601.592 258.384 593.511 238.639 585.102 219.593 C 580.066 208.187 573.375 196.04 570.386 183.985 L 571.83 182.42 z"/>
<path transform="translate(0,0)" fill="rgb(4,33,102)" d="M 208.511 206.07 C 212.205 206.014 215.518 205.662 218.917 207.283 C 221.529 209.894 221.704 213.013 222.329 216.486 C 230.154 210.487 236.288 206.781 246.562 206.715 C 254.544 206.664 262.423 207.88 268.169 213.898 C 279.351 225.611 275.616 260.914 275.624 276.772 L 262.232 276.712 C 261.572 264.535 261.977 252.126 261.946 239.921 C 261.603 234.968 261.657 229.249 258.063 225.374 C 254.245 221.258 248.753 219.185 243.222 219.042 C 237.947 218.905 232.664 220.59 228.829 224.3 C 219.042 233.767 222.481 262.52 222.417 276.143 L 208.288 276.61 C 208.261 253.127 207.8 229.536 208.511 206.07 z"/>
<path transform="translate(0,0)" fill="rgb(4,33,102)" d="M 824.319 207.257 L 838.038 207.236 L 837.938 232.796 C 837.879 245.886 839.691 262.202 837.089 274.875 C 836.828 275.046 836.588 275.256 836.306 275.389 C 834.24 276.366 827.969 276.367 825.96 275.253 C 824.68 274.543 824.312 271.303 823.929 269.893 C 812.959 270.395 810.563 279.876 794.992 276.124 C 788.213 274.491 782.676 270.451 779.241 264.358 C 774.021 255.101 772.72 218.379 775.357 208.272 L 777.666 207.478 L 789.008 207.559 C 789.066 220.836 784.579 250.078 794.687 260.172 C 797.592 263.073 801.417 264.212 805.455 264.226 C 810.29 264.243 815.033 262.747 818.456 259.229 C 828.518 248.89 824.524 221.084 824.319 207.257 z"/>
<path transform="translate(0,0)" fill="rgb(4,33,102)" d="M 732.698 207.294 C 741.753 207.42 750.102 208.466 758.786 211.096 L 756.378 222.936 C 755.565 222.65 754.753 222.359 753.929 222.105 C 746.552 219.824 733.514 216.337 726.479 220.52 C 723.942 222.028 722.433 224.07 721.752 226.944 C 725.327 237.604 748.289 238.072 757.131 245.484 C 760.441 248.258 762.607 251.736 762.651 256.153 C 762.694 260.529 759.658 265.545 756.729 268.6 C 749.636 275.999 738.941 276.991 729.294 276.991 C 721.067 275.752 714.25 273.532 706.793 269.952 L 710.355 258.765 C 719.852 262.974 730.33 266.807 740.838 264.009 C 743.897 263.194 746.521 261.681 748 258.774 C 748.829 257.144 748.275 256.606 747.834 254.953 C 740.085 246.93 726.868 247.418 717.486 241.662 C 713.137 238.993 709.286 235.048 708.315 229.874 C 707.483 225.448 708.974 220.358 711.594 216.758 C 716.443 210.097 725.062 208.419 732.698 207.294 z"/>
<path transform="translate(0,0)" fill="rgb(4,33,102)" d="M 1389.35 208.314 C 1398.82 207.667 1407.43 210.252 1416 213.943 C 1414.76 217.448 1413.18 220.894 1411.77 224.339 C 1402.78 221.622 1393.12 217.446 1384.03 221.99 C 1381.11 223.448 1379.43 224.605 1378.42 227.738 C 1383.48 237.412 1405.47 238.34 1414.33 246.46 C 1417.26 249.143 1419.55 252.685 1419.67 256.755 C 1419.8 261.259 1417.35 265.73 1414.33 268.927 C 1408.1 275.526 1398.67 276.451 1390.12 276.809 C 1380.86 276.019 1373.41 274.286 1364.85 270.615 L 1368.32 257.651 C 1368.72 257.921 1369.12 258.18 1369.51 258.461 C 1377.4 264.204 1386.23 266.273 1396.01 264.942 C 1399.22 264.504 1402.68 263.349 1404.51 260.522 C 1405.5 258.999 1405 258.412 1404.72 256.756 C 1398.52 249.098 1385.78 248.055 1377.32 243.368 C 1372.26 240.565 1367.4 236.233 1366.12 230.348 C 1365.22 226.172 1366.29 221.378 1368.73 217.886 C 1373.31 211.302 1381.93 209.424 1389.35 208.314 z"/>
<path transform="translate(0,0)" fill="rgb(4,33,102)" d="M 338.26 190.716 C 342.88 190.416 347.604 190.681 352.236 190.746 L 352.194 207.561 C 358.13 207.416 365.708 206.335 371.053 209.318 C 373.09 210.455 373.81 211.006 374.45 213.341 C 374.124 213.781 373.87 214.286 373.471 214.662 C 368.194 219.637 358.71 218.183 352.136 218.029 L 351.991 239.785 C 351.985 247.161 350.993 258.657 356.606 264.291 C 361.435 266.255 367.763 263.831 372.924 263.75 L 375.255 266.492 C 376.81 268.191 378.422 269.568 378.799 271.939 C 378.596 272.206 378.425 272.5 378.189 272.739 C 375.237 275.723 369.031 276.816 365.004 277.08 C 357.969 277.543 350.572 277.046 345.249 271.889 C 334.041 261.03 338.192 233.094 338.224 218.31 C 335.299 218.356 331.305 218.785 328.5 217.854 C 326.063 217.044 325.021 215.348 323.868 213.225 C 324.272 211.223 323.894 211.634 325.16 210.257 C 328.59 206.526 333.605 207.297 338.244 207.279 L 338.26 190.716 z"/>
<path transform="translate(0,0)" fill="rgb(4,33,102)" d="M 1506.15 180.13 L 1521.29 180.118 L 1521.1 276.004 L 1506.69 276.13 L 1506.15 180.13 z"/>
<path transform="translate(0,0)" fill="rgb(4,33,102)" d="M 935.019 176.11 L 948.998 176.03 L 948.947 276.099 L 935.033 276.015 L 935.019 176.11 z"/>
<path transform="translate(0,0)" fill="rgb(4,33,102)" d="M 506.43 175.837 C 510.702 175.49 516.189 174.957 520.074 176.862 C 521.311 188.86 520.424 201.492 520.339 213.553 C 520.17 234.406 520.115 255.26 520.175 276.113 C 515.609 276.417 510.975 276.37 506.397 276.475 L 506.43 175.837 z"/>
<path transform="translate(0,0)" fill="rgb(4,33,102)" d="M 168.442 183.438 L 182.089 183.44 C 182.091 195.908 183.868 270.439 180.729 275.937 L 167.248 275.843 C 166.834 265.08 165.58 187.185 168.442 183.438 z"/>
<path transform="translate(0,0)" fill="rgb(4,33,102)" d="M 1093.29 220.889 C 1097.08 215.61 1102.46 209.038 1109.23 207.76 C 1111.9 207.256 1113.28 208.103 1115.53 209.382 C 1117.92 212.61 1117.12 216.925 1117 220.748 C 1112.61 221.513 1107.82 222.014 1103.86 224.179 C 1097.75 227.518 1095.77 232.642 1093.85 239.018 C 1093.15 251.353 1093.55 263.909 1093.54 276.271 L 1079.61 276.378 C 1079.9 253.658 1079.87 230.935 1079.53 208.216 L 1092.9 208.343 L 1093.29 220.889 z"/>
<path transform="translate(0,0)" fill="rgb(4,33,102)" d="M 677.267 206.836 L 692.127 206.995 C 692.245 230.098 692.241 253.2 692.113 276.302 L 677.366 276.477 C 676.584 253.324 677.185 230.004 677.267 206.836 z"/>
<path transform="translate(0,0)" fill="rgb(4,33,102)" d="M 392.415 206.472 C 397.234 206.202 402.122 206.408 406.95 206.449 L 406.791 275.988 L 392.229 276.108 C 391.905 252.917 392.307 229.668 392.415 206.472 z"/>
<path transform="translate(0,0)" fill="rgb(4,33,102)" d="M 297.919 207.009 L 312.541 206.987 C 312.109 230.18 311.896 253.377 311.902 276.575 C 307.479 277.142 302.719 276.814 298.249 276.835 C 297.2 253.705 297.96 230.183 297.919 207.009 z"/>
<path transform="translate(0,0)" fill="rgb(4,33,102)" d="M 682.584 172.051 C 687.856 171.297 692.754 174.924 693.572 180.186 C 694.389 185.449 690.821 190.39 685.569 191.271 C 682.114 191.85 678.616 190.526 676.409 187.807 C 674.202 185.087 673.628 181.391 674.906 178.13 C 676.184 174.869 679.117 172.547 682.584 172.051 z"/>
<path transform="translate(0,0)" fill="rgb(4,33,102)" d="M 299.632 175.973 C 301.072 175.855 302.514 175.738 303.959 175.721 C 307.052 175.685 311.049 176.983 313.052 179.517 C 314.638 181.523 315.304 183.333 314.908 185.922 C 314.452 188.903 312.201 190.828 310.085 192.699 C 309.232 192.785 308.377 192.857 307.522 192.915 C 303.811 193.151 299.404 192.559 296.771 189.554 C 295.017 187.551 294.276 185.786 294.577 183.08 C 294.928 179.926 297.426 177.922 299.632 175.973 z"/>
<path transform="translate(0,0)" fill="rgb(4,33,102)" d="M 394.703 176 C 398.894 175.714 403.397 175.594 406.537 178.947 C 408.121 180.639 408.611 182.274 408.606 184.522 C 408.596 188.371 405.959 190.818 403.398 193.294 C 398.859 193.394 393.91 193.332 390.694 189.507 C 389.598 188.204 389.034 186.749 389.061 185.075 C 389.132 180.716 391.713 178.678 394.703 176 z"/>
</svg>